<svg width="440" height="452" viewBox="0 0 440 452" fill="none" xmlns="http://www.w3.org/2000/svg">
<path fill-rule="evenodd" clip-rule="evenodd" d="M361.298 242.085V97.8737H386.775H412.252V242.819V264.469L409.022 283.55L402.922 307.035L396.104 326.117L386.057 347.033L378.163 359.142L368.475 373.454L358.427 384.462L346.227 397.305L328.645 411.983L309.268 425.194L287.38 436.202L266.926 443.174L259.75 445.743L250.42 447.945L235.708 450.146L218.126 451.614H189.061L158.56 447.211L135.595 440.239L97.9182 421.157L65.9825 395.471L43.0175 370.151L25.4349 343.364L10.723 307.769L1.75229 267.772L0.6758 227.33H51.9882L56.653 280.248L64.5472 305.201L76.7474 327.952L90.3828 345.932L102.942 359.142L120.166 371.986L131.289 380.793L158.56 363.546L185.472 353.638L204.131 352.17H219.202L243.244 359.142L258.314 366.115L272.309 374.921L280.562 380.793L302.809 367.582L322.186 348.134L339.409 322.08L351.251 297.495L359.504 268.505L361.298 242.085Z" fill="#26D64C"/>
<path d="M412.252 97.8737H386.775H361.298H333.309L386.775 0.940674L439.066 97.8737H412.252Z" fill="#26D64C"/>
<path d="M73.5166 172.731L76.3872 151.448L82.8461 156.219L87.5109 159.521L101.505 165.759C106.409 166.983 116.289 169.502 116.576 169.796C116.863 170.089 127.46 171.141 132.723 171.631L145.282 173.832L158.559 177.869L167.888 183.373L176.141 190.712L180.806 198.051L185.112 206.491L189.418 218.233L191.212 231.444L190.136 242.452L185.112 253.461L180.447 260.8L174.706 254.562L166.453 246.122L157.124 238.416L146.718 230.343L141.335 228.508L143.129 232.178L149.229 238.783L158.2 248.323L166.453 258.231L172.912 267.772L179.371 277.313L188.342 291.991L190.853 297.495L194.442 304.834L198.389 311.806L200.901 318.778L204.848 326.851L208.077 321.714L211.307 314.742L214.536 309.237L218.483 302.265L222.43 297.862L226.019 293.091L229.607 286.853L234.63 283.918L242.166 276.579L247.189 269.607L241.448 269.974L236.066 272.909L230.325 276.579L226.019 280.982L219.919 285.752L218.483 283.918L215.971 274.744L214.895 268.873L214.536 261.534L214.895 258.598L215.613 256.763L218.483 249.057L223.507 241.351L227.095 236.581L234.989 229.976L241.807 225.939L252.213 220.435L261.543 217.133L275.178 212.729L287.737 211.261L300.296 209.427L309.984 208.693V210.527C309.865 211.873 309.626 214.711 309.626 215.298C309.626 215.885 308.669 218.233 308.19 219.334L307.114 225.205L305.32 235.48V251.626L304.243 261.534L302.449 273.276L296.708 283.918L290.608 290.156L279.484 297.495L264.772 302.999L245.754 305.935L238.936 306.302L228.53 305.201L221.354 316.943L215.613 333.823L212.383 343.731H196.595L195.518 340.428L194.083 333.089L191.212 324.282L186.906 314.008L182.959 303.733L178.294 294.926L175.424 288.321L171.118 281.349L166.094 275.478L159.635 277.313L147.794 278.046L134.876 278.413L124.111 277.313L116.935 276.579L106.529 271.808L101.146 269.24L95.4051 265.203L88.9462 258.598L81.052 246.122L74.5931 226.673L71.7225 206.858V189.244L73.5166 172.731Z" fill="#26D64C"/>
</svg>
