<svg id="Camada_1" data-name="Camada 1" xmlns="http://www.w3.org/2000/svg" viewBox="0 0 150 50"><defs><style>.cls-1{fill:#0075ff;}</style></defs><path class="cls-1" d="M20.56,29.15h0a1.25,1.25,0,0,1-1.22,1H5.94a.65.65,0,0,1-.65-.65.59.59,0,0,1,.1-.34l.43-.68a.41.41,0,0,1,.36-.19l14.3.79a.08.08,0,0,1,.08.09ZM6.27,27.59l1.49-2a2.21,2.21,0,0,1,2.05-.88l10.87,1.39c.39.07.68.31.59.63l-.57,1.7a.33.33,0,0,1-.32.22L6.47,28a.25.25,0,0,1-.25-.26A.25.25,0,0,1,6.27,27.59Zm-.56.48a1.5,1.5,0,0,1-2.09.4,1.78,1.78,0,0,1-.35-.32,2.7,2.7,0,0,0-1.07-.88A2.92,2.92,0,0,0,1.5,27a1.5,1.5,0,0,1-1.12-1.8A1.43,1.43,0,0,1,.46,25L7.67,6.89A1.45,1.45,0,0,1,8.93,6h0a1.48,1.48,0,0,1,1.59,1.36,1.93,1.93,0,0,1,0,.34L8.1,24.38a1.48,1.48,0,0,1-.25.64ZM7.81,6.12A3.89,3.89,0,0,1,9.4,5.94a2,2,0,0,1,1,.43.41.41,0,0,0,.55-.2l0,0L12.69.75A.61.61,0,0,0,12.23,0l-.14,0H1.85a.63.63,0,0,0-.6.47l-.13.6A1,1,0,0,0,1.89,2.3a1,1,0,0,0,.25,0L8.6,2.09A.41.41,0,0,1,9,2.5a.77.77,0,0,1,0,.15L7.82,6.15M2.61,28.63a1.31,1.31,0,1,1-1.3-1.31,1.31,1.31,0,0,1,1.3,1.31Z"/><path class="cls-1" d="M34.09,9.56,29.44,29.65a.6.6,0,0,1-.6.47H23.22a.61.61,0,0,1-.61-.61.51.51,0,0,1,0-.13L27.28,9.29a.6.6,0,0,1,.6-.47H33.5a.6.6,0,0,1,.61.6A.78.78,0,0,1,34.09,9.56Zm2-8.14-.89,3.81a.59.59,0,0,1-.57.46H28.74a.6.6,0,0,1-.6-.61.59.59,0,0,1,0-.13L29.06,1a.61.61,0,0,1,.59-.47h5.86s.6.43.6.76a.42.42,0,0,0,0,.09Z"/><path class="cls-1" d="M73.75,13.48a8.9,8.9,0,0,1-.09,1.26c-.06.47-.15.94-.25,1.41L70.34,29.37a.61.61,0,0,1-.59.47h-5.5s-.68-.27-.59-.65L66,19.33q.24-1.09.45-2.1a8.86,8.86,0,0,0,.2-1.62A2,2,0,0,0,66,14a3.37,3.37,0,0,0-2.14-.51,4.93,4.93,0,0,0-1.66.35,17.94,17.94,0,0,0-2,.92.64.64,0,0,0-.32.41L56.6,29.48c-.09.28-.59.66-.59.66H50.35s-.64-.53-.59-.92l2.3-9.86c.14-.62.28-1.28.42-2a9.08,9.08,0,0,0,.21-1.65A2.15,2.15,0,0,0,52.12,14,3.3,3.3,0,0,0,50,13.51a4.88,4.88,0,0,0-1.77.38,18.6,18.6,0,0,0-1.92.89.64.64,0,0,0-.32.41L42.67,29.5c-.07.28-.59.37-.59.37h-5.4a.6.6,0,0,1-.6-.61.59.59,0,0,1,0-.13L40.7,9.31a.61.61,0,0,1,.59-.47h5.5a.61.61,0,0,1,.61.61.77.77,0,0,1,0,.15l0,.11a.62.62,0,0,0,.11.53.61.61,0,0,0,.79.13A23.58,23.58,0,0,1,50.72,9a8.33,8.33,0,0,1,3.58-.77,6.21,6.21,0,0,1,3.49.93,4.67,4.67,0,0,1,1.72,2,.61.61,0,0,0,.81.29l.09,0a25.65,25.65,0,0,1,3.85-2.28,9.26,9.26,0,0,1,3.83-.92,6,6,0,0,1,4.22,1.37A5,5,0,0,1,73.75,13.48Z"/><path class="cls-1" d="M101.68,15.32a17.35,17.35,0,0,1-1,5.67,15.06,15.06,0,0,1-2.59,4.73A13.16,13.16,0,0,1,94.27,29a10,10,0,0,1-4.84,1.17,11.78,11.78,0,0,1-3.13-.39,10.54,10.54,0,0,1-1.87-.7.6.6,0,0,0-.87.4L81.81,37a.6.6,0,0,1-.59.47H75.64a.61.61,0,0,1-.61-.61.51.51,0,0,1,0-.13L81.46,9a.6.6,0,0,1,.59-.47h5.59a.61.61,0,0,1,.61.61.51.51,0,0,1,0,.13h0a.61.61,0,0,0,.45.73.58.58,0,0,0,.46-.08,18.31,18.31,0,0,1,2.31-1.24,8.81,8.81,0,0,1,3.61-.74,6.23,6.23,0,0,1,4.93,2A8.14,8.14,0,0,1,101.68,15.32Zm-9,7.61A9.22,9.22,0,0,0,94,20.14a13.53,13.53,0,0,0,.44-3.47A4,4,0,0,0,93.66,14a3.34,3.34,0,0,0-2.7-.91,5.7,5.7,0,0,0-2,.35,16.77,16.77,0,0,0-1.79.79.6.6,0,0,0-.31.4l-2.28,9.89a.61.61,0,0,0,.4.71,6.77,6.77,0,0,0,.89.21,9.19,9.19,0,0,0,1.65.14,6.08,6.08,0,0,0,3-.74,5.92,5.92,0,0,0,2.13-1.94Z"/><path class="cls-1" d="M116.75,29.32a.61.61,0,0,0-.92-.65l-.28.19a12.55,12.55,0,0,1-1.68.93,14.06,14.06,0,0,1-2,.66,11.56,11.56,0,0,1-2.56.23A6.28,6.28,0,0,1,105,29.19a5,5,0,0,1-1.68-3.87,7.4,7.4,0,0,1,1.19-4.26A8.06,8.06,0,0,1,108,18.27a19.71,19.71,0,0,1,5.22-1.42c2-.29,4.2-.5,6.56-.64a2.3,2.3,0,0,1,.08-.37,2.76,2.76,0,0,0,.06-.57,1.89,1.89,0,0,0-1.25-1.88,9.8,9.8,0,0,0-3.72-.54,13.66,13.66,0,0,0-3.7.57c-1.31.37-2.3.67-3,.92a.4.4,0,0,1-.15,0h0a.45.45,0,0,1-.45-.45.28.28,0,0,1,0-.09l.82-4.11a.59.59,0,0,1,.46-.47c.79-.18,1.89-.37,3.3-.59a33.07,33.07,0,0,1,5-.38q5,0,7.32,1.3a4.33,4.33,0,0,1,2.33,4.05,8.53,8.53,0,0,1-.07,1,9.38,9.38,0,0,1-.18,1.06l-3.21,14a.6.6,0,0,1-.59.47h-5.58a.58.58,0,0,1-.57-.57.47.47,0,0,1,0-.17Zm2-8.6a.6.6,0,0,0-.65-.74c-.9.08-1.76.18-2.58.28a13.53,13.53,0,0,0-2.72.61A3.85,3.85,0,0,0,111,22a3.15,3.15,0,0,0-.61,2,1.61,1.61,0,0,0,.81,1.54,4.92,4.92,0,0,0,2.35.45,6,6,0,0,0,2.16-.46,10.8,10.8,0,0,0,2-1,.59.59,0,0,0,.25-.37Z"/><path class="cls-1" d="M132.47,27.73a.34.34,0,0,0,.4.28.33.33,0,0,0,.22-.14l4.44-6.45A1.85,1.85,0,0,0,138,20c-.46-2.77-1.87-11.54-1.87-11.54a.61.61,0,0,0-.6-.53h-5.3a1,1,0,0,0-.95,1,.76.76,0,0,0,0,.15Z"/><path class="cls-1" d="M149.3,8h-2a.71.71,0,0,0-.62.36L130.74,32.94a.37.37,0,0,0,.11.51l.09,0a1.89,1.89,0,0,1,.85.42,7.74,7.74,0,0,1,.91,1.16c.42.13.57,0,.82-.39L149.89,9.06a.71.71,0,0,0-.22-1A.63.63,0,0,0,149.3,8Z"/><path class="cls-1" d="M131.46,34.22a3.88,3.88,0,0,0-1.14-.45.22.22,0,0,0-.19,0A37.87,37.87,0,0,0,127,36a.29.29,0,0,0-.06.4.27.27,0,0,0,.2.11,10.8,10.8,0,0,1,1.78.36,13.82,13.82,0,0,1,1.88,1.4.31.31,0,0,0,.36-.22l1.14-2.22a.6.6,0,0,0,0-.54A2.59,2.59,0,0,0,131.46,34.22Z"/><path class="cls-1" d="M128.77,38.44a14.68,14.68,0,0,0-1.9-.85,1.31,1.31,0,0,0-1.38.32c-1.17,1-4,4.5-5.7,5.23-2,.88-6.57-1.26-7.35-1.4a.32.32,0,0,0-.28.07,1.83,1.83,0,0,0-.62,1.23,4.4,4.4,0,0,0,.24,1.25c.46,1.32,5.08,3,0,.88.08.47.14.71.16.78a4.84,4.84,0,0,0,4.69,3.71s1.93.05,3.92.07h0a26.11,26.11,0,0,0,4.21-.17A5.17,5.17,0,0,0,127.51,47l2.4-7.12S130.07,39.32,128.77,38.44Z"/><path class="cls-1" d="M110.46,39.94c-.17.18-2.43-2.78-4.55-1.62-.72.4-.85-.63-1.69-1.42-1.78-1.7-4.42-2.46-5.51.79-.49,1.46-.14,3.52-.3,4s-1.1-2.53-1-3.88c.42-6,6.13-3.46,7.63-2,.82.79.65,1.2,1.11,1.09C108.14,36.41,111,39.34,110.46,39.94Z"/><path class="cls-1" d="M128.34,50h0a17.77,17.77,0,0,0,2.14-.93c1-.55,1-1.23,1.49-1.28a1,1,0,0,1,.25,0c.35.06.51.4,1.14.36a3.29,3.29,0,0,0,2.48-2.23,3.07,3.07,0,0,0-.63-2.44,4.9,4.9,0,0,1,1.84,2.4,2.89,2.89,0,0,1-1.26,2.56,3,3,0,0,1-2.69.47,1.38,1.38,0,0,0-.85-.13,3.4,3.4,0,0,0-.77.53,2.9,2.9,0,0,1-1.29.54A8.26,8.26,0,0,1,128.34,50Z"/><path class="cls-1" d="M137.25,44.18s.64-.26.19-1.42c-.34-.89-.9-.92-.88-1.37a.64.64,0,0,1,0-.2c.09-.28.39-.38.43-.9A2.73,2.73,0,0,0,135.47,38a2.53,2.53,0,0,0-2.07.24A4.16,4.16,0,0,1,135.57,37a2.37,2.37,0,0,1,2,1.32,2.53,2.53,0,0,1,.08,2.27,1.12,1.12,0,0,0-.2.69.75.75,0,0,0,.26.53,2.14,2.14,0,0,1,.59,1.28C138.22,43.5,137.25,44.18,137.25,44.18Z"/><path class="cls-1" d="M101.81,49.09c-.33,0-3.93,1.14-5.5-1.76-.53-1-1.2,0-2.47.24-2.71.48-8.17-2.42-5.6-6a5.8,5.8,0,0,1,4.55-2.32c-.85-.2-5.33-.25-6.51,2.65-2.59,6.38,6.2,8,8.28,7.43,1.23-.37.84-.78,1.25-.28C97.6,51.12,102.63,49.17,101.81,49.09Z"/></svg>