<svg width="307" height="291" viewBox="0 0 307 291" fill="none" xmlns="http://www.w3.org/2000/svg">
<g clip-path="url(#clip0_3_2)">
<path d="M306.855 290.564C306.855 290.668 241.043 290.744 159.887 290.744C78.7302 290.744 12.9043 290.668 12.9043 290.564C12.9043 290.46 78.6955 290.383 159.887 290.383C241.078 290.383 306.855 290.467 306.855 290.564Z" fill="#263238"/>
<path d="M274.848 290.057L176.3 290.002C170.608 289.998 165.15 287.734 161.126 283.708C157.102 279.681 154.842 274.222 154.842 268.529L154.89 21.4654C154.903 15.768 157.176 10.3083 161.209 6.28412C165.242 2.25996 170.707 -1.45251e-05 176.404 0L274.952 0.0624601C280.645 0.0661398 286.103 2.33002 290.127 6.35647C294.151 10.3829 296.411 15.8424 296.411 21.5348L296.362 268.599C296.362 271.421 295.805 274.216 294.724 276.823C293.642 279.431 292.056 281.799 290.058 283.792C288.059 285.785 285.687 287.365 283.077 288.44C280.467 289.515 277.671 290.065 274.848 290.057Z" fill="#001E88"/>
<path d="M274.814 8.77222H255.709C254.449 8.80135 253.252 9.32938 252.382 10.2403C251.511 11.1512 251.038 12.3705 251.066 13.6302V17.1002C251.094 18.3599 250.62 19.5792 249.75 20.4901C248.879 21.4011 247.683 21.9291 246.423 21.9582H209.176C207.917 21.9273 206.723 21.3985 205.854 20.4877C204.984 19.577 204.512 18.3588 204.54 17.1002V13.6302C204.568 12.3705 204.095 11.1512 203.224 10.2403C202.353 9.32938 201.157 8.80135 199.897 8.77222H176.454C172.474 8.76852 168.656 10.343 165.835 13.1505C163.015 15.9579 161.423 19.7692 161.408 23.7487L161.359 264.928C161.367 268.91 162.953 272.727 165.772 275.541C168.59 278.356 172.409 279.937 176.391 279.939L274.752 279.994C276.727 279.995 278.683 279.607 280.508 278.852C282.333 278.097 283.991 276.99 285.388 275.594C286.785 274.199 287.894 272.541 288.651 270.717C289.407 268.893 289.797 266.937 289.798 264.962L289.84 23.7834C289.834 19.8015 288.249 15.9844 285.432 13.1701C282.615 10.3557 278.796 8.77406 274.814 8.77222Z" fill="#F8FDFF"/>
<path d="M289.831 59.462V23.5336C289.76 19.5964 288.147 15.8441 285.339 13.0837C282.53 10.3233 278.751 8.77522 274.813 8.77222H255.707C255.083 8.78574 254.468 8.92218 253.897 9.17375C253.325 9.42532 252.809 9.78708 252.378 10.2383C251.947 10.6895 251.609 11.2214 251.383 11.8034C251.158 12.3855 251.049 13.0062 251.064 13.6302V17.1002C251.092 18.3599 250.619 19.5792 249.748 20.4901C248.878 21.4011 247.681 21.9291 246.421 21.9582H209.174C207.916 21.9273 206.721 21.3985 205.852 20.4877C204.983 19.577 204.51 18.3588 204.538 17.1002V13.6302C204.566 12.3705 204.093 11.1512 203.222 10.2403C202.352 9.32938 201.155 8.80135 199.895 8.77222H176.452C172.473 8.76852 168.654 10.343 165.834 13.1505C163.013 15.9579 161.421 19.7692 161.406 23.7487V59.573H289.831V59.462Z" fill="#EBEBEB"/>
<path d="M187.598 108.195C196.195 108.195 203.164 101.241 203.164 92.6628C203.164 84.0849 196.195 77.1311 187.598 77.1311C179.001 77.1311 172.031 84.0849 172.031 92.6628C172.031 101.241 179.001 108.195 187.598 108.195Z" fill="#E0E0E0"/>
<path d="M180.326 96.5494L184.407 96.2024L194.359 97.8819L195.532 105.37L195.365 106.245C193.123 107.51 190.604 108.203 188.031 108.262C185.457 108.321 182.908 107.745 180.611 106.585L180.326 96.5494Z" fill="#28BCFC"/>
<path d="M192.229 97.7638C193.215 97.6197 194.223 97.756 195.136 98.1573C196.049 98.5586 196.831 99.2087 197.392 100.033C198.066 100.975 198.685 101.955 199.245 102.969C197.621 104.732 196.302 106.071 194.054 106.855L192.229 97.7638Z" fill="#28BCFC"/>
<path d="M180.326 96.5492C180.326 96.5492 177.633 96.8823 176.592 99.1795C175.551 101.477 175.309 102.191 175.309 102.191C176.697 103.871 178.473 105.856 180.645 106.598C180.645 106.598 181.138 100.81 181.201 99.1795C181.277 97.4167 181.346 96.5006 180.326 96.5492Z" fill="#28BCFC"/>
<path d="M182.782 81.8364C183.46 80.9675 184.325 80.2621 185.312 79.772C186.299 79.2819 187.384 79.0198 188.486 79.0049C189.434 79.0047 190.374 79.1739 191.262 79.5046C192.197 79.726 193.024 80.2719 193.594 81.0452C194.302 81.9545 194.765 83.0295 194.941 84.1682C195.103 85.3336 195.159 86.5113 195.107 87.6868C195.05 88.8707 194.668 90.016 194.004 90.9972L191.012 91.5108C189.363 91.6424 187.704 91.5537 186.078 91.247C184.434 90.9315 182.982 89.9784 182.039 88.596C180.838 86.6458 181.338 83.613 182.782 81.8364Z" fill="#263238"/>
<path d="M179.895 90.4767C179.926 90.1383 180.033 89.8112 180.208 89.5203C180.384 89.2293 180.623 88.982 180.908 88.7972C181.2 88.6218 181.54 88.5434 181.879 88.5734C182.219 88.6033 182.54 88.74 182.796 88.9638L183.268 89.519C183.632 89.6872 183.935 89.9648 184.134 90.3131C184.333 90.6614 184.418 91.063 184.378 91.4622C184.327 91.8617 184.16 92.2376 183.899 92.5443C183.638 92.851 183.293 93.0754 182.907 93.1902C182.521 93.2997 182.114 93.3081 181.723 93.2145C181.333 93.1209 180.974 92.9285 180.679 92.6559C180.391 92.3769 180.17 92.0353 180.034 91.6575C179.898 91.2797 179.85 90.8757 179.895 90.4767Z" fill="#263238"/>
<path d="M180.485 92.517C180.373 92.3413 180.317 92.1355 180.326 91.9271C180.426 91.422 180.666 90.9553 181.02 90.5808C181.355 90.1874 181.762 89.8623 182.22 89.6231C182.567 89.4357 182.81 89.3663 182.803 89.3455C182.582 89.3617 182.366 89.4256 182.172 89.5328C181.683 89.7504 181.25 90.0781 180.909 90.4906C180.717 90.6997 180.554 90.933 180.423 91.1846C180.309 91.3994 180.243 91.636 180.229 91.8786C180.226 92.0454 180.271 92.2094 180.361 92.3505C180.423 92.4893 180.485 92.5587 180.485 92.517Z" fill="#28BCFC"/>
<path d="M190.985 97.2294V94.4534C190.985 94.4534 193.421 94.1827 194.101 91.0597C194.421 88.994 194.546 86.9029 194.476 84.8137C194.476 82.9191 192.845 80.3374 190.499 80.3305L189.458 80.2056L185.468 81.7879C185.191 81.8032 184.929 81.9211 184.734 82.1186C184.539 82.3162 184.425 82.5793 184.413 82.8567L184.295 96.1884L186.12 98.7492C186.454 99.2015 186.922 99.5379 187.457 99.7111C187.992 99.8843 188.567 99.8856 189.103 99.7149C189.639 99.5442 190.108 99.21 190.444 98.7593C190.781 98.3086 190.967 97.7639 190.978 97.2016L190.985 97.2294Z" fill="#FFBE9D"/>
<path d="M189.396 90.3381C189.417 90.1775 189.499 90.0311 189.625 89.9286C189.739 89.8329 189.881 89.7765 190.029 89.7678C190.178 89.7591 190.326 89.7984 190.45 89.88C190.578 89.9794 190.677 90.1106 190.738 90.2604C190.799 90.4102 190.819 90.5734 190.797 90.7336C190.728 90.8302 190.639 90.9109 190.536 90.9707C190.433 91.0305 190.319 91.068 190.201 91.0806H190.09C189.997 91.083 189.906 91.067 189.82 91.0337C189.734 91.0003 189.656 90.9502 189.59 90.8863C189.52 90.8144 189.466 90.7282 189.432 90.6335C189.399 90.5389 189.386 90.4381 189.396 90.3381Z" fill="#EB996E"/>
<path d="M193.025 87.0069C193.021 87.1124 192.976 87.2123 192.9 87.285C192.823 87.3577 192.721 87.3974 192.615 87.3955C192.563 87.3964 192.512 87.3871 192.464 87.3681C192.415 87.349 192.371 87.3207 192.334 87.2846C192.296 87.2485 192.266 87.2054 192.246 87.1577C192.225 87.1101 192.214 87.0588 192.213 87.0069C192.218 86.9007 192.265 86.8008 192.342 86.7283C192.42 86.6558 192.523 86.6163 192.629 86.6182C192.681 86.6173 192.732 86.6267 192.78 86.6458C192.828 86.6649 192.872 86.6934 192.909 86.7296C192.945 86.7658 192.975 86.8089 192.995 86.8565C193.015 86.9041 193.025 86.9552 193.025 87.0069Z" fill="#263238"/>
<path d="M193.691 86.0074C193.636 86.056 193.338 85.8131 192.907 85.7923C192.477 85.7715 192.137 85.9727 192.095 85.9172C192.054 85.8617 192.13 85.7992 192.276 85.702C192.472 85.5848 192.7 85.5292 192.928 85.5424C193.154 85.5514 193.371 85.6343 193.546 85.7784C193.671 85.8894 193.712 85.9866 193.691 86.0074Z" fill="#263238"/>
<path d="M190.951 89.2971C191.178 89.2437 191.411 89.2157 191.645 89.2138C191.756 89.2138 191.867 89.2138 191.887 89.1167C191.903 89.0026 191.884 88.8864 191.832 88.7835L191.547 87.923C191.282 87.1886 191.076 86.4345 190.93 85.6675C191.254 86.3783 191.521 87.114 191.728 87.8675C191.825 88.1659 191.908 88.4574 191.998 88.735C192.057 88.8731 192.069 89.0265 192.033 89.1722C191.991 89.2466 191.921 89.3014 191.839 89.3249C191.777 89.3313 191.714 89.3313 191.651 89.3249C191.418 89.3474 191.182 89.338 190.951 89.2971Z" fill="#263238"/>
<path d="M190.971 94.4603C189.481 94.3933 188.039 93.9127 186.807 93.0723C186.807 93.0723 187.813 95.3139 190.971 95.1959V94.4603Z" fill="#EB996E"/>
<path d="M189.652 89.533C189.729 89.533 189.701 90.0049 190.089 90.3589C190.478 90.7128 190.978 90.692 190.978 90.7545C190.978 90.8169 190.86 90.8447 190.652 90.8377C190.374 90.8252 190.109 90.7174 189.902 90.5324C189.706 90.3521 189.587 90.1038 189.569 89.8384C189.562 89.6371 189.624 89.5261 189.652 89.533Z" fill="#263238"/>
<path d="M193.601 84.3695C193.525 84.4736 193.192 84.3695 192.803 84.3695C192.414 84.3695 192.109 84.4667 192.005 84.3695C191.901 84.2723 192.005 84.2168 192.158 84.1197C192.349 83.9993 192.57 83.9345 192.796 83.9323C193.023 83.9263 193.248 83.9866 193.441 84.1058C193.587 84.2307 193.636 84.3209 193.601 84.3695Z" fill="#263238"/>
<path d="M188.25 87.0067C188.248 87.113 188.288 87.2158 188.36 87.2935C188.433 87.3713 188.533 87.4177 188.639 87.4231C188.69 87.4278 188.742 87.4222 188.792 87.4065C188.841 87.3909 188.887 87.3655 188.926 87.3319C188.966 87.2982 188.998 87.257 189.021 87.2107C189.045 87.1644 189.059 87.1139 189.062 87.0622C189.062 86.9571 189.022 86.856 188.95 86.7798C188.877 86.7036 188.778 86.6581 188.673 86.6528C188.622 86.647 188.57 86.6517 188.521 86.6666C188.472 86.6815 188.426 86.7062 188.386 86.7392C188.347 86.7723 188.314 86.8131 188.291 86.859C188.267 86.905 188.253 86.9552 188.25 87.0067Z" fill="#263238"/>
<path d="M187.724 85.8548C187.773 85.9103 188.085 85.6882 188.522 85.6952C188.96 85.7021 189.272 85.9242 189.32 85.8756C189.369 85.827 189.32 85.7576 189.154 85.6535C188.969 85.5178 188.745 85.4448 188.515 85.4453C188.29 85.4383 188.069 85.504 187.884 85.6327C187.745 85.7368 187.697 85.827 187.724 85.8548Z" fill="#263238"/>
<path d="M187.473 84.9247C187.557 85.0288 187.897 84.9247 188.299 84.9247C188.702 84.9247 189.042 85.008 189.125 84.9247C189.208 84.8414 189.125 84.772 188.958 84.6748C188.756 84.5565 188.526 84.4941 188.292 84.4941C188.058 84.4941 187.828 84.5565 187.626 84.6748C187.48 84.772 187.432 84.8692 187.473 84.9247Z" fill="#263238"/>
<path d="M184.941 88.1796C184.941 87.9436 184.719 87.3746 184.483 87.326C183.873 87.1941 182.755 87.1872 182.658 88.7556C182.526 90.9001 184.74 90.5878 184.74 90.5253C184.74 90.4629 184.9 88.9846 184.941 88.1796Z" fill="#FFBE9D"/>
<path d="M184.17 89.7064C184.17 89.7064 184.135 89.7064 184.066 89.7549C184.022 89.7737 183.975 89.7833 183.927 89.7833C183.879 89.7833 183.832 89.7737 183.788 89.7549C183.654 89.6584 183.547 89.5278 183.48 89.3765C183.413 89.2253 183.388 89.0588 183.406 88.8944C183.414 88.7107 183.462 88.5309 183.545 88.3669C183.57 88.3015 183.61 88.2429 183.662 88.1958C183.714 88.1488 183.776 88.1147 183.844 88.0963C183.888 88.0868 183.934 88.0935 183.973 88.1152C184.013 88.1368 184.043 88.172 184.059 88.2143C184.064 88.2488 184.064 88.2838 184.059 88.3184C184.059 88.3184 184.107 88.3184 184.093 88.2004C184.085 88.1467 184.058 88.0977 184.017 88.0616C183.991 88.0359 183.959 88.0164 183.924 88.0044C183.889 87.9924 183.852 87.9882 183.816 87.9922C183.727 88.0036 183.643 88.0377 183.571 88.0912C183.499 88.1447 183.443 88.2157 183.406 88.2975C183.303 88.4776 183.246 88.6802 183.24 88.8874C183.216 89.0783 183.25 89.2718 183.336 89.4435C183.423 89.6152 183.558 89.7574 183.726 89.8521C183.783 89.8713 183.843 89.8781 183.903 89.8721C183.963 89.8662 184.02 89.8475 184.073 89.8174C184.17 89.7827 184.17 89.7133 184.17 89.7064Z" fill="#EB996E"/>
<path d="M184.4 87.333L184.941 87.8952C187.3 85.6466 191.916 80.0044 191.659 80.3375C190.582 79.9401 189.423 79.8161 188.286 79.9766C186.53 80.2751 183.206 81.1495 183.254 83.2107C183.358 84.6474 183.747 86.0489 184.4 87.333Z" fill="#263238"/>
<path d="M181.275 86.8611C181.275 86.8611 181.275 86.8125 181.275 86.7362C181.316 86.6196 181.365 86.506 181.421 86.3961C181.644 85.9983 181.952 85.6547 182.323 85.3898C182.873 84.9977 183.486 84.702 184.135 84.5154C184.829 84.2863 185.661 84.1059 186.46 83.7658C187.825 83.1891 189.058 82.3389 190.082 81.2674C190.391 80.9417 190.68 80.5988 190.95 80.2403L191.165 79.9419C191.188 79.906 191.216 79.8734 191.248 79.8447L191.186 79.9558C191.137 80.0252 191.075 80.1362 190.984 80.2681C190.726 80.6379 190.443 80.9903 190.138 81.3229C189.682 81.8137 189.18 82.2599 188.639 82.6554C187.977 83.1418 187.259 83.5472 186.501 83.863C185.736 84.1562 184.955 84.4065 184.162 84.6125C183.523 84.7909 182.918 85.0747 182.372 85.4522C182.004 85.7057 181.694 86.0345 181.463 86.4169C181.389 86.5601 181.327 86.7086 181.275 86.8611Z" fill="#28BCFC"/>
<path d="M181.901 87.1941C181.896 87.035 181.924 86.8765 181.984 86.7291C182.145 86.3181 182.425 85.9649 182.789 85.7159C183.336 85.3668 183.947 85.1309 184.587 85.0219C185.353 84.8756 186.101 84.6428 186.815 84.3279C187.524 84.0051 188.191 83.5948 188.799 83.1064C189.304 82.7054 189.769 82.2568 190.187 81.767C190.463 81.4377 190.716 81.0899 190.944 80.726C191.02 80.608 191.083 80.5039 191.124 80.4276C191.146 80.3902 191.171 80.3553 191.201 80.3235C191.186 80.3622 191.167 80.3994 191.145 80.4345L190.979 80.7468C190.765 81.1241 190.519 81.4818 190.243 81.8156C189.833 82.328 189.367 82.7935 188.855 83.2036C188.241 83.7021 187.567 84.1217 186.849 84.4528C186.127 84.7705 185.37 85.0034 184.594 85.1468C183.965 85.2646 183.365 85.5 182.824 85.8408C182.464 86.0753 182.182 86.4109 182.012 86.8055C181.964 86.9315 181.927 87.0615 181.901 87.1941Z" fill="#28BCFC"/>
<path d="M180.645 106.585C180.543 105.217 180.543 103.844 180.645 102.476C180.737 103.844 180.737 105.217 180.645 106.585Z" fill="#263238"/>
<path d="M195.371 106.293C195.352 106.062 195.352 105.83 195.371 105.599C195.412 105.02 195.391 104.438 195.308 103.864C195.2 103.291 195.033 102.73 194.808 102.192C194.703 101.969 194.62 101.736 194.559 101.498C194.694 101.7 194.808 101.916 194.899 102.143C195.156 102.678 195.34 103.245 195.447 103.829C195.53 104.416 195.53 105.012 195.447 105.599C195.451 105.833 195.425 106.066 195.371 106.293Z" fill="#263238"/>
<path d="M270.282 112.386H217.226C215.962 112.385 214.75 111.882 213.856 110.988C212.963 110.094 212.46 108.882 212.458 107.619V85.3412L206.607 80.15H270.282C270.912 80.1454 271.536 80.2656 272.119 80.5036C272.702 80.7416 273.232 81.0927 273.678 81.5366C274.125 81.9805 274.479 82.5085 274.72 83.09C274.962 83.6715 275.085 84.2951 275.084 84.9248V107.619C275.084 108.247 274.958 108.87 274.716 109.45C274.474 110.03 274.12 110.557 273.674 111C273.227 111.443 272.698 111.794 272.116 112.032C271.534 112.269 270.911 112.39 270.282 112.386Z" fill="#EBEBEB"/>
<path d="M266.645 115.995C264.763 116.174 262.872 116.234 260.982 116.176C259.095 116.234 257.206 116.174 255.326 115.995C257.206 115.816 259.095 115.756 260.982 115.815C262.872 115.756 264.763 115.816 266.645 115.995Z" fill="#E0E0E0"/>
<path d="M268.984 116.439C268.96 116.439 268.937 116.434 268.916 116.424C268.894 116.415 268.875 116.401 268.859 116.384L267.762 115.239C267.731 115.206 267.713 115.163 267.713 115.117C267.713 115.072 267.731 115.028 267.762 114.996C267.778 114.979 267.797 114.966 267.818 114.957C267.839 114.948 267.861 114.943 267.884 114.943C267.907 114.943 267.929 114.948 267.95 114.957C267.971 114.966 267.99 114.979 268.005 114.996L268.977 116.009L271.108 113.844C271.123 113.827 271.142 113.814 271.163 113.805C271.184 113.796 271.206 113.791 271.229 113.791C271.252 113.791 271.274 113.796 271.295 113.805C271.316 113.814 271.335 113.827 271.35 113.844C271.382 113.876 271.4 113.92 271.4 113.965C271.4 114.011 271.382 114.054 271.35 114.087L269.095 116.384C269.065 116.414 269.026 116.433 268.984 116.439Z" fill="#001E88"/>
<path d="M270.545 116.405H270.343C270.297 116.405 270.253 116.386 270.221 116.354C270.188 116.321 270.17 116.277 270.17 116.231C270.175 116.186 270.195 116.143 270.228 116.111C270.261 116.08 270.305 116.061 270.35 116.058H270.475L272.675 113.816C272.691 113.799 272.711 113.786 272.732 113.777C272.754 113.768 272.777 113.763 272.8 113.763C272.823 113.763 272.847 113.768 272.868 113.777C272.89 113.786 272.909 113.799 272.925 113.816C272.957 113.848 272.975 113.892 272.975 113.937C272.975 113.983 272.957 114.026 272.925 114.059L270.67 116.349C270.654 116.367 270.635 116.381 270.613 116.391C270.592 116.401 270.568 116.405 270.545 116.405Z" fill="#001E88"/>
<path d="M266.645 203.21C264.763 203.389 262.872 203.449 260.982 203.391C259.095 203.449 257.206 203.389 255.326 203.21C257.206 203.032 259.095 202.971 260.982 203.03C262.872 202.971 264.763 203.031 266.645 203.21Z" fill="#E0E0E0"/>
<path d="M268.983 203.654C268.956 203.657 268.929 203.654 268.904 203.644C268.878 203.634 268.856 203.619 268.837 203.599L267.741 202.454C267.722 202.438 267.706 202.419 267.694 202.397C267.683 202.374 267.677 202.35 267.676 202.325C267.675 202.301 267.679 202.276 267.689 202.253C267.698 202.23 267.712 202.209 267.73 202.192C267.748 202.175 267.77 202.162 267.793 202.154C267.817 202.146 267.842 202.143 267.866 202.146C267.891 202.148 267.915 202.156 267.936 202.168C267.958 202.181 267.976 202.198 267.991 202.218L268.962 203.231L271.093 201.066C271.108 201.049 271.127 201.036 271.148 201.027C271.169 201.018 271.192 201.013 271.214 201.013C271.237 201.013 271.26 201.018 271.281 201.027C271.301 201.036 271.32 201.049 271.336 201.066C271.368 201.098 271.385 201.142 271.385 201.187C271.385 201.233 271.368 201.276 271.336 201.309L269.108 203.599C269.074 203.631 269.03 203.651 268.983 203.654Z" fill="#001E88"/>
<path d="M270.545 203.599H270.343C270.297 203.597 270.253 203.577 270.22 203.544C270.188 203.51 270.17 203.465 270.17 203.418C270.17 203.395 270.175 203.372 270.184 203.351C270.193 203.33 270.207 203.311 270.224 203.295C270.24 203.28 270.261 203.268 270.282 203.26C270.304 203.253 270.327 203.25 270.35 203.252H270.475L272.675 201.01C272.691 200.993 272.711 200.98 272.732 200.971C272.754 200.962 272.777 200.957 272.8 200.957C272.823 200.957 272.847 200.962 272.868 200.971C272.89 200.98 272.909 200.993 272.925 201.01C272.957 201.043 272.975 201.086 272.975 201.132C272.975 201.177 272.957 201.221 272.925 201.253L270.67 203.543C270.654 203.561 270.635 203.575 270.613 203.585C270.592 203.595 270.568 203.599 270.545 203.599Z" fill="#001E88"/>
<path d="M269.601 86.5278C269.601 86.625 258.018 86.7083 243.729 86.7083C229.439 86.7083 217.863 86.625 217.863 86.5278C217.863 86.4307 229.439 86.3474 243.729 86.3474C258.018 86.3474 269.601 86.4237 269.601 86.5278Z" fill="#F8FDFF"/>
<path d="M269.601 90.324C269.601 90.4281 258.018 90.5044 243.729 90.5044C229.439 90.5044 217.863 90.4281 217.863 90.324C217.863 90.2199 229.439 90.1436 243.729 90.1436C258.018 90.1436 269.601 90.2268 269.601 90.324Z" fill="#F8FDFF"/>
<path d="M269.601 94.1272C269.601 94.2244 258.018 94.3077 243.729 94.3077C229.439 94.3077 217.863 94.2244 217.863 94.1272C217.863 94.0301 229.439 93.9468 243.729 93.9468C258.018 93.9468 269.601 94.0301 269.601 94.1272Z" fill="#F8FDFF"/>
<path d="M187.598 205.056C196.195 205.056 203.164 198.102 203.164 189.524C203.164 180.946 196.195 173.993 187.598 173.993C179.001 173.993 172.031 180.946 172.031 189.524C172.031 198.102 179.001 205.056 187.598 205.056Z" fill="#E0E0E0"/>
<path d="M180.326 193.411L184.407 193.064L194.359 194.743L195.532 202.211L195.365 203.078C193.124 204.345 190.604 205.039 188.031 205.099C185.457 205.158 182.908 204.581 180.611 203.418L180.326 193.39" fill="#28BCFC"/>
<path d="M192.229 194.618C193.215 194.476 194.222 194.613 195.135 195.014C196.048 195.415 196.83 196.064 197.392 196.888C198.067 197.831 198.686 198.814 199.245 199.83C197.621 201.593 196.302 202.933 194.054 203.71L192.229 194.618Z" fill="#28BCFC"/>
<path d="M180.326 193.411C180.326 193.411 177.633 193.737 176.592 196.034C175.551 198.331 175.309 199.053 175.309 199.053C176.697 200.726 178.473 202.71 180.645 203.453C180.645 203.453 181.138 197.672 181.201 196.034C181.277 194.244 181.346 193.355 180.326 193.411Z" fill="#28BCFC"/>
<path d="M182.782 178.698C183.459 177.828 184.323 177.122 185.311 176.632C186.299 176.141 187.384 175.88 188.486 175.867C189.434 175.861 190.375 176.028 191.262 176.359C192.195 176.586 193.02 177.131 193.594 177.9C194.3 178.81 194.764 179.885 194.941 181.023C195.103 182.191 195.159 183.371 195.107 184.549C195.051 185.73 194.669 186.874 194.004 187.852L191.012 188.372C189.363 188.501 187.704 188.412 186.078 188.109C184.434 187.793 182.982 186.84 182.039 185.458C180.838 183.473 181.338 180.468 182.782 178.698Z" fill="#263238"/>
<path d="M179.895 187.366C179.925 187.027 180.031 186.7 180.207 186.409C180.383 186.118 180.623 185.871 180.908 185.687C181.199 185.509 181.539 185.429 181.878 185.458C182.218 185.487 182.539 185.623 182.796 185.846L183.268 186.408C183.633 186.576 183.936 186.853 184.135 187.202C184.334 187.55 184.419 187.952 184.378 188.352C184.322 188.749 184.153 189.123 183.893 189.429C183.633 189.735 183.291 189.96 182.907 190.08C182.521 190.188 182.113 190.195 181.723 190.1C181.333 190.005 180.973 189.812 180.679 189.538C180.391 189.261 180.17 188.92 180.034 188.544C179.898 188.167 179.851 187.764 179.895 187.366Z" fill="#263238"/>
<path d="M180.485 189.379C180.374 189.2 180.319 188.992 180.326 188.782C180.426 188.279 180.666 187.814 181.02 187.442C181.353 187.047 181.761 186.722 182.22 186.485C182.567 186.297 182.81 186.228 182.803 186.2C182.583 186.221 182.368 186.284 182.172 186.388C181.685 186.609 181.254 186.937 180.909 187.345C180.716 187.569 180.553 187.816 180.423 188.081C180.308 188.295 180.242 188.532 180.229 188.775C180.226 188.942 180.272 189.105 180.36 189.247C180.423 189.351 180.485 189.386 180.485 189.379Z" fill="#28BCFC"/>
<path d="M190.999 194.341V191.565C190.999 191.565 193.435 191.294 194.115 188.178C194.434 186.112 194.56 184.021 194.49 181.932C194.49 180.037 192.859 177.456 190.513 177.449L189.472 177.331L185.481 178.913C185.204 178.927 184.941 179.044 184.746 179.242C184.551 179.44 184.437 179.704 184.427 179.982L184.309 193.307L186.134 195.868C186.468 196.32 186.935 196.656 187.47 196.829C188.005 197.003 188.581 197.004 189.117 196.833C189.653 196.662 190.122 196.328 190.458 195.878C190.794 195.427 190.981 194.882 190.992 194.32L190.999 194.341Z" fill="#FFBE9D"/>
<path d="M189.396 187.2C189.418 187.039 189.5 186.893 189.625 186.79C189.74 186.694 189.881 186.638 190.03 186.629C190.179 186.621 190.327 186.66 190.451 186.742C190.579 186.841 190.678 186.972 190.739 187.122C190.8 187.272 190.82 187.435 190.798 187.595C190.728 187.691 190.639 187.77 190.536 187.829C190.433 187.888 190.319 187.924 190.201 187.935H190.09C189.905 187.931 189.727 187.86 189.591 187.734C189.52 187.666 189.465 187.582 189.431 187.489C189.398 187.397 189.386 187.298 189.396 187.2Z" fill="#EB996E"/>
<path d="M193.025 184.167C193.012 184.265 192.964 184.356 192.889 184.421C192.814 184.487 192.718 184.523 192.619 184.523C192.519 184.523 192.424 184.487 192.349 184.421C192.274 184.356 192.226 184.265 192.213 184.167C192.218 184.061 192.265 183.961 192.342 183.888C192.42 183.816 192.523 183.776 192.629 183.778C192.681 183.777 192.732 183.787 192.78 183.806C192.828 183.825 192.872 183.853 192.909 183.889C192.945 183.926 192.975 183.969 192.995 184.016C193.015 184.064 193.025 184.115 193.025 184.167Z" fill="#263238"/>
<path d="M193.691 183.133C193.636 183.181 193.338 182.938 192.907 182.918C192.477 182.897 192.137 183.091 192.095 183.036C192.054 182.98 192.13 182.918 192.276 182.827C192.47 182.704 192.699 182.648 192.928 182.668C193.154 182.677 193.371 182.76 193.546 182.904C193.671 183.015 193.712 183.112 193.691 183.133Z" fill="#263238"/>
<path d="M190.951 186.422C191.178 186.368 191.411 186.338 191.645 186.332C191.756 186.332 191.867 186.332 191.887 186.235C191.903 186.121 191.883 186.005 191.832 185.902C191.742 185.631 191.645 185.347 191.547 185.041C191.284 184.309 191.077 183.557 190.93 182.793C191.255 183.501 191.522 184.234 191.728 184.986C191.825 185.291 191.908 185.576 191.998 185.853C192.057 185.991 192.069 186.145 192.033 186.29C192.014 186.329 191.987 186.363 191.953 186.389C191.92 186.415 191.881 186.434 191.839 186.443C191.777 186.453 191.714 186.453 191.651 186.443C191.418 186.468 191.182 186.461 190.951 186.422Z" fill="#263238"/>
<path d="M190.971 191.579C189.484 191.521 188.043 191.052 186.807 190.225C186.807 190.225 187.813 192.467 190.971 192.349V191.579Z" fill="#EB996E"/>
<path d="M189.652 186.651C189.729 186.651 189.701 187.123 190.089 187.484C190.478 187.845 190.978 187.817 190.978 187.88C190.978 187.942 190.86 187.963 190.652 187.963C190.373 187.951 190.107 187.84 189.902 187.651C189.704 187.472 189.584 187.223 189.569 186.957C189.562 186.762 189.624 186.651 189.652 186.651Z" fill="#263238"/>
<path d="M193.601 181.495C193.525 181.599 193.192 181.495 192.803 181.495C192.414 181.495 192.109 181.592 192.005 181.495C191.901 181.398 192.005 181.342 192.158 181.245C192.347 181.121 192.569 181.056 192.796 181.058C193.024 181.048 193.249 181.109 193.441 181.231C193.587 181.342 193.636 181.446 193.601 181.495Z" fill="#263238"/>
<path d="M188.25 184.111C188.248 184.217 188.288 184.319 188.361 184.396C188.433 184.472 188.533 184.517 188.639 184.521C188.69 184.527 188.742 184.522 188.791 184.507C188.841 184.492 188.886 184.467 188.926 184.434C188.966 184.401 188.998 184.36 189.021 184.314C189.045 184.268 189.059 184.218 189.062 184.167C189.064 184.061 189.025 183.958 188.952 183.88C188.879 183.802 188.78 183.756 188.673 183.75C188.622 183.746 188.57 183.751 188.52 183.767C188.471 183.783 188.425 183.808 188.386 183.842C188.346 183.875 188.314 183.916 188.291 183.963C188.267 184.009 188.254 184.06 188.25 184.111Z" fill="#263238"/>
<path d="M187.724 182.973C187.773 183.029 188.085 182.807 188.522 182.821C188.96 182.834 189.272 183.05 189.32 182.994C189.369 182.939 189.32 182.876 189.154 182.772C188.967 182.639 188.745 182.566 188.515 182.564C188.29 182.562 188.069 182.63 187.884 182.758C187.745 182.855 187.697 182.952 187.724 182.973Z" fill="#263238"/>
<path d="M187.473 182.043C187.557 182.14 187.897 182.043 188.299 182.043C188.702 182.043 189.042 182.12 189.125 182.043C189.208 181.967 189.125 181.897 188.958 181.8C188.756 181.682 188.526 181.62 188.292 181.62C188.058 181.62 187.828 181.682 187.626 181.8C187.48 181.891 187.432 181.995 187.473 182.043Z" fill="#263238"/>
<path d="M184.941 185.034C184.941 184.798 184.719 184.236 184.483 184.188C183.873 184.056 182.755 184.042 182.658 185.61C182.526 187.755 184.74 187.449 184.74 187.387C184.74 187.324 184.9 185.846 184.941 185.034Z" fill="#FFBE9D"/>
<path d="M184.169 186.568C184.169 186.568 184.135 186.568 184.065 186.617C183.976 186.651 183.877 186.651 183.788 186.617C183.654 186.521 183.548 186.392 183.481 186.242C183.414 186.092 183.388 185.926 183.406 185.763C183.413 185.579 183.461 185.399 183.545 185.235C183.57 185.17 183.61 185.111 183.662 185.064C183.713 185.017 183.776 184.983 183.843 184.965C183.886 184.956 183.931 184.963 183.97 184.983C184.009 185.003 184.04 185.036 184.058 185.076C184.064 185.113 184.064 185.15 184.058 185.187C184.058 185.187 184.107 185.152 184.093 185.062C184.083 185.009 184.056 184.96 184.017 184.923C183.989 184.9 183.957 184.882 183.922 184.872C183.888 184.861 183.851 184.857 183.815 184.861C183.726 184.871 183.641 184.904 183.569 184.958C183.498 185.012 183.441 185.083 183.406 185.166C183.302 185.346 183.245 185.549 183.239 185.756C183.216 185.946 183.25 186.138 183.337 186.309C183.423 186.479 183.558 186.62 183.725 186.714C183.779 186.74 183.839 186.754 183.899 186.754C183.959 186.754 184.018 186.74 184.072 186.714C184.169 186.617 184.169 186.568 184.169 186.568Z" fill="#EB996E"/>
<path d="M184.4 184.167L184.941 184.736C187.3 182.48 191.916 176.838 191.659 177.178C190.583 176.776 189.423 176.649 188.286 176.81C186.53 177.109 183.206 177.983 183.254 180.051C183.358 181.486 183.748 182.885 184.4 184.167Z" fill="#263238"/>
<path d="M181.275 183.716C181.275 183.716 181.275 183.674 181.275 183.591C181.318 183.477 181.366 183.366 181.421 183.258C181.645 182.859 181.953 182.513 182.323 182.245C182.885 181.856 183.51 181.567 184.169 181.391C184.863 181.155 185.696 180.974 186.494 180.634C187.246 180.322 187.958 179.924 188.618 179.448C189.156 179.059 189.658 178.623 190.117 178.143C190.506 177.727 190.811 177.366 190.984 177.116C191.068 176.991 191.144 176.894 191.2 176.817C191.255 176.741 191.276 176.713 191.283 176.72L191.22 176.831L191.019 177.137C190.764 177.509 190.481 177.862 190.172 178.192C189.717 178.685 189.215 179.133 188.673 179.531C188.007 180.003 187.288 180.395 186.529 180.697C185.724 181.037 184.905 181.217 184.19 181.446C183.551 181.623 182.946 181.904 182.4 182.279C182.031 182.535 181.721 182.866 181.491 183.251C181.409 183.401 181.337 183.557 181.275 183.716Z" fill="#28BCFC"/>
<path d="M181.901 184.056C181.896 183.894 181.924 183.734 181.984 183.584C182.143 183.174 182.424 182.822 182.789 182.577C183.336 182.228 183.947 181.992 184.587 181.883C185.352 181.734 186.099 181.501 186.815 181.189C187.524 180.867 188.191 180.456 188.799 179.968C189.635 179.299 190.353 178.494 190.923 177.588C190.999 177.463 191.062 177.365 191.103 177.282C191.126 177.248 191.151 177.215 191.18 177.185C191.165 177.224 191.146 177.261 191.124 177.296L190.958 177.608C190.745 177.986 190.498 178.343 190.222 178.677C189.812 179.19 189.346 179.655 188.834 180.065C188.222 180.564 187.548 180.981 186.828 181.307C186.105 181.622 185.348 181.854 184.573 182.001C183.943 182.113 183.341 182.349 182.803 182.695C182.439 182.925 182.156 183.262 181.991 183.66C181.949 183.789 181.919 183.921 181.901 184.056Z" fill="#28BCFC"/>
<path d="M180.645 203.439C180.543 202.074 180.543 200.703 180.645 199.338C180.737 200.703 180.737 202.074 180.645 203.439Z" fill="#263238"/>
<path d="M195.371 203.155C195.351 202.912 195.351 202.668 195.371 202.426C195.412 201.845 195.391 201.261 195.308 200.684C195.199 200.113 195.032 199.555 194.808 199.018C194.705 198.795 194.621 198.563 194.559 198.324C194.694 198.527 194.808 198.743 194.899 198.97C195.157 199.505 195.341 200.072 195.447 200.656C195.53 201.243 195.53 201.839 195.447 202.426C195.453 202.671 195.427 202.916 195.371 203.155Z" fill="#263238"/>
<path d="M270.282 198.657H217.226C215.961 198.656 214.748 198.152 213.854 197.257C212.96 196.361 212.458 195.148 212.458 193.883V182.196L206.607 177.005H270.282C271.546 177.006 272.758 177.509 273.651 178.403C274.545 179.297 275.048 180.508 275.05 181.772V193.883C275.05 195.148 274.548 196.361 273.654 197.257C272.76 198.152 271.547 198.656 270.282 198.657Z" fill="#EBEBEB"/>
<path d="M269.601 183.383C269.601 183.487 258.018 183.563 243.729 183.563C229.439 183.563 217.863 183.487 217.863 183.383C217.863 183.278 229.439 183.202 243.729 183.202C258.018 183.202 269.601 183.285 269.601 183.383Z" fill="#F8FDFF"/>
<path d="M269.601 187.186C269.601 187.283 258.018 187.366 243.729 187.366C229.439 187.366 217.863 187.283 217.863 187.186C217.863 187.088 229.439 187.005 243.729 187.005C258.018 187.005 269.601 187.088 269.601 187.186Z" fill="#F8FDFF"/>
<path d="M269.601 190.989C269.601 191.086 258.018 191.169 243.729 191.169C229.439 191.169 217.863 191.086 217.863 190.989C217.863 190.892 229.439 190.808 243.729 190.808C258.018 190.808 269.601 190.885 269.601 190.989Z" fill="#F8FDFF"/>
<path d="M269.601 97.9304C269.601 98.0276 258.018 98.1109 243.729 98.1109C229.439 98.1109 217.863 98.0276 217.863 97.9304C217.863 97.8333 229.439 97.75 243.729 97.75C258.018 97.75 269.601 97.8263 269.601 97.9304Z" fill="#F8FDFF"/>
<path d="M269.601 101.727C269.601 101.831 258.018 101.907 243.729 101.907C229.439 101.907 217.863 101.831 217.863 101.727C217.863 101.622 229.439 101.546 243.729 101.546C258.018 101.546 269.601 101.629 269.601 101.727Z" fill="#F8FDFF"/>
<path d="M269.601 106.293C269.601 106.397 258.018 106.473 243.729 106.473C229.439 106.473 217.863 106.397 217.863 106.293C217.863 106.189 229.439 106.113 243.729 106.113C258.018 106.113 269.601 106.196 269.601 106.293Z" fill="#F8FDFF"/>
<path d="M218.176 40.2521C218.213 39.7128 218.407 39.1961 218.733 38.7653C219.06 38.3346 219.505 38.0086 220.014 37.8273C220.523 37.646 221.075 37.6173 221.6 37.7448C222.125 37.8723 222.602 38.1503 222.971 38.5448L222.229 39.2388C222.075 39.0529 221.882 38.9035 221.664 38.8015C221.445 38.6994 221.207 38.6473 220.966 38.6489C220.539 38.6489 220.129 38.8186 219.827 39.1205C219.525 39.4225 219.356 39.832 219.356 40.259C219.356 40.686 219.525 41.0956 219.827 41.3975C220.129 41.6995 220.539 41.8691 220.966 41.8691C221.207 41.8709 221.447 41.8181 221.665 41.7148C221.884 41.6115 222.077 41.4602 222.229 41.2722L222.971 41.9662C222.602 42.3605 222.126 42.6385 221.601 42.7663C221.077 42.894 220.526 42.8659 220.017 42.6855C219.508 42.505 219.063 42.18 218.736 41.7502C218.409 41.3205 218.214 40.8046 218.176 40.2659V40.2521Z" fill="#263238"/>
<path d="M227.586 40.5505V42.7644H226.503V40.724C226.503 40.0994 226.212 39.8149 225.719 39.8149C225.226 39.8149 224.796 40.148 224.796 40.8559V42.7644H223.672V37.4414H224.796V39.3083C224.959 39.1519 225.152 39.0301 225.363 38.9501C225.574 38.8702 225.799 38.8339 226.025 38.8433C226.245 38.8344 226.464 38.8736 226.668 38.9584C226.871 39.0431 227.053 39.1713 227.202 39.3339C227.351 39.4965 227.462 39.6896 227.529 39.8998C227.595 40.1099 227.615 40.332 227.586 40.5505Z" fill="#263238"/>
<path d="M232.014 40.5644V42.7644H230.966V42.2855C230.836 42.4728 230.658 42.6214 230.45 42.7154C230.242 42.8095 230.013 42.8456 229.786 42.8199C228.884 42.8199 228.35 42.3202 228.35 41.654C228.35 40.9877 228.828 40.495 230.008 40.495H230.897C230.897 40.0161 230.605 39.7385 230.008 39.7385C229.608 39.7345 229.216 39.8585 228.891 40.0925L228.488 39.3152C228.984 38.9944 229.564 38.83 230.154 38.8433C231.362 38.8433 232.014 39.3915 232.014 40.5644ZM230.897 41.5429V41.1474H230.126C229.606 41.1474 229.432 41.3417 229.432 41.6054C229.432 41.8691 229.668 42.0704 230.064 42.0704C230.241 42.0837 230.418 42.0395 230.568 41.9445C230.718 41.8495 230.833 41.7087 230.897 41.5429Z" fill="#263238"/>
<path d="M235.526 42.5908C235.252 42.7626 234.932 42.8473 234.61 42.8337C234.419 42.8599 234.225 42.8425 234.042 42.7828C233.859 42.723 233.692 42.6225 233.554 42.4889C233.416 42.3552 233.309 42.1918 233.243 42.0111C233.177 41.8304 233.153 41.637 233.173 41.4457V39.8564H232.576V38.9958H233.173V38.052H234.29V38.9958H235.255V39.8564H234.29V41.4318C234.282 41.4979 234.288 41.5651 234.309 41.6285C234.33 41.6918 234.364 41.7498 234.41 41.7983C234.456 41.8467 234.512 41.8844 234.574 41.9086C234.636 41.9329 234.703 41.943 234.769 41.9384C234.932 41.9443 235.092 41.8927 235.22 41.7927L235.526 42.5908Z" fill="#263238"/>
<path d="M255.326 47.997C255.326 48.0941 243.528 48.1774 228.906 48.1774C214.283 48.1774 202.492 48.0941 202.492 47.997C202.492 47.8998 214.29 47.8096 228.906 47.8096C243.521 47.8096 255.326 47.8929 255.326 47.997Z" fill="#263238"/>
<path d="M278.734 40.2519C279.413 40.2519 279.963 39.702 279.963 39.0235C279.963 38.3451 279.413 37.7952 278.734 37.7952C278.056 37.7952 277.506 38.3451 277.506 39.0235C277.506 39.702 278.056 40.2519 278.734 40.2519Z" fill="#263238"/>
<path d="M279.941 42.5907C279.943 42.8356 279.871 43.0754 279.736 43.2796C279.601 43.4838 279.408 43.6432 279.182 43.7376C278.956 43.8319 278.707 43.857 278.467 43.8095C278.226 43.7621 278.006 43.6443 277.833 43.4711C277.659 43.2979 277.542 43.0772 277.494 42.8369C277.447 42.5967 277.472 42.3477 277.566 42.1217C277.66 41.8957 277.82 41.7028 278.024 41.5676C278.228 41.4324 278.468 41.361 278.713 41.3623C279.038 41.3641 279.35 41.4941 279.58 41.7241C279.809 41.9541 279.939 42.2655 279.941 42.5907Z" fill="#263238"/>
<path d="M279.941 46.1928C279.943 46.4377 279.871 46.6775 279.736 46.8817C279.601 47.0859 279.408 47.2453 279.182 47.3396C278.956 47.434 278.707 47.459 278.467 47.4116C278.226 47.3642 278.006 47.2464 277.833 47.0732C277.659 46.9 277.542 46.6793 277.494 46.439C277.447 46.1987 277.472 45.9498 277.566 45.7237C277.66 45.4977 277.82 45.3049 278.024 45.1697C278.228 45.0345 278.468 44.963 278.713 44.9644C279.039 44.9644 279.351 45.0938 279.582 45.3242C279.812 45.5545 279.941 45.867 279.941 46.1928Z" fill="#263238"/>
<path d="M178.841 43.1875C178.766 43.1891 178.692 43.1646 178.633 43.1181L175.378 40.7307C175.334 40.6977 175.297 40.6548 175.272 40.6055C175.247 40.5561 175.233 40.5016 175.232 40.4462C175.233 40.3916 175.246 40.3379 175.271 40.2896C175.297 40.2413 175.333 40.1998 175.378 40.1686L178.633 37.8229C178.67 37.7963 178.713 37.7773 178.757 37.7671C178.802 37.7568 178.848 37.7555 178.893 37.7633C178.938 37.771 178.982 37.7876 179.02 37.8122C179.059 37.8367 179.093 37.8686 179.119 37.9062C179.171 37.9802 179.192 38.0717 179.178 38.1611C179.164 38.2506 179.115 38.331 179.042 38.385L176.169 40.467L179.042 42.549C179.116 42.6043 179.165 42.6859 179.179 42.7765C179.193 42.8671 179.172 42.9597 179.119 43.0348C179.088 43.0809 179.047 43.1189 178.999 43.1455C178.951 43.1721 178.896 43.1865 178.841 43.1875Z" fill="#263238"/>
<path d="M263.779 159.877C272.376 159.877 279.346 152.923 279.346 144.345C279.346 135.767 272.376 128.813 263.779 128.813C255.182 128.813 248.213 135.767 248.213 144.345C248.213 152.923 255.182 159.877 263.779 159.877Z" fill="#E0E0E0"/>
<path d="M268.041 153.527H259.852C259.572 153.527 259.304 153.415 259.106 153.218C258.908 153.02 258.797 152.752 258.797 152.472C258.797 152.191 258.908 151.922 259.105 151.723C259.303 151.524 259.571 151.412 259.852 151.41H268.041C268.321 151.412 268.59 151.524 268.787 151.723C268.985 151.922 269.096 152.191 269.096 152.472C269.096 152.752 268.985 153.02 268.787 153.218C268.589 153.415 268.321 153.527 268.041 153.527Z" fill="white"/>
<path d="M264.411 134.247H263.689V137.884H264.411V134.247Z" fill="#263238"/>
<path d="M253.438 148.787C254.603 148.787 255.548 147.842 255.548 146.677C255.548 145.512 254.603 144.567 253.438 144.567C252.273 144.567 251.328 145.512 251.328 146.677C251.328 147.842 252.273 148.787 253.438 148.787Z" fill="#26D64C"/>
<path d="M274.772 148.648C275.937 148.648 276.882 147.703 276.882 146.538C276.882 145.373 275.937 144.428 274.772 144.428C273.607 144.428 272.662 145.373 272.662 146.538C272.662 147.703 273.607 148.648 274.772 148.648Z" fill="#26D64C"/>
<path d="M264.362 137.121C264.362 137.121 272.954 137.016 274.314 144.463C275.674 151.91 268.408 152.042 266.319 152.18C265.375 152.243 263.349 152.25 261.558 152.222C257.596 152.153 254.799 151.389 253.848 147.711C253.734 147.279 253.662 146.838 253.633 146.392C253.383 142.367 256.103 136.926 264.362 137.121Z" fill="#26D64C"/>
<path d="M258.13 148.454L270.622 148.648C271.25 148.657 271.857 148.417 272.308 147.98C272.76 147.543 273.019 146.944 273.03 146.316C273.038 145.688 272.796 145.082 272.357 144.632C271.919 144.182 271.32 143.924 270.691 143.915L258.199 143.721C257.888 143.715 257.579 143.771 257.289 143.885C256.999 144 256.735 144.17 256.511 144.387C256.288 144.603 256.109 144.862 255.985 145.148C255.862 145.434 255.796 145.741 255.791 146.052C255.787 146.364 255.844 146.673 255.959 146.962C256.074 147.252 256.245 147.515 256.462 147.738C256.68 147.962 256.939 148.14 257.225 148.262C257.511 148.385 257.819 148.45 258.13 148.454Z" fill="white"/>
<path d="M268.026 146.059C268.044 146.157 268.082 146.251 268.136 146.335C268.191 146.418 268.262 146.49 268.344 146.546C268.427 146.602 268.52 146.642 268.618 146.662C268.715 146.682 268.816 146.682 268.914 146.663C269.02 146.652 269.122 146.62 269.215 146.567C269.307 146.515 269.387 146.444 269.451 146.359C269.514 146.273 269.559 146.176 269.582 146.072C269.606 145.969 269.607 145.861 269.587 145.757C269.566 145.653 269.525 145.554 269.464 145.467C269.403 145.38 269.325 145.306 269.234 145.251C269.143 145.196 269.042 145.16 268.937 145.147C268.832 145.133 268.725 145.141 268.623 145.171C268.525 145.19 268.432 145.228 268.35 145.283C268.267 145.338 268.196 145.409 268.14 145.491C268.085 145.574 268.046 145.667 268.027 145.764C268.007 145.861 268.007 145.962 268.026 146.059Z" fill="black"/>
<path d="M259.303 145.92C259.313 146.026 259.346 146.128 259.398 146.221C259.451 146.313 259.522 146.393 259.607 146.457C259.692 146.52 259.79 146.565 259.894 146.588C259.997 146.612 260.104 146.613 260.209 146.593C260.313 146.573 260.412 146.531 260.499 146.47C260.586 146.409 260.659 146.331 260.714 146.24C260.77 146.15 260.805 146.048 260.819 145.943C260.833 145.838 260.825 145.731 260.795 145.629C260.741 145.446 260.621 145.29 260.459 145.191C260.296 145.093 260.103 145.058 259.916 145.094C259.729 145.131 259.563 145.236 259.449 145.389C259.336 145.541 259.284 145.731 259.303 145.92Z" fill="black"/>
<path d="M265.237 134.199C265.238 134.434 265.17 134.664 265.04 134.86C264.911 135.056 264.726 135.209 264.509 135.3C264.292 135.391 264.053 135.416 263.823 135.371C263.592 135.326 263.38 135.213 263.213 135.047C263.047 134.882 262.933 134.67 262.887 134.44C262.84 134.209 262.863 133.971 262.953 133.753C263.043 133.536 263.195 133.35 263.39 133.22C263.585 133.089 263.815 133.019 264.05 133.019C264.364 133.019 264.664 133.143 264.887 133.364C265.109 133.585 265.235 133.885 265.237 134.199Z" fill="#26D64C"/>
<path d="M265.841 145.712C265.841 145.712 265.889 145.768 265.917 145.893C265.939 146.07 265.922 146.25 265.868 146.42C265.792 146.684 265.649 146.923 265.452 147.114C265.211 147.354 264.895 147.504 264.557 147.537C264.218 147.565 263.88 147.477 263.599 147.288C263.376 147.137 263.193 146.934 263.065 146.698C262.982 146.538 262.935 146.363 262.926 146.184C262.926 146.059 262.926 145.99 262.967 145.99C263.009 145.99 263.037 146.253 263.266 146.58C263.399 146.76 263.567 146.914 263.759 147.031C263.991 147.169 264.26 147.232 264.529 147.211C264.787 147.178 265.03 147.067 265.223 146.892C265.398 146.747 265.538 146.564 265.632 146.358C265.813 145.997 265.785 145.712 265.841 145.712Z" fill="black"/>
<path d="M274.299 144.22C274.325 144.278 274.346 144.339 274.362 144.401C274.389 144.473 274.412 144.548 274.431 144.623C274.431 144.706 274.48 144.803 274.5 144.921C274.554 145.18 274.591 145.442 274.612 145.705C274.635 146.029 274.635 146.354 274.612 146.677C274.583 147 274.529 147.32 274.452 147.635C274.387 147.89 274.303 148.141 274.202 148.384C274.168 148.481 274.128 148.576 274.084 148.669C274.054 148.738 274.019 148.805 273.98 148.87L273.883 149.044C273.898 148.98 273.924 148.919 273.959 148.863L274.049 148.648C274.084 148.565 274.126 148.474 274.16 148.37C274.254 148.126 274.33 147.876 274.389 147.621C274.463 147.308 274.517 146.99 274.549 146.67C274.57 146.349 274.57 146.027 274.549 145.705C274.532 145.445 274.499 145.185 274.452 144.928C274.437 144.821 274.416 144.714 274.389 144.609C274.389 144.519 274.355 144.449 274.341 144.387C274.319 144.333 274.305 144.277 274.299 144.22Z" fill="#263238"/>
<path d="M253.946 144.262C253.916 144.322 253.893 144.384 253.876 144.449C253.876 144.505 253.835 144.581 253.807 144.664C253.779 144.748 253.758 144.852 253.737 144.963C253.684 145.221 253.649 145.483 253.633 145.747C253.609 146.07 253.609 146.395 253.633 146.718C253.661 147.041 253.715 147.362 253.793 147.676C253.857 147.934 253.941 148.187 254.043 148.433C254.078 148.537 254.126 148.627 254.161 148.71C254.196 148.794 254.237 148.863 254.265 148.918L254.362 149.085C254.344 149.022 254.318 148.961 254.286 148.905C254.286 148.849 254.23 148.78 254.196 148.696C254.161 148.613 254.119 148.523 254.084 148.419C253.991 148.172 253.915 147.919 253.855 147.662C253.781 147.349 253.728 147.032 253.696 146.712C253.675 146.393 253.675 146.073 253.696 145.754C253.713 145.491 253.746 145.229 253.793 144.97C253.808 144.871 253.828 144.774 253.855 144.678C253.855 144.588 253.89 144.512 253.904 144.456C253.918 144.401 253.946 144.262 253.946 144.262Z" fill="#263238"/>
<path d="M255.799 157.684C255.799 157.684 258.353 155.192 263.69 155.192C269.026 155.192 271.761 157.684 271.761 157.684C269.352 159.137 266.593 159.905 263.78 159.905C260.967 159.905 258.207 159.137 255.799 157.684Z" fill="#26D64C"/>
<path d="M178.617 160.182H231.667C232.293 160.183 232.914 160.06 233.492 159.821C234.071 159.582 234.597 159.231 235.04 158.788C235.483 158.345 235.834 157.819 236.073 157.24C236.313 156.661 236.435 156.041 236.435 155.414V140.021L242.285 134.83H178.617C177.991 134.83 177.371 134.954 176.793 135.193C176.214 135.433 175.689 135.784 175.246 136.227C174.803 136.67 174.452 137.195 174.213 137.774C173.973 138.352 173.85 138.972 173.85 139.598V155.414C173.849 156.041 173.971 156.661 174.211 157.24C174.45 157.819 174.801 158.345 175.244 158.788C175.687 159.231 176.213 159.582 176.792 159.821C177.371 160.06 177.991 160.183 178.617 160.182Z" fill="#EBEBEB"/>
<path d="M229.281 142.353C229.281 142.457 218.357 142.534 204.88 142.534C191.402 142.534 180.479 142.457 180.479 142.353C180.479 142.249 191.402 142.173 204.88 142.173C218.357 142.173 229.281 142.256 229.281 142.353Z" fill="#F8FDFF"/>
<path d="M229.281 146.476C229.281 146.58 218.357 146.656 204.88 146.656C191.402 146.656 180.479 146.58 180.479 146.476C180.479 146.372 191.402 146.295 204.88 146.295C218.357 146.295 229.281 146.378 229.281 146.476Z" fill="#F8FDFF"/>
<path d="M229.281 150.598C229.281 150.695 218.357 150.778 204.88 150.778C191.402 150.778 180.479 150.695 180.479 150.598C180.479 150.501 191.402 150.417 204.88 150.417C218.357 150.417 229.281 150.501 229.281 150.598Z" fill="#F8FDFF"/>
<path d="M229.281 154.72C229.281 154.818 218.357 154.901 204.88 154.901C191.402 154.901 180.479 154.818 180.479 154.72C180.479 154.623 191.402 154.54 204.88 154.54C218.357 154.54 229.281 154.616 229.281 154.72Z" fill="#F8FDFF"/>
<path d="M263.779 246.127C272.376 246.127 279.346 239.173 279.346 230.595C279.346 222.018 272.376 215.064 263.779 215.064C255.182 215.064 248.213 222.018 248.213 230.595C248.213 239.173 255.182 246.127 263.779 246.127Z" fill="#E0E0E0"/>
<path d="M268.041 239.777H259.852C259.713 239.777 259.575 239.75 259.446 239.696C259.318 239.643 259.201 239.564 259.103 239.466C259.005 239.367 258.928 239.25 258.875 239.121C258.823 238.992 258.796 238.854 258.797 238.715C258.797 238.436 258.908 238.167 259.106 237.969C259.304 237.772 259.572 237.66 259.852 237.66H268.041C268.321 237.66 268.589 237.772 268.787 237.969C268.985 238.167 269.096 238.436 269.096 238.715C269.097 238.854 269.07 238.992 269.018 239.121C268.965 239.25 268.887 239.367 268.789 239.466C268.691 239.564 268.575 239.643 268.446 239.696C268.318 239.75 268.18 239.777 268.041 239.777Z" fill="white"/>
<path d="M264.411 220.498H263.689V224.134H264.411V220.498Z" fill="#263238"/>
<path d="M253.438 235.037C254.603 235.037 255.548 234.092 255.548 232.927C255.548 231.762 254.603 230.817 253.438 230.817C252.273 230.817 251.328 231.762 251.328 232.927C251.328 234.092 252.273 235.037 253.438 235.037Z" fill="#26D64C"/>
<path d="M274.772 234.891C275.937 234.891 276.882 233.947 276.882 232.781C276.882 231.616 275.937 230.672 274.772 230.672C273.607 230.672 272.662 231.616 272.662 232.781C272.662 233.947 273.607 234.891 274.772 234.891Z" fill="#26D64C"/>
<path d="M264.362 223.371C264.362 223.371 272.954 223.267 274.314 230.706C275.674 238.146 268.408 238.292 266.319 238.431C265.375 238.493 263.349 238.5 261.558 238.472C257.596 238.403 254.799 237.633 253.848 233.961C253.734 233.53 253.662 233.088 253.633 232.643C253.383 228.618 256.103 223.17 264.362 223.371Z" fill="#26D64C"/>
<path d="M258.13 234.704L270.622 234.898C271.25 234.908 271.857 234.667 272.308 234.23C272.76 233.793 273.019 233.195 273.03 232.566C273.038 231.938 272.796 231.332 272.357 230.882C271.919 230.432 271.32 230.174 270.691 230.165L258.199 229.964C257.571 229.955 256.965 230.195 256.513 230.632C256.062 231.069 255.802 231.667 255.791 232.296C255.787 232.607 255.844 232.917 255.959 233.207C256.074 233.496 256.245 233.761 256.462 233.984C256.679 234.208 256.938 234.387 257.224 234.51C257.511 234.633 257.818 234.699 258.13 234.704Z" fill="white"/>
<path d="M268.027 232.309C268.044 232.408 268.08 232.503 268.133 232.588C268.187 232.673 268.256 232.746 268.338 232.804C268.42 232.862 268.512 232.904 268.61 232.926C268.708 232.948 268.809 232.951 268.908 232.934C269.007 232.917 269.102 232.881 269.186 232.828C269.271 232.774 269.345 232.705 269.403 232.623C269.461 232.541 269.502 232.448 269.525 232.351C269.547 232.253 269.55 232.152 269.533 232.053C269.522 231.947 269.489 231.845 269.437 231.752C269.385 231.66 269.313 231.58 269.228 231.516C269.143 231.453 269.045 231.408 268.942 231.385C268.838 231.361 268.731 231.36 268.627 231.38C268.523 231.4 268.424 231.442 268.337 231.503C268.25 231.564 268.176 231.642 268.121 231.733C268.066 231.823 268.03 231.925 268.016 232.03C268.002 232.135 268.011 232.242 268.041 232.344L268.027 232.309Z" fill="black"/>
<path d="M259.303 232.171C259.332 232.319 259.404 232.455 259.51 232.562C259.617 232.67 259.752 232.743 259.9 232.773C260.048 232.803 260.202 232.789 260.342 232.731C260.481 232.674 260.601 232.577 260.685 232.452C260.77 232.327 260.815 232.179 260.816 232.028C260.817 231.877 260.772 231.729 260.689 231.604C260.606 231.478 260.487 231.379 260.348 231.321C260.209 231.262 260.055 231.247 259.907 231.275C259.808 231.295 259.715 231.333 259.631 231.388C259.548 231.444 259.476 231.515 259.42 231.598C259.363 231.681 259.324 231.775 259.304 231.873C259.284 231.971 259.284 232.072 259.303 232.171Z" fill="black"/>
<path d="M265.237 220.421C265.237 220.656 265.167 220.886 265.037 221.081C264.906 221.276 264.721 221.428 264.504 221.518C264.287 221.608 264.049 221.631 263.818 221.585C263.588 221.54 263.377 221.426 263.211 221.261C263.045 221.095 262.932 220.883 262.886 220.653C262.84 220.423 262.864 220.184 262.954 219.967C263.043 219.75 263.196 219.565 263.391 219.435C263.586 219.304 263.815 219.235 264.05 219.235C264.365 219.235 264.667 219.36 264.889 219.582C265.112 219.805 265.237 220.107 265.237 220.421Z" fill="#26D64C"/>
<path d="M265.841 231.956C265.841 231.956 265.889 232.018 265.917 232.143C265.938 232.32 265.922 232.5 265.868 232.67C265.79 232.933 265.647 233.172 265.452 233.364C265.211 233.605 264.895 233.754 264.557 233.788C264.218 233.816 263.88 233.728 263.599 233.538C263.376 233.387 263.193 233.185 263.065 232.948C262.983 232.788 262.936 232.613 262.926 232.434C262.926 232.31 262.926 232.24 262.967 232.24C263.009 232.24 263.037 232.504 263.266 232.823C263.397 233.008 263.565 233.164 263.759 233.281C263.992 233.415 264.26 233.477 264.529 233.462C264.787 233.428 265.03 233.317 265.223 233.142C265.395 232.994 265.534 232.812 265.632 232.608C265.813 232.233 265.785 231.963 265.841 231.956Z" fill="black"/>
<path d="M274.299 230.464C274.299 230.464 274.299 230.533 274.362 230.651C274.39 230.723 274.413 230.798 274.431 230.873C274.431 230.956 274.48 231.054 274.5 231.165C274.553 231.424 274.59 231.685 274.612 231.949C274.636 232.272 274.636 232.597 274.612 232.92C274.584 233.243 274.53 233.564 274.452 233.878C274.387 234.136 274.304 234.389 274.202 234.635C274.168 234.729 274.128 234.822 274.084 234.912C274.055 234.984 274.02 235.054 273.98 235.12L273.883 235.287C273.901 235.224 273.927 235.163 273.959 235.106C273.959 235.051 274.015 234.982 274.049 234.898C274.084 234.815 274.126 234.725 274.16 234.621C274.255 234.374 274.331 234.121 274.389 233.864C274.464 233.554 274.517 233.238 274.549 232.92C274.57 232.599 274.57 232.277 274.549 231.956C274.532 231.695 274.5 231.435 274.452 231.178C274.437 231.078 274.416 230.978 274.389 230.88C274.389 230.79 274.355 230.72 274.341 230.658C274.317 230.596 274.303 230.53 274.299 230.464Z" fill="#263238"/>
<path d="M253.946 230.512C253.916 230.572 253.893 230.635 253.876 230.7C253.876 230.755 253.835 230.831 253.807 230.915C253.779 230.998 253.758 231.102 253.737 231.213C253.684 231.472 253.649 231.734 253.633 231.997C253.609 232.321 253.609 232.646 253.633 232.969C253.662 233.292 253.715 233.612 253.793 233.927C253.857 234.185 253.941 234.438 254.043 234.683C254.078 234.787 254.126 234.877 254.161 234.961C254.196 235.044 254.237 235.113 254.265 235.169L254.362 235.336C254.345 235.272 254.32 235.211 254.286 235.155C254.286 235.1 254.23 235.03 254.196 234.947C254.161 234.864 254.119 234.773 254.084 234.662C253.991 234.418 253.915 234.168 253.855 233.913C253.781 233.6 253.728 233.282 253.696 232.962C253.675 232.643 253.675 232.323 253.696 232.004C253.713 231.741 253.746 231.479 253.793 231.22C253.808 231.122 253.828 231.024 253.855 230.929C253.855 230.838 253.89 230.762 253.904 230.707C253.918 230.651 253.946 230.512 253.946 230.512Z" fill="#263238"/>
<path d="M255.799 243.934C255.799 243.934 258.353 241.443 263.69 241.443C269.026 241.443 271.761 243.934 271.761 243.934C269.352 245.387 266.593 246.155 263.78 246.155C260.967 246.155 258.207 245.387 255.799 243.934Z" fill="#26D64C"/>
<path d="M178.617 246.432H231.667C232.293 246.433 232.914 246.311 233.492 246.071C234.071 245.832 234.597 245.481 235.04 245.038C235.483 244.595 235.834 244.069 236.073 243.49C236.313 242.911 236.435 242.291 236.435 241.665V226.272L242.285 221.081H178.617C177.991 221.081 177.371 221.204 176.793 221.443C176.214 221.683 175.689 222.034 175.246 222.477C174.803 222.92 174.452 223.445 174.213 224.024C173.973 224.602 173.85 225.222 173.85 225.848V241.665C173.849 242.291 173.971 242.911 174.211 243.49C174.45 244.069 174.801 244.595 175.244 245.038C175.687 245.481 176.213 245.832 176.792 246.071C177.371 246.311 177.991 246.433 178.617 246.432Z" fill="#EBEBEB"/>
<path d="M178.617 270.507H231.667C232.293 270.507 232.914 270.384 233.493 270.144C234.072 269.904 234.598 269.552 235.041 269.109C235.483 268.665 235.834 268.139 236.074 267.559C236.313 266.98 236.435 266.359 236.435 265.733V260.632L242.285 255.441H178.617C177.991 255.441 177.371 255.564 176.793 255.804C176.214 256.043 175.689 256.394 175.246 256.837C174.803 257.28 174.452 257.805 174.213 258.384C173.973 258.962 173.85 259.582 173.85 260.208V265.76C173.855 267.021 174.36 268.229 175.253 269.118C176.147 270.008 177.356 270.507 178.617 270.507Z" fill="#EBEBEB"/>
<path d="M229.281 228.583C229.281 228.687 218.357 228.763 204.88 228.763C191.402 228.763 180.479 228.687 180.479 228.583C180.479 228.479 191.402 228.402 204.88 228.402C218.357 228.402 229.281 228.506 229.281 228.583Z" fill="#F8FDFF"/>
<path d="M229.281 232.747C229.281 232.844 218.357 232.927 204.88 232.927C191.402 232.927 180.479 232.844 180.479 232.747C180.479 232.65 191.402 232.566 204.88 232.566C218.357 232.566 229.281 232.629 229.281 232.747Z" fill="#F8FDFF"/>
<path d="M229.281 236.848C229.281 236.946 218.357 237.029 204.88 237.029C191.402 237.029 180.479 236.946 180.479 236.848C180.479 236.751 191.402 236.668 204.88 236.668C218.357 236.668 229.281 236.744 229.281 236.848Z" fill="#F8FDFF"/>
<path d="M229.281 240.971C229.281 241.068 218.357 241.151 204.88 241.151C191.402 241.151 180.479 241.068 180.479 240.971C180.479 240.874 191.402 240.79 204.88 240.79C218.357 240.79 229.281 240.867 229.281 240.971Z" fill="#F8FDFF"/>
<path d="M229.446 263.193C229.446 263.29 218.633 263.373 205.302 263.373C191.97 263.373 181.15 263.29 181.15 263.193C181.15 263.095 191.963 263.012 205.302 263.012C218.64 263.012 229.446 263.089 229.446 263.193Z" fill="#F8FDFF"/>
<path d="M51.9227 253.143C52.8574 253.368 53.737 253.78 54.5086 254.354C55.2803 254.927 55.928 255.651 56.4128 256.481C57.3721 258.153 57.9393 260.021 58.0715 261.943C58.4254 265.635 57.1415 269.709 55.5453 273.047C51.9435 271.035 50.2709 266.558 49.5631 264.233C48.4457 260.562 48.6539 253.24 51.9227 253.129" fill="#455A64"/>
<path d="M60.3322 278.266C59.9021 277.282 59.7397 276.203 59.8616 275.136C59.9835 274.07 60.3853 273.055 61.0262 272.193C61.6857 271.346 62.508 270.638 63.4448 270.113C64.3815 269.587 65.4138 269.254 66.481 269.133C66.96 269.029 67.4556 269.03 67.9345 269.134C68.4133 269.238 68.8643 269.443 69.257 269.737C69.5762 270.076 69.7986 270.494 69.9012 270.948C70.0037 271.402 69.9826 271.875 69.84 272.318C69.5451 273.201 69.0234 273.991 68.327 274.609C66.0438 276.816 63.4274 278.53 60.2628 278.266" fill="#455A64"/>
<path d="M58.7788 290.154C58.7378 289.902 58.7216 289.646 58.7302 289.391C58.7302 288.85 58.7302 288.149 58.6747 287.309C58.5333 285.008 58.7677 282.699 59.3687 280.473C60.014 278.241 61.243 276.221 62.929 274.623C63.4452 274.147 64.016 273.735 64.6292 273.394C64.7929 273.301 64.9621 273.217 65.1359 273.144C65.1933 273.109 65.2569 273.086 65.3232 273.075C64.5149 273.56 63.757 274.125 63.0608 274.761C61.4318 276.365 60.2376 278.357 59.5908 280.549C58.9936 282.751 58.7293 285.029 58.8066 287.309C58.8066 288.19 58.8066 288.898 58.8066 289.391C58.816 289.646 58.8067 289.901 58.7788 290.154Z" fill="#26D64C"/>
<path d="M52.2548 258.737C52.2992 258.837 52.3341 258.942 52.3589 259.049C52.4283 259.285 52.5116 259.59 52.6087 259.965C52.8239 260.763 53.1223 261.922 53.4693 263.359C54.1633 266.232 55.0933 270.216 56.0093 274.629C56.9254 279.043 57.6611 283.068 58.1538 285.983C58.3967 287.441 58.5841 288.62 58.709 289.453C58.7645 289.842 58.8062 290.147 58.8409 290.397C58.8519 290.508 58.8519 290.619 58.8409 290.73C58.805 290.624 58.7771 290.515 58.7576 290.404C58.709 290.161 58.6535 289.856 58.5771 289.467C58.4175 288.627 58.2024 287.455 57.9387 286.032C57.3973 283.124 56.6339 279.092 55.7179 274.699C54.8018 270.306 53.9135 266.301 53.2611 263.421C52.9349 262.033 52.6712 260.847 52.4838 260.007C52.4005 259.625 52.3311 259.313 52.2826 259.077C52.2601 258.965 52.2508 258.851 52.2548 258.737Z" fill="#26D64C"/>
<path d="M55.5445 281.576C54.7098 279.474 53.3873 277.599 51.686 276.108C49.9846 274.616 47.9532 273.551 45.759 272.999C44.6417 272.728 43.2537 272.693 42.5736 273.623C41.8935 274.553 42.3723 275.872 43.0039 276.836C44.354 278.82 46.2597 280.361 48.4819 281.266C50.7042 282.171 53.1441 282.4 55.4959 281.923" fill="#455A64"/>
<path d="M46.9808 276.281C47.2158 276.311 47.4479 276.359 47.6748 276.427C47.9495 276.491 48.2205 276.57 48.4868 276.663C48.7921 276.774 49.1808 276.871 49.5347 277.045C49.8886 277.218 50.3397 277.385 50.7631 277.621C51.2279 277.856 51.6775 278.12 52.1094 278.412C53.1045 279.072 54.0197 279.845 54.8369 280.716C55.6382 281.599 56.3367 282.57 56.9189 283.61C57.1754 284.06 57.4071 284.523 57.6129 284.998C57.7906 285.415 57.9458 285.841 58.0778 286.275C58.2166 286.663 58.2722 287.038 58.3554 287.357C58.4219 287.632 58.4729 287.91 58.5081 288.19C58.5506 288.419 58.5738 288.651 58.5775 288.884C58.5151 288.884 58.404 287.871 57.8835 286.31C57.7461 285.887 57.5863 285.473 57.4047 285.067C57.1989 284.592 56.9672 284.129 56.7107 283.679C56.122 282.662 55.4238 281.713 54.6287 280.848C53.8222 279.996 52.929 279.231 51.9637 278.564C51.5057 278.273 51.0754 277.988 50.6451 277.773C50.2563 277.552 49.8555 277.353 49.4445 277.176C47.9663 276.566 46.96 276.337 46.9808 276.281Z" fill="#26D64C"/>
<path d="M59.2916 163.876L30.0603 160.85L17.6794 132.75L8.06055 135.256C8.06055 135.256 15.1671 164.952 23.1203 169.553C31.0736 174.154 58.2437 174.98 58.2437 174.98L59.2916 163.876Z" fill="#26D64C"/>
<path d="M74.8318 178.168C79.5881 172.817 79.1056 164.623 73.754 159.866C68.4025 155.11 60.2084 155.593 55.452 160.944C50.6956 166.296 51.1781 174.49 56.5297 179.246C61.8813 184.003 70.0754 183.52 74.8318 178.168Z" fill="white"/>
<path d="M65.1429 182.531C62.1388 182.531 59.2277 181.489 56.9055 179.583C54.5833 177.678 52.9938 175.026 52.4077 172.079C51.8217 169.133 52.2753 166.074 53.6915 163.425C55.1076 160.776 57.3985 158.699 60.174 157.55C62.9494 156.4 66.0375 156.248 68.9123 157.12C71.787 157.992 74.2704 159.834 75.9394 162.332C77.6084 164.83 78.3596 167.829 78.0652 170.819C77.7707 173.808 76.4488 176.603 74.3245 178.728C73.1215 179.937 71.6906 180.896 70.1146 181.549C68.5386 182.202 66.8488 182.535 65.1429 182.531ZM65.1429 156.603C62.1469 156.6 59.2425 157.636 56.9246 159.534C54.6066 161.432 53.0186 164.075 52.431 167.013C51.8434 169.951 52.2927 173.002 53.7022 175.645C55.1117 178.289 57.3943 180.362 60.161 181.512C62.9278 182.661 66.0075 182.816 68.8754 181.949C71.7434 181.083 74.2221 179.249 75.8893 176.759C77.5565 174.27 78.309 171.28 78.0186 168.298C77.7283 165.316 76.4129 162.527 74.2968 160.406C73.0982 159.198 71.672 158.24 70.1008 157.588C68.5295 156.935 66.8444 156.6 65.1429 156.603Z" fill="white"/>
<path d="M27.4411 171.773C32.6626 170.519 35.8792 165.27 34.6256 160.049C33.3721 154.827 28.123 151.611 22.9016 152.864C17.6801 154.118 14.4635 159.367 15.717 164.588C16.9706 169.81 22.2196 173.026 27.4411 171.773Z" fill="white"/>
<path d="M17.7883 135.022C20.8915 131.919 20.8915 126.888 17.7883 123.784C14.6851 120.681 9.65374 120.681 6.55051 123.784C3.44729 126.888 3.44729 131.919 6.55051 135.022C9.65373 138.125 14.6851 138.125 17.7883 135.022Z" fill="white"/>
<path d="M24.5544 125.103L18.0114 130.628L15.6517 127.834L22.1947 122.309C22.5393 122.018 22.9853 121.875 23.4346 121.913C23.884 121.951 24.2999 122.166 24.5908 122.511L24.752 122.701C24.8971 122.872 25.0072 123.069 25.0758 123.282C25.1445 123.496 25.1704 123.72 25.152 123.943C25.1336 124.166 25.0714 124.384 24.9689 124.583C24.8663 124.782 24.7255 124.958 24.5544 125.103Z" fill="white"/>
<path d="M16.2441 114.984V123.312C16.2441 123.376 16.2186 123.438 16.173 123.484C16.1274 123.529 16.0657 123.555 16.0012 123.555H12.8366C12.7722 123.555 12.7104 123.529 12.6648 123.484C12.6193 123.438 12.5937 123.376 12.5937 123.312V114.984C12.5937 114.533 12.7728 114.1 13.0917 113.781C13.4106 113.463 13.8431 113.283 14.294 113.283H14.5438C14.9948 113.283 15.4273 113.463 15.7461 113.781C16.065 114.1 16.2441 114.533 16.2441 114.984Z" fill="white"/>
<path d="M10.3517 115.015L12.1698 123.142C12.1838 123.205 12.1724 123.271 12.1379 123.326C12.1033 123.38 12.0486 123.418 11.9858 123.432L8.89746 124.123C8.8346 124.137 8.76872 124.126 8.71432 124.091C8.65992 124.057 8.62146 124.002 8.6074 123.939L6.78928 115.812C6.69084 115.372 6.77124 114.911 7.0128 114.53C7.25437 114.149 7.6373 113.88 8.07737 113.782L8.32118 113.727C8.76125 113.629 9.22241 113.709 9.6032 113.951C9.98399 114.192 10.2532 114.575 10.3517 115.015Z" fill="white"/>
<path d="M4.01226 117.052L8.17626 124.264C8.20847 124.32 8.21719 124.386 8.20052 124.449C8.18384 124.511 8.14314 124.564 8.08735 124.596L5.34669 126.178C5.2909 126.211 5.2246 126.219 5.16238 126.203C5.10015 126.186 5.04709 126.145 5.01488 126.09L0.850877 118.877C0.625404 118.487 0.564304 118.023 0.681018 117.587C0.797732 117.152 1.08271 116.78 1.47324 116.555L1.68961 116.43C2.08014 116.204 2.54424 116.143 2.97983 116.26C3.41541 116.377 3.78679 116.662 4.01226 117.052Z" fill="white"/>
<path d="M186.335 236.67L195.084 232.949L169.838 173.587L161.088 177.308L186.335 236.67Z" fill="#26D64C"/>
<path d="M171.093 179.26C175.721 173.797 175.044 165.616 169.581 160.988C164.118 156.36 155.937 157.037 151.309 162.5C146.681 167.963 147.358 176.144 152.821 180.772C158.284 185.4 166.465 184.723 171.093 179.26Z" fill="white"/>
<path d="M161.227 183.891C159.193 183.892 157.187 183.416 155.371 182.5C153.555 181.584 151.979 180.255 150.771 178.619C149.562 176.983 148.755 175.086 148.413 173.081C148.071 171.076 148.205 169.019 148.804 167.075C149.514 164.783 150.845 162.732 152.651 161.151C154.456 159.569 156.665 158.52 159.031 158.118C161.397 157.717 163.828 157.98 166.054 158.877C168.28 159.775 170.214 161.272 171.64 163.202C173.066 165.132 173.929 167.42 174.132 169.812C174.336 172.203 173.873 174.604 172.794 176.748C171.715 178.892 170.062 180.694 168.02 181.955C165.978 183.216 163.627 183.886 161.227 183.891ZM161.227 157.949C158.831 157.952 156.482 158.619 154.443 159.876C152.404 161.134 150.753 162.933 149.675 165.072C148.597 167.212 148.133 169.609 148.336 171.996C148.539 174.383 149.4 176.668 150.824 178.595C152.248 180.522 154.178 182.016 156.401 182.911C158.623 183.807 161.05 184.068 163.412 183.666C165.774 183.264 167.978 182.215 169.78 180.635C171.581 179.055 172.908 177.006 173.615 174.716C174.623 171.436 174.288 167.889 172.683 164.854C171.079 161.82 168.337 159.547 165.058 158.532C163.803 158.144 162.498 157.947 161.185 157.949H161.227Z" fill="white"/>
<path d="M187.449 209.641C188.886 204.467 185.858 199.108 180.684 197.67C175.51 196.232 170.15 199.261 168.713 204.435C167.275 209.608 170.304 214.968 175.477 216.406C180.651 217.843 186.011 214.815 187.449 209.641Z" fill="white"/>
<path d="M192.741 245.248C197.13 245.248 200.688 241.69 200.688 237.301C200.688 232.913 197.13 229.355 192.741 229.355C188.353 229.355 184.795 232.913 184.795 237.301C184.795 241.69 188.353 245.248 192.741 245.248Z" fill="white"/>
<path d="M182.348 245.304L186.797 238.003L189.92 239.906L185.471 247.207C185.236 247.592 184.858 247.868 184.42 247.975C183.982 248.081 183.519 248.009 183.134 247.774L182.921 247.644C182.729 247.529 182.562 247.376 182.43 247.196C182.297 247.015 182.201 246.811 182.148 246.593C182.095 246.376 182.085 246.15 182.119 245.929C182.154 245.707 182.231 245.495 182.348 245.304Z" fill="white"/>
<path d="M193.427 252.267L190.79 244.368C190.77 244.307 190.774 244.24 190.803 244.182C190.832 244.125 190.883 244.081 190.944 244.06L193.945 243.058C194.007 243.038 194.073 243.043 194.131 243.071C194.189 243.1 194.232 243.151 194.253 243.212L196.89 251.111C196.958 251.324 196.983 251.548 196.965 251.77C196.947 251.993 196.884 252.21 196.782 252.408C196.68 252.607 196.54 252.783 196.369 252.928C196.199 253.072 196.002 253.181 195.789 253.249L195.552 253.328C195.129 253.464 194.671 253.429 194.274 253.23C193.877 253.032 193.573 252.686 193.427 252.267Z" fill="white"/>
<path d="M199.013 250.374L194.715 243.241C194.699 243.213 194.688 243.183 194.683 243.152C194.678 243.12 194.68 243.088 194.687 243.057C194.695 243.026 194.709 242.997 194.728 242.971C194.747 242.945 194.771 242.924 194.798 242.907L197.508 241.274C197.536 241.258 197.566 241.247 197.598 241.242C197.629 241.237 197.661 241.239 197.692 241.246C197.723 241.254 197.752 241.268 197.778 241.287C197.804 241.306 197.825 241.329 197.842 241.357L202.14 248.49C202.373 248.876 202.442 249.339 202.334 249.777C202.225 250.215 201.947 250.591 201.561 250.824L201.347 250.953C200.961 251.186 200.498 251.255 200.06 251.147C199.622 251.038 199.246 250.76 199.013 250.374Z" fill="white"/>
<path d="M204.378 246.441L198.144 240.918C198.096 240.876 198.067 240.816 198.063 240.751C198.059 240.687 198.081 240.624 198.124 240.576L200.218 238.212C200.26 238.164 200.32 238.135 200.385 238.131C200.449 238.127 200.512 238.149 200.56 238.191L206.794 243.714C207.131 244.013 207.336 244.434 207.364 244.884C207.391 245.334 207.238 245.777 206.939 246.114L206.773 246.301C206.474 246.637 206.053 246.84 205.604 246.866C205.155 246.892 204.714 246.739 204.378 246.441Z" fill="white"/>
<path d="M61.291 156.062C61.291 156.062 62.2279 247.073 113.299 248.849C164.371 250.626 166.515 156.714 166.515 156.062C166.515 156.062 160.484 142.494 113.903 143.021C67.3219 143.549 61.291 156.062 61.291 156.062Z" fill="#26D64C"/>
<path d="M89.9667 140.044H133.133C135.951 140.044 138.234 137.76 138.234 134.943V134.201C138.234 131.384 135.951 129.1 133.133 129.1H89.9667C87.1495 129.1 84.8658 131.384 84.8658 134.201V134.943C84.8658 137.76 87.1495 140.044 89.9667 140.044Z" fill="white"/>
<path d="M109.691 59.1169H113.418V40.2748H109.691V59.1169Z" fill="white"/>
<path d="M168.538 115.211C174.422 113.812 178.058 107.908 176.66 102.024C175.261 96.1395 169.357 92.5031 163.473 93.9017C157.589 95.3003 153.952 101.204 155.351 107.089C156.749 112.973 162.653 116.609 168.538 115.211Z" fill="#26D64C"/>
<path d="M57.8805 114.5C63.7789 113.162 67.4759 107.295 66.138 101.397C64.8001 95.4986 58.9339 91.8016 53.0355 93.1395C47.1371 94.4774 43.4401 100.344 44.778 106.242C46.1159 112.14 51.9821 115.837 57.8805 114.5Z" fill="#26D64C"/>
<path d="M109.385 55.0292C109.385 55.0292 64.8583 54.4948 57.8212 93.0882C50.784 131.682 88.4266 132.376 99.2599 133.104C104.166 133.437 114.674 133.472 123.945 133.305C144.474 132.952 158.979 128.982 163.913 109.938C164.501 107.706 164.87 105.421 165.016 103.116C166.314 82.2132 152.205 54.0021 109.385 55.0292Z" fill="#26D64C"/>
<path d="M141.683 113.769L76.9957 114.776C75.3817 114.804 73.778 114.514 72.2762 113.922C70.7744 113.33 69.4042 112.448 68.2439 111.325C67.0836 110.203 66.156 108.863 65.5142 107.382C64.8724 105.9 64.529 104.307 64.5037 102.693C64.4762 101.079 64.7671 99.4749 65.36 97.9731C65.9528 96.4713 66.8359 95.1011 67.9587 93.9409C69.0816 92.7807 70.4221 91.8532 71.9037 91.2115C73.3853 90.5698 74.9788 90.2265 76.5932 90.2012L141.281 89.1949C142.895 89.1655 144.499 89.455 146.002 90.0467C147.504 90.6385 148.874 91.5209 150.035 92.6433C151.195 93.7658 152.123 95.1062 152.764 96.5878C153.406 98.0695 153.749 99.6631 153.773 101.277C153.801 102.892 153.511 104.496 152.919 105.999C152.326 107.501 151.443 108.871 150.32 110.032C149.197 111.192 147.856 112.12 146.374 112.761C144.892 113.402 143.298 113.745 141.683 113.769Z" fill="white"/>
<path d="M90.4386 101.354C90.2882 102.119 89.9143 102.822 89.3643 103.374C88.8143 103.927 88.1129 104.304 87.3486 104.457C86.5844 104.611 85.7918 104.535 85.0708 104.238C84.3499 103.942 83.7332 103.438 83.2985 102.791C82.8639 102.144 82.6308 101.382 82.6289 100.603C82.627 99.8232 82.8562 99.0606 83.2877 98.4114C83.7191 97.7621 84.3334 97.2553 85.0528 96.9551C85.7723 96.6549 86.5646 96.5748 87.3295 96.7248C87.8377 96.8245 88.3212 97.0233 88.7525 97.3099C89.1838 97.5965 89.5544 97.9653 89.8431 98.3951C90.1319 98.825 90.3331 99.3076 90.4353 99.8152C90.5374 100.323 90.5386 100.846 90.4386 101.354Z" fill="black"/>
<path d="M135.612 100.632C135.463 101.398 135.09 102.102 134.54 102.655C133.991 103.209 133.29 103.587 132.525 103.741C131.761 103.896 130.968 103.821 130.246 103.525C129.525 103.229 128.907 102.725 128.472 102.078C128.037 101.431 127.803 100.669 127.801 99.8894C127.799 99.1095 128.028 98.3465 128.459 97.6969C128.891 97.0472 129.505 96.5402 130.225 96.2399C130.945 95.9396 131.737 95.8596 132.503 96.01C133.528 96.2114 134.431 96.8112 135.013 97.6778C135.596 98.5444 135.812 99.6069 135.612 100.632Z" fill="black"/>
<path d="M129.108 192.205C128.855 195.678 127.577 198.998 125.437 201.745C123.297 204.492 120.39 206.542 117.085 207.637C113.779 208.732 110.223 208.822 106.866 207.896C103.51 206.97 100.503 205.07 98.226 202.435C95.9493 199.8 94.505 196.549 94.0757 193.094C93.6465 189.638 94.2515 186.133 95.8143 183.021C97.3772 179.91 99.8276 177.331 102.856 175.612C105.884 173.893 109.354 173.11 112.827 173.363C117.484 173.704 121.815 175.88 124.868 179.414C127.921 182.947 129.446 187.548 129.108 192.205Z" fill="white"/>
<path d="M124.341 191.858C124.156 194.389 123.224 196.809 121.664 198.811C120.103 200.812 117.985 202.306 115.575 203.104C113.166 203.901 110.574 203.966 108.127 203.291C105.681 202.615 103.49 201.229 101.831 199.309C100.172 197.388 99.1203 195.018 98.8083 192.499C98.4963 189.981 98.9381 187.426 100.078 185.158C101.218 182.891 103.005 181.012 105.212 179.76C107.42 178.508 109.949 177.938 112.48 178.124C114.161 178.246 115.802 178.698 117.308 179.455C118.814 180.211 120.156 181.257 121.257 182.533C122.359 183.808 123.198 185.289 123.727 186.889C124.256 188.489 124.465 190.177 124.341 191.858Z" fill="#26D64C"/>
<path d="M118.158 194.19C118.06 193.489 118.021 192.781 118.04 192.073C118.005 190.748 117.978 188.853 117.978 186.521L118.117 186.778L111.517 182.926H111.884L105.222 186.667C105.042 186.972 105.465 186.258 105.423 186.334V187.319V188.312C105.423 188.964 105.423 189.617 105.389 190.255C105.389 191.532 105.34 192.767 105.319 193.961L105.139 193.642L111.662 197.625H111.371C113.404 196.529 115.084 195.654 116.229 195.058C116.845 194.707 117.488 194.405 118.151 194.155C117.634 194.577 117.076 194.947 116.486 195.259C115.361 195.953 113.71 196.931 111.628 198.132L111.482 198.215L111.336 198.132L104.729 194.28L104.549 194.176V193.954C104.549 192.76 104.563 191.525 104.59 190.248C104.59 189.61 104.59 188.964 104.59 188.305V187.319V186.362C104.549 186.438 104.972 185.73 104.792 186.029L111.475 182.323L111.669 182.219L111.85 182.33L118.366 186.313L118.512 186.403V186.57C118.436 188.971 118.359 190.9 118.29 192.212C118.308 192.874 118.264 193.536 118.158 194.19Z" fill="#001E88"/>
<path d="M115.902 44.236C118.301 41.8375 118.301 37.9486 115.902 35.5501C113.503 33.1515 109.615 33.1515 107.216 35.5501C104.817 37.9487 104.817 41.8375 107.216 44.236C109.615 46.6346 113.503 46.6346 115.902 44.236Z" fill="#26D64C"/>
<path d="M101.744 99.5354C102.035 99.5701 101.889 100.923 102.75 102.776C103.237 103.84 103.947 104.787 104.832 105.552C105.869 106.465 107.159 107.038 108.531 107.197C109.91 107.286 111.284 106.957 112.473 106.253C113.479 105.668 114.35 104.876 115.027 103.928C116.207 102.284 116.311 100.903 116.602 100.923C116.72 100.923 116.838 101.27 116.838 101.923C116.812 102.852 116.574 103.763 116.144 104.588C115.497 105.833 114.542 106.892 113.368 107.662C111.917 108.684 110.15 109.157 108.383 108.996C106.615 108.834 104.963 108.049 103.721 106.781C102.708 105.812 101.962 104.597 101.556 103.255C101.267 102.36 101.191 101.409 101.334 100.479C101.452 99.8338 101.633 99.5146 101.744 99.5354Z" fill="black"/>
<path d="M161.034 117.517C160.964 117.517 161.762 116.268 162.533 114.082C163.491 111.219 164.097 108.25 164.337 105.24C164.615 102.241 164.684 99.2267 164.545 96.2182C164.497 95.0592 164.441 94.1362 164.386 93.4422C164.339 93.1066 164.327 92.767 164.351 92.429C164.44 92.7559 164.498 93.0905 164.524 93.4283C164.621 94.0737 164.719 95.0106 164.802 96.2043C165.02 99.2371 164.985 102.283 164.698 105.31C164.454 108.347 163.807 111.339 162.775 114.207C162.449 115.072 162.054 115.909 161.596 116.712C161.432 116.996 161.244 117.265 161.034 117.517Z" fill="white"/>
<path d="M57.905 91.7974C57.8657 92.1344 57.7937 92.4668 57.6899 92.7898C57.5997 93.1021 57.5025 93.4838 57.4123 93.9418C57.3221 94.3999 57.1833 94.8995 57.1 95.4756C56.8567 96.8132 56.6944 98.1644 56.6142 99.5216C56.5208 101.182 56.544 102.847 56.6836 104.505C56.8386 106.159 57.1076 107.801 57.4886 109.418C57.8073 110.741 58.2059 112.044 58.6823 113.318C58.8697 113.867 59.0848 114.345 59.2583 114.776C59.4318 115.206 59.5984 115.567 59.7372 115.858C59.8954 116.158 60.0255 116.472 60.1258 116.795C59.9283 116.52 59.7564 116.227 59.6123 115.921C59.4161 115.574 59.2377 115.217 59.0779 114.852C58.8836 114.436 58.6476 113.957 58.4463 113.409C57.9311 112.137 57.5044 110.832 57.1694 109.501C56.7633 107.868 56.4802 106.207 56.3227 104.532C56.1813 102.859 56.1674 101.177 56.2811 99.5008C56.3779 98.1315 56.568 96.7704 56.8501 95.427C56.9542 94.851 57.1 94.3443 57.218 93.8932C57.3359 93.4421 57.447 93.0604 57.5511 92.7481C57.6431 92.4221 57.7615 92.1042 57.905 91.7974Z" fill="white"/>
<path d="M61.0547 155.985L61.3184 156.062L62.0957 156.325L65.0521 157.366L67.1896 158.13C67.9739 158.394 68.8414 158.643 69.7644 158.928C71.6174 159.476 73.7063 160.191 76.0798 160.746L79.7788 161.697C81.0696 162.023 82.4299 162.266 83.8318 162.571C86.6078 163.21 89.6544 163.647 92.8538 164.161C99.7726 165.11 106.746 165.608 113.729 165.653C120.713 165.612 127.686 165.113 134.605 164.161C137.783 163.647 140.809 163.217 143.627 162.571C145.015 162.273 146.403 162.03 147.68 161.704L151.386 160.753C153.752 160.198 155.841 159.483 157.694 158.935C158.617 158.65 159.485 158.4 160.269 158.137L162.406 157.373L165.363 156.332L166.14 156.069C166.228 156.034 166.318 156.009 166.411 155.992L166.154 156.103L165.391 156.402L162.455 157.505L160.269 158.324C159.492 158.595 158.624 158.852 157.701 159.15C155.848 159.719 153.766 160.448 151.393 161.024L147.687 161.995C146.403 162.329 145.036 162.578 143.634 162.891C140.858 163.543 137.804 163.987 134.612 164.515C127.679 165.487 120.688 165.995 113.688 166.034C106.689 165.99 99.7013 165.48 92.7705 164.508C89.585 163.987 86.5245 163.536 83.7485 162.884C82.3605 162.571 80.9725 162.322 79.6955 161.988L75.9896 161.017C73.6161 160.441 71.5341 159.712 69.6811 159.143C68.7581 158.845 67.8975 158.588 67.1133 158.317L64.9827 157.519L62.0471 156.416L61.2837 156.117C61.2033 156.081 61.1267 156.036 61.0547 155.985Z" fill="white"/>
<g opacity="0.3">
<path d="M61.291 156.062C61.291 156.062 67.3219 143.57 113.903 143.022C160.484 142.473 166.515 156.062 166.515 156.062C166.515 156.062 119.504 179.234 61.291 156.062Z" fill="black"/>
</g>
<path d="M103.743 57.9162C103.69 57.9212 103.637 57.9212 103.584 57.9162L103.119 57.9648C102.702 58.0064 102.092 58.0203 101.308 58.1105C99.0948 58.3253 96.899 58.6893 94.7354 59.2001C83.5443 61.7631 73.6735 68.3223 66.9754 77.6466C63.7393 82.1274 61.2892 87.1261 59.73 92.4288C59.4871 93.1783 59.3552 93.7752 59.2373 94.1707L59.1054 94.6288C59.0929 94.6817 59.0743 94.7329 59.0499 94.7815C59.0407 94.7287 59.0407 94.6747 59.0499 94.6219C59.0499 94.4969 59.1054 94.3442 59.147 94.1569C59.2442 93.7543 59.3483 93.1506 59.5704 92.3872C60.1496 90.2311 60.892 88.1222 61.7912 86.0787C64.7576 79.2879 69.2736 73.2864 74.9772 68.5552C80.7051 63.8597 87.4526 60.5703 94.6798 58.9502C96.8562 58.4557 99.0673 58.1286 101.294 57.9717C102.085 57.9023 102.682 57.9092 103.112 57.8884H103.584C103.695 57.9023 103.743 57.9093 103.743 57.9162Z" fill="#119B2F"/>
<path d="M60.1814 111.34C59.9033 110.911 59.6883 110.443 59.5429 109.952C58.7197 107.633 58.3361 105.181 58.4117 102.721C58.3919 102.21 58.4528 101.7 58.5921 101.208C58.7032 101.208 58.5505 103.526 58.9947 106.33C59.4388 109.133 60.2855 111.299 60.1814 111.34Z" fill="#119B2F"/>
<path d="M48.5009 107.752C48.5009 107.752 48.3413 107.641 48.1261 107.378C47.8195 107.004 47.5564 106.596 47.3419 106.163C46.6008 104.728 46.3172 103.101 46.5294 101.5C46.7416 99.8996 47.4394 98.4024 48.5287 97.2104C48.8477 96.8453 49.2088 96.5192 49.6044 96.2388C49.7402 96.1245 49.8953 96.0352 50.0624 95.9751C50.104 96.0306 49.4794 96.454 48.723 97.3631C47.7302 98.5521 47.0949 99.9983 46.891 101.534C46.6871 103.069 46.9229 104.631 47.571 106.038C48.0568 107.142 48.5495 107.711 48.5009 107.752Z" fill="#119B2F"/>
<path d="M111.953 35.6111C111.411 35.5515 110.865 35.5399 110.322 35.5764C109.674 35.6332 109.049 35.8375 108.493 36.1737C107.937 36.5098 107.465 36.9689 107.114 37.5156C106.763 38.0624 106.542 38.6823 106.467 39.3278C106.393 39.9733 106.467 40.6272 106.685 41.2395C106.872 41.7472 107.105 42.2373 107.379 42.7038C107.379 42.7038 107.24 42.6205 107.046 42.3984C106.779 42.0772 106.568 41.7136 106.421 41.3227C106.157 40.6747 106.052 39.9724 106.116 39.2753C106.18 38.5781 106.411 37.9067 106.79 37.3178C107.168 36.7289 107.683 36.2399 108.291 35.8921C108.898 35.5442 109.581 35.3479 110.28 35.3196C110.695 35.2908 111.113 35.3307 111.515 35.4376C111.828 35.4862 111.953 35.5903 111.953 35.6111Z" fill="black"/>
<path d="M172.443 99.3342C172.366 99.4175 171.29 98.3834 169.667 97.6061C168.043 96.8289 166.564 96.5998 166.578 96.4888C167.71 96.4606 168.828 96.7337 169.819 97.28C170.862 97.7163 171.769 98.426 172.443 99.3342Z" fill="#119B2F"/>
<path d="M77.2535 220.833C77.2218 220.791 77.194 220.747 77.1702 220.701L76.9412 220.292C76.733 219.896 76.4554 219.368 76.0945 218.695C75.9141 218.348 75.7197 217.96 75.4977 217.543L74.8453 216.155C74.3734 215.149 73.8459 214.004 73.3254 212.685C73.0617 212.04 72.7841 211.36 72.4926 210.659C72.2012 209.958 71.9513 209.194 71.6668 208.424C71.0699 206.89 70.5633 205.204 69.9734 203.455C68.8838 199.916 67.8151 195.995 66.8782 191.831C65.9413 187.667 65.2612 183.648 64.706 179.991C64.1508 176.334 63.7899 173.051 63.5678 170.233C63.4359 168.845 63.3527 167.582 63.2833 166.472C63.2139 165.361 63.1514 164.39 63.1306 163.626C63.1098 162.863 63.0889 162.273 63.0681 161.829V161.364C63.0606 161.311 63.0606 161.257 63.0681 161.204C63.0761 161.257 63.0761 161.311 63.0681 161.364L63.1098 161.829C63.1098 162.266 63.1861 162.87 63.2347 163.619C63.2833 164.369 63.3527 165.354 63.4498 166.458C63.547 167.561 63.6372 168.824 63.7899 170.212C64.0397 172.988 64.4839 176.292 65.0044 179.928C65.5249 183.565 66.2813 187.562 67.1974 191.726C68.1135 195.89 69.1892 199.805 70.251 203.337C70.8409 205.086 71.3337 206.765 71.9166 208.299C72.1942 209.076 72.4579 209.819 72.7217 210.534L73.5267 212.574C74.0264 213.872 74.5399 215.024 74.998 216.044L75.6226 217.432C75.8238 217.856 76.0182 218.244 76.1917 218.598L76.9689 220.222L77.1633 220.645C77.2053 220.701 77.236 220.765 77.2535 220.833Z" fill="#119B2F"/>
<path d="M50.097 164.251C48.4039 164.315 46.7082 164.255 45.0239 164.07C43.3316 164.011 41.6457 163.832 39.9785 163.536C41.6717 163.472 43.3673 163.532 45.0517 163.716C46.744 163.775 48.43 163.954 50.097 164.251Z" fill="#119B2F"/>
<path d="M23.9894 149.434C23.0052 148 22.1217 146.5 21.3453 144.944C20.4654 143.445 19.6909 141.887 19.0273 140.28C20.0086 141.717 20.8898 143.22 21.6645 144.777C22.5489 146.273 23.3258 147.829 23.9894 149.434Z" fill="#119B2F"/>
<path d="M101.889 242.714C101.616 242.709 101.344 242.677 101.077 242.617C100.343 242.487 99.6177 242.31 98.9052 242.09C97.8468 241.768 96.8125 241.371 95.81 240.903C94.5887 240.314 93.4147 239.632 92.2983 238.863C91.1945 238.074 90.1548 237.199 89.1892 236.246C88.4071 235.463 87.6835 234.623 87.0239 233.734C86.5721 233.141 86.1616 232.517 85.7956 231.867C85.6457 231.639 85.5223 231.395 85.4277 231.139C85.4833 231.104 86.0662 232.11 87.2252 233.581C87.9065 234.437 88.6413 235.248 89.4252 236.01C91.3461 237.877 93.5502 239.427 95.9557 240.605C96.9384 241.079 97.9488 241.494 98.9816 241.847C100.758 242.444 101.903 242.645 101.889 242.714Z" fill="#119B2F"/>
<path d="M112.536 210.61C112.376 210.638 112.213 210.654 112.051 210.659C111.589 210.698 111.126 210.712 110.663 210.7C108.937 210.662 107.225 210.384 105.575 209.875C104.436 209.52 103.327 209.074 102.258 208.542C101.033 207.912 99.8711 207.166 98.7882 206.314C96.2796 204.387 94.3023 201.854 93.0421 198.952C91.782 196.051 91.2804 192.876 91.5844 189.728C91.6976 188.361 91.9416 187.009 92.3131 185.689C92.6457 184.544 93.0752 183.429 93.597 182.357C94.3498 180.803 95.3169 179.361 96.4702 178.075C96.7795 177.724 97.1085 177.39 97.4557 177.076C97.5705 176.961 97.6935 176.854 97.8235 176.757C97.8235 176.757 97.3655 177.25 96.5743 178.145C95.4637 179.451 94.5304 180.898 93.7983 182.448C92.7068 184.732 92.057 187.202 91.8829 189.728C91.6015 192.821 92.1024 195.935 93.3394 198.783C94.5763 201.632 96.5097 204.124 98.9617 206.03C100.013 206.876 101.142 207.619 102.335 208.251C103.38 208.802 104.468 209.266 105.589 209.639C107.214 210.165 108.901 210.476 110.607 210.562C111.863 210.61 112.536 210.569 112.536 210.61Z" fill="#119B2F"/>
<path d="M28.5133 155.958C28.5133 156.013 27.9789 155.756 27.1253 155.555C25.9831 155.305 24.799 155.317 23.662 155.59C22.525 155.863 21.4645 156.389 20.5601 157.131C19.8661 157.707 19.533 158.165 19.4844 158.13C19.6748 157.671 19.9694 157.262 20.3449 156.936C21.2457 156.11 22.3424 155.527 23.5313 155.243C24.7203 154.958 25.9621 154.982 27.1392 155.312C27.6408 155.419 28.1111 155.64 28.5133 155.958Z" fill="black"/>
<path d="M130.998 86.9532C130.998 87.0503 122.475 87.1336 111.968 87.1336C101.461 87.1336 92.9316 87.0503 92.9316 86.9532C92.9316 86.856 101.454 86.7727 111.968 86.7727C122.482 86.7727 130.998 86.8421 130.998 86.9532Z" fill="#119B2F"/>
<path d="M98.5177 130.349C98.4137 130.378 98.3065 130.395 98.1985 130.398L97.2685 130.481C96.866 130.516 96.3733 130.543 95.7972 130.557C95.2212 130.571 94.5689 130.599 93.8471 130.557C92.3966 130.557 90.6755 130.453 88.767 130.252C86.7017 130.012 84.6513 129.657 82.6251 129.19C80.6038 128.705 78.6112 128.107 76.6567 127.399C75.0643 126.816 73.5031 126.152 71.9792 125.408C71.2852 125.102 70.7508 124.783 70.2442 124.512C69.7375 124.242 69.3073 123.999 68.9603 123.818L68.1622 123.333C68.0675 123.28 67.9791 123.217 67.8984 123.145C67.8984 123.145 68.0095 123.145 68.1969 123.27L69.0297 123.694C69.3836 123.888 69.8208 124.117 70.3344 124.388C70.8479 124.658 71.4309 124.936 72.0902 125.227C73.3949 125.838 74.9842 126.49 76.7747 127.136C80.6662 128.531 84.7033 129.481 88.8087 129.967C90.6963 130.189 92.4105 130.314 93.8471 130.349C94.5411 130.391 95.2351 130.349 95.7972 130.349C96.3594 130.349 96.8591 130.349 97.2616 130.349H98.1915C98.2995 130.331 98.4097 130.331 98.5177 130.349Z" fill="#119B2F"/>
<path d="M153.919 161.621C153.868 161.654 153.812 161.68 153.753 161.697L153.253 161.884L151.324 162.578C150.484 162.884 149.457 163.238 148.242 163.592C147.028 163.946 145.661 164.404 144.113 164.792L141.698 165.431C140.858 165.646 139.97 165.826 139.061 166.041C137.243 166.479 135.272 166.826 133.204 167.221C124.195 168.79 115.041 169.351 105.908 168.894C103.826 168.762 101.807 168.658 99.947 168.443C99.0171 168.345 98.1149 168.276 97.2543 168.158L94.7767 167.818C93.1944 167.631 91.7786 167.346 90.5364 167.124C89.2941 166.902 88.2184 166.694 87.3509 166.492L85.3522 166.048L84.8317 165.923C84.7715 165.913 84.713 165.895 84.6582 165.868C84.7206 165.863 84.7832 165.863 84.8456 165.868L85.3661 165.958L87.3787 166.34C88.2531 166.513 89.3219 166.715 90.5711 166.902C91.8203 167.089 93.2291 167.36 94.8114 167.533L97.2821 167.846C98.1426 167.957 99.0448 168.019 99.9748 168.11C101.828 168.311 103.826 168.401 105.922 168.526C110.121 168.699 114.736 168.706 119.58 168.422C124.424 168.137 128.998 167.533 133.141 166.853C135.223 166.472 137.18 166.159 138.998 165.715C139.908 165.507 140.796 165.333 141.636 165.125L144.051 164.508C145.598 164.14 146.966 163.71 148.18 163.363C149.395 163.016 150.436 162.669 151.275 162.412L153.225 161.787L153.739 161.634L153.919 161.621Z" fill="#119B2F"/>
</g>
<defs>
<clipPath id="clip0_3_2">
<rect width="307" height="291" fill="white"/>
</clipPath>
</defs>
</svg>
