<svg width="1440" height="787" viewBox="0 0 1440 787" fill="none" xmlns="http://www.w3.org/2000/svg">
<g clip-path="url(#clip0_216_38)">
<rect width="1440" height="787" fill="white"/>
<circle cx="15.0901" cy="704.937" r="154.328" fill="#28BCFC"/>
<circle cx="486.966" cy="-33.2657" r="154.328" transform="rotate(120 486.966 -33.2657)" fill="#001E88"/>
<path d="M-125.934 563.913C-105.128 543.107 -79.9758 527.163 -52.2814 517.223C-24.5871 507.283 4.96347 503.595 34.2514 506.422C63.5393 509.249 91.8388 518.521 117.121 533.574C142.403 548.627 164.041 569.088 180.483 593.489C196.926 617.89 207.765 645.627 212.225 674.711C216.684 703.796 214.653 733.506 206.276 761.713C197.9 789.919 183.386 815.923 163.775 837.859C144.165 859.795 119.943 877.12 92.8477 888.592L84.6183 869.155C108.846 858.897 130.504 843.406 148.039 823.791C165.574 804.177 178.552 780.925 186.042 755.704C193.532 730.482 195.348 703.916 191.361 677.91C187.374 651.904 177.681 627.103 162.979 605.284C148.277 583.465 128.929 565.17 106.322 551.71C83.7162 538.25 58.4117 529.959 32.2235 527.432C6.03525 524.904 -20.3878 528.202 -45.1512 537.09C-69.9144 545.977 -92.4044 560.234 -111.008 578.838L-125.934 563.913Z" fill="#001E88"/>
<path d="M679.608 -84.884C687.224 -56.4626 688.456 -26.7082 683.217 2.24563C677.978 31.1995 666.397 58.6353 649.305 82.5859C632.213 106.537 610.033 126.408 584.355 140.777C558.678 155.145 530.14 163.654 500.786 165.693C471.433 167.732 441.992 163.251 414.575 152.57C387.158 141.89 362.443 125.276 342.204 103.918C321.965 82.5609 306.702 56.9897 297.51 29.0383C288.318 1.08692 285.424 -28.5521 289.037 -57.7535L309.985 -55.1618C306.754 -29.051 309.342 -2.54879 317.561 22.4444C325.78 47.4375 339.427 70.3024 357.525 89.3994C375.622 108.496 397.721 123.353 422.237 132.902C446.752 142.452 473.077 146.459 499.324 144.636C525.57 142.813 551.088 135.205 574.048 122.357C597.008 109.509 616.84 91.7406 632.124 70.3248C647.407 48.909 657.762 24.3768 662.447 -1.51272C667.131 -27.4022 666.029 -54.0076 659.22 -79.421L679.608 -84.884Z" fill="#26D64C"/>
<path d="M1508.21 426.582C1477.9 437.616 1445.36 441.131 1413.38 436.825C1381.41 432.52 1350.96 420.522 1324.64 401.861C1298.32 383.2 1276.93 358.434 1262.29 329.686C1247.64 300.938 1240.19 269.068 1240.58 236.809C1240.96 204.549 1249.16 172.864 1264.48 144.471C1279.8 116.079 1301.78 91.8263 1328.53 73.7944C1355.28 55.7625 1386.01 44.4895 1418.07 40.9426C1450.14 37.3957 1482.59 41.6808 1512.63 53.4302L1504.95 73.0881C1478.08 62.5823 1449.07 58.7507 1420.39 61.9222C1391.72 65.0937 1364.25 75.1736 1340.33 91.2971C1316.41 107.421 1296.75 129.106 1283.06 154.494C1269.36 179.882 1262.02 208.213 1261.68 237.059C1261.34 265.904 1268 294.401 1281.09 320.107C1294.19 345.812 1313.32 367.957 1336.85 384.643C1360.38 401.329 1387.61 412.057 1416.2 415.907C1444.79 419.757 1473.89 416.614 1500.99 406.747L1508.21 426.582Z" fill="#FF9354"/>
<circle cx="1440" cy="239.172" r="154.328" fill="#26D64C"/>
</g>
<defs>
<clipPath id="clip0_216_38">
<rect width="1440" height="787" fill="white"/>
</clipPath>
</defs>
</svg>
