<svg width="307" height="291" viewBox="0 0 307 291" fill="none" xmlns="http://www.w3.org/2000/svg">
<path d="M231.679 69.1525H230.237V25.3511C230.237 18.6276 227.827 12.1794 223.538 7.42517C219.249 2.67091 213.431 0 207.365 0H123.641C117.575 0 111.758 2.67091 107.468 7.42517C103.179 12.1794 100.769 18.6276 100.769 25.3511V265.649C100.769 272.372 103.179 278.821 107.468 283.575C111.758 288.329 117.575 291 123.641 291H207.365C213.431 291 219.249 288.329 223.538 283.575C227.827 278.821 230.237 272.372 230.237 265.649V100.331H231.679V69.1525Z" fill="#001E88"/>
<path d="M307 289.928H0V290.799H307V289.928Z" fill="#E6E6E6"/>
<path d="M208.274 6.27623H197.345C197.848 7.64196 198.039 9.12371 197.904 10.591C197.768 12.0582 197.309 13.4659 196.566 14.6901C195.824 15.9143 194.822 16.9173 193.647 17.611C192.473 18.3046 191.163 18.6675 189.832 18.6676H141.868C140.537 18.6674 139.227 18.3045 138.052 17.6109C136.878 16.9172 135.876 15.9141 135.134 14.6899C134.391 13.4657 133.932 12.058 133.796 10.5908C133.661 9.12359 133.853 7.64189 134.355 6.27623H124.148C119.618 6.27623 115.273 8.27084 112.07 11.8213C108.867 15.3717 107.067 20.1871 107.067 25.2082V265.154C107.068 270.175 108.867 274.99 112.071 278.541C115.274 282.091 119.618 284.085 124.148 284.085H208.274C210.517 284.086 212.738 283.596 214.811 282.645C216.883 281.694 218.766 280.299 220.352 278.541C221.938 276.783 223.197 274.696 224.055 272.4C224.914 270.103 225.356 267.641 225.356 265.155V25.2082C225.356 20.1871 223.556 15.3717 220.353 11.8213C217.15 8.27084 212.805 6.27623 208.275 6.27623H208.274Z" fill="#F8FDFF"/>
<path fill-rule="evenodd" clip-rule="evenodd" d="M193.619 100.308V69.5139H198.533H203.446V100.465V105.088L202.823 109.163L201.647 114.178L200.332 118.252L198.394 122.719L196.872 125.305L195.003 128.36L193.066 130.711L190.713 133.454L187.322 136.588L183.585 139.409L179.364 141.76L175.419 143.248L174.035 143.797L172.236 144.267L169.399 144.737L166.008 145.051H160.403L154.521 144.11L150.092 142.622L142.826 138.547L136.667 133.062L132.238 127.655L128.847 121.935L126.01 114.334L124.28 105.793L124.072 97.1577H133.968L134.868 108.458L136.39 113.786L138.743 118.644L141.373 122.484L143.795 125.305L147.116 128.047L149.261 129.928L154.521 126.245L159.711 124.129L163.309 123.816H166.216L170.852 125.305L173.759 126.793L176.457 128.674L178.049 129.928L182.34 127.107L186.076 122.954L189.398 117.39L191.682 112.14L193.273 105.95L193.619 100.308Z" fill="#26D64C"/>
<path d="M203.446 69.5139H198.533H193.619H188.222L198.533 48.8151L208.617 69.5139H203.446Z" fill="#26D64C"/>
<path d="M138.12 85.4988L138.673 80.9541L139.919 81.9727L140.819 82.6779L143.517 84.01C144.463 84.2712 146.369 84.8093 146.424 84.872C146.479 84.9346 148.523 85.1593 149.538 85.2637L151.96 85.7339L154.52 86.5958L156.32 87.7712L157.911 89.3383L158.811 90.9055L159.641 92.7077L160.472 95.2152L160.818 98.0361L160.61 100.387L159.641 102.738L158.742 104.305L157.634 102.973L156.043 101.17L154.244 99.5249L152.237 97.801L151.199 97.4092L151.545 98.1928L152.721 99.6032L154.451 101.641L156.043 103.756L157.288 105.793L158.534 107.831L160.264 110.965L160.748 112.14L161.44 113.708L162.202 115.196L162.686 116.685L163.447 118.409L164.07 117.312L164.693 115.823L165.316 114.648L166.077 113.159L166.838 112.219L167.53 111.2L168.222 109.868L169.191 109.241L170.644 107.674L171.613 106.185L170.506 106.264L169.468 106.89L168.361 107.674L167.53 108.614L166.354 109.633L166.077 109.241L165.593 107.282L165.385 106.029L165.316 104.461L165.385 103.835L165.523 103.443L166.077 101.797L167.046 100.152L167.738 99.1331L169.26 97.7226L170.575 96.8607L172.582 95.6853L174.381 94.9801L177.011 94.0398L179.433 93.7264L181.855 93.3346L183.723 93.1779V93.5697C183.7 93.857 183.654 94.4629 183.654 94.5883C183.654 94.7137 183.469 95.2152 183.377 95.4503L183.17 96.704L182.824 98.898V102.346L182.616 104.461L182.27 106.969L181.163 109.241L179.986 110.573L177.841 112.14L175.004 113.316L171.336 113.943L170.021 114.021L168.015 113.786L166.631 116.293L165.523 119.898L164.901 122.014H161.856L161.648 121.308L161.371 119.741L160.818 117.861L159.987 115.667L159.226 113.473L158.326 111.592L157.773 110.182L156.942 108.693L155.974 107.439L154.728 107.831L152.444 107.987L149.953 108.066L147.877 107.831L146.493 107.674L144.486 106.655L143.448 106.107L142.341 105.245L141.095 103.835L139.573 101.17L138.327 97.0174L137.774 92.7861V89.0249L138.12 85.4988Z" fill="#26D64C"/>
<rect x="119.034" y="182.011" width="94.4713" height="21.6181" rx="10.8091" fill="#28BCFC"/>
<rect x="119.034" y="215.484" width="94.4713" height="21.6181" rx="10.8091" fill="#28BCFC"/>
</svg>
