<svg width="586" height="586" viewBox="0 0 586 586" fill="none" xmlns="http://www.w3.org/2000/svg">
<path d="M581.998 491.523L513.626 422.792C511.116 420.282 507.41 419.087 503.705 419.087L451.231 425.064C490.676 379.761 514.821 320.713 514.821 256.524C514.821 115.238 399.234 0.129883 257.47 0.129883C115.706 0.129883 0 116.434 0 257.72C0 399.006 115.587 514.114 257.351 514.114C320.941 514.114 379.631 490.328 424.934 451.121L418.957 502.878C418.957 506.584 420.152 510.409 422.663 512.919L491.034 581.649C498.206 589.419 510.996 586.431 512.191 572.924L518.407 517.939L574.348 511.724C584.269 510.648 589.887 499.292 581.998 491.523ZM24.8625 257.72C24.8625 128.865 129.333 25.1119 257.351 25.1119C385.369 25.1119 489.839 128.865 489.839 257.72C489.839 317.007 467.726 370.916 431.388 411.915L389.791 370.318C415.73 339.838 431.508 300.153 431.508 256.524C431.508 160.182 353.215 81.4111 257.47 81.4111C161.726 81.4111 83.3133 160.182 83.3133 256.524C83.3133 352.867 161.606 431.638 257.351 431.638C301.338 431.638 341.74 415.262 372.459 388.009L414.056 429.606C372.699 467.378 317.595 490.328 257.351 490.328C129.333 490.328 24.8625 386.574 24.8625 257.72ZM332.895 313.421C344.728 297.763 351.9 278.518 351.9 257.72C351.9 206.441 309.586 163.888 257.351 163.888C205.116 163.888 162.802 206.441 162.802 257.72C162.802 308.999 205.116 351.552 257.351 351.552C278.986 351.552 299.306 343.782 315.563 331.112L355.725 371.274C329.428 393.985 295.003 407.851 257.351 407.851C174.038 407.851 106.861 340.316 106.861 257.839C106.861 175.363 174.038 107.828 257.351 107.828C339.469 107.828 406.526 175.363 407.841 257.839C407.841 294.177 394.812 327.646 373.057 353.703L332.895 313.421ZM283.528 263.935C278.508 258.915 271.097 258.915 266.077 263.935C261.056 268.956 261.056 276.486 266.077 281.387L298.709 314.019C287.114 322.625 272.89 327.646 257.351 327.646C218.862 327.646 187.664 296.328 187.664 257.6C187.664 218.872 218.742 187.555 257.351 187.555C295.959 187.555 327.038 218.872 327.038 257.6C327.038 271.824 322.854 284.973 315.682 295.97L283.528 263.935ZM443.939 499.053L447.525 462.955L494.501 509.931L491.154 545.312L443.939 499.053ZM512.909 493.435L466.77 447.296L498.684 444.069L545.899 490.328L512.909 493.435Z" fill="#26D64C"/>
</svg>
