<svg width="359" height="216" viewBox="0 0 359 216" fill="none" xmlns="http://www.w3.org/2000/svg">
<path d="M113.511 16.3378C112.432 16.6014 111.42 17.0914 110.543 17.7757C110.242 18.0167 109.907 18.2122 109.55 18.3562L105.703 2.50218C105.562 1.94946 105.21 1.47492 104.724 1.18131C104.237 0.887712 103.655 0.798685 103.104 0.933512L86.6777 4.95452L87.1351 6.82646C87.2411 7.25894 87.4281 7.66711 87.6861 8.02911C88.2255 8.77362 88.614 9.61753 88.8297 10.5128C89.0855 11.5611 89.1041 12.6538 88.8841 13.7102C88.6641 14.7667 88.2111 15.76 87.5585 16.6169C86.9059 17.4737 86.0704 18.1723 85.1137 18.661C84.1569 19.1497 83.1032 19.4161 82.0304 19.4406C80.9577 19.465 79.8931 19.2469 78.9153 18.8023C77.9375 18.3576 77.0714 17.6979 76.3809 16.8716C75.6904 16.0454 75.1931 15.0738 74.9258 14.0284C74.6584 12.983 74.6278 11.8906 74.8361 10.8318C74.952 10.3154 74.952 9.77951 74.8361 9.26312L74.5138 7.97159L57.8795 12.0187C57.5405 12.1021 57.2212 12.2518 56.9397 12.4593C56.6583 12.6668 56.4203 12.9281 56.2392 13.2282C56.0582 13.5283 55.9377 13.8613 55.8847 14.2083C55.8317 14.5552 55.8471 14.9093 55.9302 15.2502L59.5118 29.9329L58.3785 30.2153L57.9835 30.2989C56.5295 29.7 54.9419 29.5064 53.3877 29.7386C51.8336 29.9709 50.3705 30.6203 49.1524 31.6186C47.9343 32.6169 47.0064 33.9271 46.4662 35.4112C45.9261 36.8953 45.7937 38.4985 46.0831 40.0519C46.3725 41.6053 47.0729 43.0515 48.1106 44.2382C49.1483 45.4249 50.4849 46.3082 51.9796 46.7952C53.4744 47.2821 55.072 47.3546 56.6043 47.0051C58.1366 46.6556 59.5468 45.8969 60.6866 44.8091C60.8992 44.7041 61.1222 44.6217 61.3519 44.5633L62.8074 44.2078L66.8101 60.616C66.9785 61.3037 67.4115 61.8959 68.0139 62.2626C68.6163 62.6293 69.3388 62.7405 70.0226 62.5716L115.398 51.3713C115.951 51.2338 116.429 50.882 116.725 50.3923C117.022 49.9027 117.115 49.3149 116.983 48.7569L112.908 32.0245C113.207 32.0239 113.505 32.0572 113.797 32.1238C115.433 32.4682 117.135 32.2852 118.662 31.6009C120.457 30.7531 121.878 29.27 122.654 27.4349C123.43 25.5998 123.507 23.5414 122.869 21.653C122.232 19.7647 120.925 18.1787 119.199 17.1982C117.473 16.2177 115.448 15.9114 113.511 16.3378Z" fill="#001E88"/>
<path d="M315.545 103.984C316.18 104.284 316.871 104.444 317.572 104.455C317.808 104.458 318.042 104.493 318.269 104.56L313.964 113.888C313.812 114.218 313.796 114.595 313.92 114.938C314.043 115.28 314.297 115.558 314.625 115.713L324.278 120.22L324.798 119.117C324.917 118.865 324.984 118.591 324.995 118.311C325.034 117.553 325.262 116.817 325.657 116.17C326.052 115.524 326.602 114.987 327.257 114.608C327.911 114.23 328.649 114.023 329.404 114.006C330.158 113.989 330.905 114.162 331.576 114.51C332.559 115.027 333.32 115.887 333.718 116.929C334.115 117.97 334.12 119.122 333.733 120.168C333.462 120.89 333.009 121.53 332.418 122.024C332.163 122.234 331.957 122.498 331.815 122.798L331.462 123.572L341.224 128.168C341.423 128.261 341.639 128.314 341.859 128.324C342.078 128.334 342.298 128.3 342.504 128.224C342.711 128.148 342.901 128.032 343.063 127.883C343.225 127.733 343.356 127.553 343.449 127.352L347.451 118.704L348.117 119.017C348.195 119.05 348.272 119.089 348.345 119.132C348.826 120.002 349.532 120.726 350.387 121.227C351.242 121.727 352.216 121.987 353.205 121.978C354.195 121.969 355.164 121.692 356.01 121.176C356.856 120.66 357.549 119.924 358.014 119.046C358.48 118.168 358.701 117.179 358.655 116.185C358.61 115.191 358.298 114.227 357.754 113.396C357.21 112.564 356.453 111.896 355.563 111.461C354.673 111.026 353.683 110.84 352.696 110.923C352.55 110.891 352.407 110.844 352.27 110.782L351.418 110.379L355.878 100.722C356.062 100.316 356.08 99.8528 355.927 99.4337C355.774 99.0147 355.463 98.6732 355.062 98.4835L328.343 86.0074C328.015 85.854 327.639 85.8378 327.299 85.9623C326.959 86.0868 326.682 86.3418 326.529 86.6715L321.99 96.507C321.843 96.3876 321.709 96.2526 321.59 96.1044C320.923 95.2808 320.013 94.6914 318.991 94.4207C317.764 94.0905 316.459 94.2346 315.333 94.8245C314.206 95.4144 313.341 96.4074 312.906 97.6077C312.472 98.808 312.5 100.129 312.985 101.309C313.471 102.489 314.378 103.444 315.529 103.984H315.545Z" fill="#001E88"/>
<path d="M331.878 208.463C332.293 208.1 332.626 207.653 332.856 207.15C332.932 206.98 333.032 206.822 333.152 206.68L338.433 212.745C338.524 212.855 338.635 212.945 338.761 213.009C338.887 213.074 339.025 213.112 339.166 213.121C339.307 213.131 339.448 213.111 339.582 213.063C339.715 213.016 339.837 212.941 339.941 212.845L346.22 207.323L345.596 206.607C345.45 206.44 345.274 206.304 345.077 206.204C344.626 205.967 344.232 205.635 343.92 205.231C343.608 204.828 343.387 204.361 343.271 203.863C343.154 203.365 343.146 202.848 343.246 202.347C343.346 201.846 343.552 201.372 343.851 200.958C344.149 200.544 344.532 200.2 344.975 199.948C345.418 199.697 345.909 199.544 346.415 199.5C346.922 199.457 347.431 199.523 347.91 199.696C348.389 199.868 348.825 200.142 349.188 200.499C349.616 200.923 349.927 201.451 350.093 202.031C350.162 202.282 350.287 202.514 350.457 202.711L350.893 203.234L357.266 197.655C357.396 197.541 357.503 197.402 357.579 197.247C357.656 197.092 357.701 196.923 357.713 196.75C357.724 196.577 357.702 196.404 357.647 196.239C357.592 196.075 357.505 195.924 357.391 195.793L352.5 190.162L352.936 189.78L353.087 189.654C353.765 189.592 354.418 189.37 354.994 189.005C355.57 188.64 356.052 188.144 356.401 187.556C356.749 186.968 356.955 186.305 357 185.622C357.046 184.939 356.93 184.255 356.662 183.626C356.395 182.996 355.983 182.44 355.461 182.001C354.938 181.562 354.32 181.254 353.657 181.101C352.993 180.949 352.303 180.957 351.643 181.124C350.983 181.29 350.372 181.612 349.859 182.062C349.291 182.558 348.864 183.197 348.622 183.913C348.552 184.007 348.472 184.093 348.383 184.169L347.827 184.661L342.363 178.386C342.133 178.123 341.809 177.963 341.461 177.939C341.113 177.916 340.771 178.031 340.507 178.261L323.14 193.555C322.928 193.744 322.798 194.009 322.78 194.293C322.761 194.577 322.855 194.857 323.041 195.072L328.598 201.44C328.465 201.508 328.326 201.563 328.182 201.602C327.386 201.82 326.678 202.285 326.16 202.931C325.535 203.71 325.222 204.698 325.285 205.698C325.347 206.698 325.78 207.638 326.499 208.333C327.217 209.028 328.167 209.426 329.163 209.45C330.159 209.474 331.128 209.122 331.878 208.463Z" fill="#001E88" fill-opacity="0.41"/>
<path d="M269.968 27.6532C269.122 27.4177 268.237 27.3624 267.369 27.4911C267.076 27.5328 266.778 27.5328 266.485 27.4911L269.906 15.0934C270.021 14.6573 269.96 14.1933 269.737 13.8018C269.514 13.4104 269.147 13.1229 268.715 13.0018L255.891 9.42005L255.486 10.8841C255.392 11.2242 255.365 11.5796 255.408 11.9299C255.512 12.8666 255.383 13.8146 255.032 14.6887C254.681 15.5627 254.12 16.3353 253.399 16.9368C252.677 17.5384 251.819 17.9501 250.9 18.1349C249.981 18.3196 249.031 18.2716 248.135 17.9952C247.239 17.7188 246.426 17.2226 245.768 16.5514C245.11 15.8801 244.629 15.0549 244.367 14.1499C244.105 13.2449 244.071 12.2886 244.268 11.3671C244.465 10.4457 244.886 9.58787 245.495 8.87102C245.768 8.56029 245.968 8.19233 246.082 7.79387L246.363 6.74809L233.367 3.08787C233.101 3.00854 232.822 2.98363 232.546 3.01463C232.27 3.04563 232.003 3.13191 231.761 3.26837C231.518 3.40483 231.306 3.58871 231.135 3.80917C230.965 4.02962 230.84 4.28219 230.768 4.55196L227.582 16.0555L226.698 15.8097L226.397 15.7104C225.627 14.7323 224.609 13.9813 223.45 13.5365C222.291 13.0917 221.035 12.9696 219.813 13.1831C218.591 13.3966 217.449 13.9378 216.507 14.7496C215.565 15.5613 214.859 16.6137 214.462 17.7956C214.065 18.9775 213.993 20.2453 214.252 21.4652C214.512 22.6851 215.094 23.812 215.937 24.727C216.78 25.6421 217.852 26.3114 219.042 26.6644C220.231 27.0175 221.494 27.0411 222.695 26.7329C222.881 26.7446 223.066 26.7744 223.246 26.8218L224.385 27.1407L220.845 39.9776C220.766 40.2454 220.741 40.5264 220.772 40.804C220.803 41.0815 220.889 41.3501 221.024 41.5937C221.16 41.8374 221.343 42.0513 221.562 42.2228C221.781 42.3942 222.032 42.5198 222.3 42.5921L257.789 52.5008C258.221 52.6166 258.682 52.5565 259.071 52.3334C259.46 52.1103 259.746 51.7422 259.868 51.3086L263.475 38.2364C263.679 38.3532 263.87 38.4898 264.047 38.6443C265.029 39.5324 266.268 40.082 267.582 40.2129C269.162 40.3659 270.742 39.9183 272.01 38.9583C273.278 37.9983 274.143 36.5954 274.435 35.0259C274.726 33.4564 274.423 31.834 273.585 30.4782C272.747 29.1223 271.434 28.1313 269.906 27.7002L269.968 27.6532Z" fill="#001E88" fill-opacity="0.41"/>
<path d="M4.43697 161.178C5.20659 161.468 6.02864 161.591 6.84894 161.539C7.12749 161.521 7.40712 161.54 7.68066 161.596L3.50648 172.932C3.43142 173.132 3.39621 173.344 3.40289 173.557C3.40957 173.77 3.458 173.98 3.5454 174.175C3.6328 174.369 3.75747 174.544 3.91224 174.69C4.06702 174.835 4.24887 174.949 4.44736 175.024L16.1642 179.411L16.658 178.072C16.7719 177.763 16.8248 177.435 16.8139 177.105C16.789 176.218 16.984 175.339 17.3812 174.547C17.7785 173.755 18.3655 173.075 19.0894 172.568C19.8132 172.061 20.6511 171.744 21.5275 171.644C22.4038 171.544 23.2911 171.666 24.1092 171.997C24.9273 172.329 25.6504 172.86 26.2135 173.542C26.7765 174.225 27.1617 175.038 27.3343 175.908C27.5069 176.778 27.4614 177.678 27.202 178.526C26.9426 179.374 26.4774 180.143 25.8484 180.765C25.5676 181.034 25.3508 181.363 25.2143 181.727L24.866 182.663L36.7179 187.15C37.2067 187.333 37.7477 187.313 38.2222 187.096C38.6968 186.878 39.0662 186.48 39.2495 185.989L43.1481 175.489L43.9591 175.793C44.0526 175.824 44.141 175.86 44.2346 175.902C44.8785 176.876 45.7717 177.658 46.82 178.164C47.8683 178.671 49.033 178.883 50.1914 178.78C51.3497 178.676 52.4589 178.261 53.4021 177.576C54.3453 176.892 55.0876 175.964 55.5508 174.891C56.014 173.818 56.181 172.64 56.0342 171.479C55.8873 170.319 55.4321 169.22 54.7164 168.298C54.0008 167.376 53.0512 166.665 51.9676 166.24C50.8841 165.815 49.7067 165.692 48.5595 165.884C48.3823 165.861 48.208 165.819 48.0397 165.758L47 165.366L51.3301 153.638C51.5118 153.147 51.4924 152.603 51.276 152.127C51.0596 151.65 50.664 151.28 50.1761 151.096L17.7756 138.95C17.5774 138.874 17.3661 138.838 17.154 138.844C16.9419 138.85 16.7331 138.899 16.5398 138.987C16.3465 139.075 16.1724 139.201 16.0276 139.357C15.8828 139.513 15.7702 139.696 15.6963 139.896L11.3038 151.834C11.1163 151.707 10.9421 151.562 10.784 151.4C9.93449 150.502 8.82457 149.898 7.61308 149.674C6.15919 149.43 4.66684 149.735 3.4236 150.532C2.18035 151.329 1.2742 152.56 0.87975 153.989C0.485298 155.417 0.63046 156.942 1.28726 158.27C1.94407 159.597 3.06603 160.633 4.43697 161.178Z" fill="#001E88" fill-opacity="0.41"/>
<path d="M185.445 144.163C185.445 144.163 187.197 143.259 188.741 143.599C190.285 143.938 195.889 147.614 195.889 147.614L200.406 146.767L203.088 159.609L185.445 166.961V144.163Z" fill="#AE7461"/>
<path d="M172.45 148.629C172.45 148.629 176.489 148.106 177.95 147.379C179.41 146.652 182.898 143.53 183.626 143.588C184.354 143.645 187.005 144.153 187.005 144.153L185.934 147.379C185.934 147.379 191.221 150.605 192.796 151.792C194.371 152.979 199.319 158.297 199.553 159.599C199.787 160.901 199.387 162.428 198.768 162.935C198.15 163.442 195.899 162.412 195.899 162.412C195.985 162.813 195.984 163.228 195.894 163.628C195.804 164.028 195.628 164.404 195.379 164.728C194.537 165.863 192.572 165.466 192.572 165.466C192.572 165.466 192.401 167.332 191.501 167.672C190.602 168.012 188.575 166.992 188.575 166.992C188.575 166.992 187.967 168.561 187.234 168.744C186.501 168.927 184.416 167.698 184.416 167.698C184.416 167.698 175.418 161.194 173.396 160.231C171.374 159.269 170.75 159.212 170.75 159.212L172.45 148.629Z" fill="#FFBE9D"/>
<path d="M188.565 167.019C188.528 167.019 188.502 166.862 188.409 166.621C188.279 166.309 188.126 166.006 187.951 165.717C187.665 165.321 187.433 164.888 187.26 164.43C187.654 164.736 187.973 165.13 188.19 165.581C188.373 165.888 188.507 166.221 188.591 166.569C188.637 166.846 188.596 167.024 188.565 167.019Z" fill="#DD946D"/>
<path d="M192.301 165.921C191.882 165.378 191.502 164.807 191.163 164.211C190.549 163.27 189.889 162.642 189.936 162.579C190.542 162.935 191.044 163.445 191.391 164.059C191.808 164.617 192.116 165.248 192.301 165.921Z" fill="#DD946D"/>
<path d="M195.909 162.653C195.831 162.653 195.582 161.696 194.958 160.639C194.334 159.583 193.622 158.877 193.679 158.82C194.293 159.27 194.807 159.843 195.191 160.502C195.575 161.162 195.819 161.894 195.909 162.653Z" fill="#DD946D"/>
<path d="M193.273 155.594C193.629 156.573 193.676 157.639 193.408 158.647C193.315 158.144 193.281 157.632 193.304 157.12C193.239 156.614 193.229 156.102 193.273 155.594Z" fill="#DD946D"/>
<path d="M180.186 150.501C180.186 150.501 181.589 145.978 182.093 145.408C182.598 144.838 187.292 143.598 187.292 143.598L188.752 147.389L187.713 148.498L185.462 148.351C185.462 148.351 184.063 152.085 180.186 150.501Z" fill="#AE7461"/>
<path d="M171.556 159.452C171.556 159.452 170.911 159.949 171.556 161.136C172.201 162.323 173.942 161.476 174.503 161.136C174.503 161.136 173.661 163.118 174.727 163.751C175.455 164.129 176.277 164.286 177.092 164.2C177.092 164.2 177.035 165.387 178.553 166.182C180.071 166.977 180.466 166.182 180.466 166.182C180.466 166.182 180.632 168.158 182.374 168.331C184.115 168.504 184.734 167.897 184.734 167.897L183.949 166.726C183.949 166.726 184.962 164.634 184.177 163.751C183.906 163.478 183.581 163.266 183.222 163.129C182.864 162.992 182.481 162.933 182.098 162.956C182.098 162.956 182.446 161.12 181.443 160.608C181.219 160.468 180.968 160.377 180.706 160.343C180.445 160.309 180.179 160.331 179.926 160.409C179.674 160.487 179.442 160.618 179.244 160.794C179.047 160.97 178.889 161.186 178.782 161.429C178.782 161.429 178.667 159.416 177.222 159.463C176.378 159.473 175.571 159.812 174.971 160.409L171.556 159.452Z" fill="#AE7461"/>
<path d="M178.776 161.418C178.652 161.961 178.424 162.474 178.106 162.93C177.864 163.427 177.53 163.875 177.123 164.247C177.304 163.729 177.556 163.238 177.872 162.788C178.11 162.293 178.414 161.832 178.776 161.418Z" fill="#6F4439"/>
<path d="M182.128 163.202C181.993 163.775 181.732 164.311 181.364 164.77C181.07 165.28 180.669 165.719 180.189 166.057C180.811 165.09 181.458 164.14 182.128 163.207V163.202Z" fill="#6F4439"/>
<path d="M147.296 184.546H138.765L136.582 215.752H145.138C146.594 210.999 150.233 186.235 150.233 186.235L147.296 184.546Z" fill="black"/>
<path d="M98.9891 184.546C98.9891 184.546 93.5257 197.425 94.0715 202.638C94.6174 207.851 97.6843 215.752 97.6843 215.752H139.935C140.828 212.196 141.522 208.593 142.015 204.959C142.93 198.517 145.383 184.567 145.383 184.567L98.9891 184.546Z" fill="black"/>
<path d="M154.817 60.2606C153.387 58.4462 151.625 56.705 151.261 54.42C150.923 52.3284 151.838 50.0277 150.902 48.1453C149.748 45.7975 146.442 45.3426 145.008 43.1622C144.316 42.1164 144.15 40.7674 143.448 39.7059C142.284 37.8967 139.882 37.3163 137.73 37.4365C135.578 37.5568 133.53 38.2261 131.383 38.2993C128.441 38.3621 125.462 37.2535 122.608 37.9594C119.458 38.7385 117.41 41.4105 115.274 43.9883L112.488 46.9636C111.925 47.4729 111.314 47.9248 110.663 48.3126C109.519 48.9767 108.23 49.4107 107.232 50.2839C105.096 52.1506 105.085 55.9416 107.232 57.8187C106.09 58.1534 105.084 58.8482 104.364 59.8008C103.643 60.7534 103.245 61.9135 103.229 63.1104C103.229 64.4228 103.749 65.6778 104.051 66.9484C104.352 68.219 104.571 69.6256 103.973 70.8021C103.375 71.9786 101.826 72.7263 100.719 72.0309C100.886 72.89 101.242 73.7008 101.76 74.4044C102.278 75.108 102.945 75.6869 103.713 76.0989C103.061 76.7045 102.204 77.0374 101.317 77.0297C103.427 82.7814 109.753 86.0286 115.82 86.3528C121.886 86.677 127.807 84.6377 133.546 82.6298L150.091 79.1421C151.542 78.8807 152.223 77.1552 152.27 75.6702C152.316 74.1852 152.02 72.6322 152.613 71.2727C153.418 69.4112 155.659 68.5118 156.501 66.6608C157.437 64.5379 156.241 62.0855 154.817 60.2606Z" fill="black"/>
<path d="M115.446 73.4215C114.438 69.6515 113.445 65.8553 113.097 61.965C112.749 58.0747 113.097 54.0589 114.604 50.4615C114.838 49.9386 116.777 46.2784 117.359 46.3777C117.775 46.4405 116.522 49.8549 116.715 50.2314C118.555 53.8184 118.888 58.0381 118.357 62.0435C117.81 65.9297 116.834 69.7424 115.446 73.4111" fill="black"/>
<path d="M115.825 58.5245C116.007 48.7308 121.829 40.6783 131.555 41.1384L132.449 41.2325C136.801 41.6888 140.823 43.7777 143.713 47.083C146.603 50.3884 148.149 54.6677 148.043 59.0683C147.835 67.5547 147.523 76.9301 146.972 81.4374C145.876 90.771 136.43 91.2416 136.43 91.2416L136.176 106.656L114.062 91.2468L115.825 58.5245Z" fill="#FFBE9D"/>
<path d="M136.416 91.2416C132.127 90.7742 128.062 89.0813 124.699 86.363C124.699 86.363 126.877 94.2586 136.234 94.3998L136.416 91.2416Z" fill="#DD946D"/>
<path d="M144.81 66.3155C144.776 66.6638 144.608 66.9848 144.342 67.2104C144.076 67.436 143.733 67.5483 143.386 67.5234C143.216 67.5195 143.048 67.4811 142.893 67.4106C142.738 67.3401 142.598 67.2389 142.483 67.113C142.367 66.9871 142.278 66.8391 142.221 66.6778C142.163 66.5166 142.139 66.3453 142.149 66.1744C142.182 65.8261 142.348 65.5046 142.613 65.2781C142.878 65.0515 143.221 64.9379 143.568 64.9613C143.738 64.9666 143.906 65.0061 144.061 65.0773C144.216 65.1486 144.356 65.2502 144.471 65.3763C144.587 65.5024 144.676 65.6504 144.735 65.8116C144.793 65.9729 144.818 66.1442 144.81 66.3155Z" fill="black"/>
<path d="M145.637 62.739C145.455 62.8959 144.53 62.0384 143.101 61.892C141.671 61.7456 140.548 62.3521 140.413 62.1586C140.345 62.075 140.548 61.7769 141.037 61.4893C141.701 61.1274 142.459 60.9778 143.21 61.0606C143.953 61.1359 144.653 61.4493 145.206 61.9547C145.611 62.3521 145.726 62.6711 145.637 62.739Z" fill="black"/>
<path d="M131.904 66.3155C131.87 66.6633 131.704 66.9844 131.438 67.2101C131.173 67.4357 130.831 67.5482 130.484 67.5234C130.314 67.5194 130.146 67.4811 129.991 67.4107C129.835 67.3402 129.695 67.2391 129.579 67.1133C129.464 66.9875 129.374 66.8395 129.316 66.6782C129.258 66.517 129.233 66.3456 129.242 66.1744C129.275 65.8261 129.442 65.5046 129.707 65.2781C129.972 65.0515 130.314 64.9379 130.661 64.9613C130.832 64.9666 130.999 65.0061 131.154 65.0773C131.31 65.1486 131.449 65.2502 131.565 65.3763C131.68 65.5024 131.77 65.6504 131.828 65.8116C131.886 65.9729 131.912 66.1442 131.904 66.3155Z" fill="black"/>
<path d="M131.593 61.8292C131.411 61.9861 130.48 61.1338 129.051 60.9874C127.621 60.841 126.503 61.4475 126.368 61.2541C126.301 61.1652 126.498 60.8724 126.992 60.5848C127.655 60.2202 128.414 60.0705 129.165 60.156C129.907 60.232 130.606 60.5433 131.161 61.0449C131.561 61.4371 131.681 61.7665 131.593 61.8292Z" fill="black"/>
<path d="M135.543 73.4164C135.543 73.3328 136.447 73.2753 137.903 73.2387C138.272 73.2387 138.626 73.2073 138.714 72.9615C138.783 72.5856 138.738 72.1973 138.584 71.8478C138.334 70.9205 138.073 69.9514 137.799 68.9405C136.718 64.8045 135.974 61.4214 136.141 61.3795C136.307 61.3377 137.321 64.6528 138.397 68.7889C138.657 69.8068 138.903 70.7793 139.135 71.7066C139.322 72.1721 139.337 72.6899 139.177 73.1654C139.111 73.2897 139.017 73.3971 138.904 73.4795C138.79 73.562 138.66 73.6173 138.522 73.6413C138.313 73.6691 138.101 73.6691 137.893 73.6413C136.453 73.589 135.543 73.5001 135.543 73.4164Z" fill="black"/>
<path d="M131.249 73.9654C131.483 73.9654 131.322 75.5341 132.533 76.7786C133.745 78.0231 135.413 78.0335 135.403 78.2531C135.403 78.3525 135.002 78.5146 134.301 78.4623C133.392 78.3763 132.543 77.973 131.899 77.3224C131.284 76.6941 130.934 75.8511 130.922 74.9694C130.932 74.3106 131.145 73.9445 131.249 73.9654Z" fill="black"/>
<path d="M132.123 55.9991C131.941 56.3755 130.537 56.0409 128.837 56.067C127.138 56.0932 125.719 56.4069 125.552 56.0304C125.474 55.8526 125.745 55.5075 126.332 55.1938C127.11 54.8079 127.965 54.6049 128.832 54.6004C129.699 54.5959 130.556 54.7899 131.338 55.1677C131.904 55.4814 132.206 55.8213 132.123 55.9991Z" fill="black"/>
<path d="M145.549 57.9023C145.263 58.2004 144.311 57.7559 143.131 57.6147C141.951 57.4735 140.927 57.6147 140.73 57.2382C140.647 57.0605 140.839 56.752 141.307 56.4905C141.933 56.1828 142.636 56.0683 143.327 56.1613C144.018 56.2544 144.666 56.5508 145.19 57.0134C145.575 57.4056 145.673 57.7559 145.549 57.9023Z" fill="black"/>
<path d="M115.858 65.5261C115.707 65.4425 109.672 62.9483 109.204 69.3589C108.736 75.7695 115.234 74.9015 115.27 74.7394C115.307 74.5773 115.858 65.5261 115.858 65.5261Z" fill="#FFBE9D"/>
<path d="M113.486 72.1667C113.486 72.1405 113.372 72.2347 113.18 72.3079C112.907 72.4 112.609 72.3832 112.348 72.2608C111.693 71.968 111.204 70.849 111.256 69.6882C111.281 69.14 111.426 68.6041 111.683 68.1195C111.757 67.9238 111.878 67.7492 112.035 67.6108C112.192 67.4723 112.379 67.3742 112.582 67.3247C112.712 67.3002 112.846 67.3224 112.961 67.3874C113.076 67.4524 113.164 67.5561 113.211 67.6803C113.284 67.8633 113.237 67.9888 113.268 68.0045C113.299 68.0202 113.414 67.9051 113.382 67.6385C113.358 67.4758 113.279 67.3264 113.159 67.2149C112.992 67.0694 112.776 66.9944 112.556 67.0058C112.29 67.0383 112.037 67.1391 111.821 67.2985C111.606 67.4578 111.434 67.6703 111.324 67.9156C111.014 68.4511 110.836 69.0535 110.804 69.6725C110.752 70.9693 111.324 72.2294 112.223 72.5641C112.392 72.6285 112.574 72.6535 112.754 72.6372C112.934 72.6209 113.108 72.5637 113.263 72.47C113.466 72.3183 113.507 72.1771 113.486 72.1667Z" fill="#DD946D"/>
<path d="M144.582 48.1765C145.653 47.6536 142.768 44.1084 140.309 42.7855C136.587 40.7881 130.802 39.3345 127.205 40.1136C122.869 41.0495 119.199 42.9528 116.808 46.7072C114.417 50.4615 113.331 54.9531 113.169 59.4081C113.117 60.7676 113.169 62.1899 113.814 63.3873C114.615 64.8619 116.268 65.8658 116.065 67.8162C116.016 68.168 116.037 68.5259 116.127 68.8695C116.216 69.2132 116.371 69.5357 116.585 69.8188C117.671 71.1418 119.184 70.0594 119.906 68.9299C121.466 66.5037 121.814 63.518 122.121 60.6474C122.339 58.6081 122.557 56.5218 122.121 54.5191C121.876 53.4315 121.44 52.3857 121.258 51.2877C121.132 50.7425 121.126 50.1763 121.239 49.6284C121.352 49.0804 121.582 48.5637 121.913 48.1137C122.08 47.9223 122.264 47.7473 122.464 47.5909C123.403 46.8681 124.517 46.4097 125.691 46.2627C126.865 46.1157 128.056 46.2853 129.144 46.7542C132.652 48.2654 138.661 50.5713 140.346 49.4523C142.763 47.8366 143.387 46.7229 143.387 46.7229L144.582 48.1765Z" fill="black"/>
<path d="M127.589 39.2613C131.171 38.3097 135.158 38.6287 138.329 40.5529C140.008 41.5987 141.489 43.1307 141.9 45.0654C142.311 47.0001 141.354 49.2799 139.488 49.9074L139.358 49.9806C136.577 50.7231 134.835 50.242 132.184 49.123C129.949 48.1818 128.026 46.6341 125.775 45.6981C123.377 44.7065 120.74 44.4589 118.201 44.987C120.821 42.3516 124.013 40.213 127.589 39.2613Z" fill="black"/>
<path d="M129.205 38.1475C129.424 38.1442 129.642 38.167 129.855 38.2155C130.439 38.319 131.013 38.4748 131.57 38.6809C132.399 38.9908 133.188 39.3998 133.92 39.8992C134.825 40.507 135.616 41.2698 136.259 42.1529C136.869 43.0602 137.305 44.0747 137.543 45.1438C137.749 46.0022 137.881 46.8769 137.938 47.7582C137.99 48.5112 137.99 49.123 137.985 49.5413C137.992 49.7602 137.977 49.9793 137.938 50.1949C137.895 49.9798 137.876 49.7606 137.881 49.5413C137.855 49.123 137.824 48.4955 137.746 47.7739C137.662 46.9048 137.515 46.0431 137.304 45.1961C137.057 44.1619 136.627 43.1808 136.036 42.2993C135.414 41.4398 134.649 40.6951 133.774 40.0979C133.065 39.5972 132.301 39.1796 131.497 38.8534C130.746 38.5789 129.981 38.3433 129.205 38.1475Z" fill="#28BCFC"/>
<path d="M135.074 37.7764C135.263 37.8055 135.448 37.8564 135.625 37.928C135.84 37.9933 136.05 38.0736 136.254 38.1685L137.05 38.5712C138.535 39.4903 139.693 40.8597 140.356 42.4824C140.547 42.9402 140.704 43.4122 140.823 43.8942C140.926 44.3451 140.995 44.803 141.031 45.2641C141.068 45.6796 141.077 46.0972 141.057 46.5138C141.031 46.8773 140.983 47.2388 140.912 47.5962C140.854 47.8913 140.774 48.1815 140.673 48.4642C140.606 48.6786 140.521 48.8868 140.418 49.0864C140.341 49.2726 140.242 49.4483 140.122 49.6093C140.384 48.9549 140.586 48.2775 140.725 47.5858C140.779 47.2393 140.816 46.8903 140.834 46.54C140.841 46.1333 140.825 45.7266 140.787 45.3216C140.742 44.8747 140.669 44.4311 140.569 43.9935C140.444 43.529 140.29 43.0731 140.106 42.6288C139.462 41.0554 138.362 39.7128 136.951 38.7751L136.187 38.3411C135.991 38.237 135.79 38.1444 135.584 38.064C135.401 37.9932 135.229 37.8963 135.074 37.7764Z" fill="#28BCFC"/>
<path d="M139.233 105.109C139.233 105.992 143.615 125.36 145.294 130.118C146.973 134.877 152.286 182.585 151.584 185.984C150.882 189.382 149.068 189.247 149.068 189.247C149.068 189.247 106.141 186.528 101.525 186.935C96.9092 187.343 94.9547 187.207 93.837 181.905C92.7194 176.603 93.8682 149.052 92.891 142.391C91.9137 135.729 91.9033 132.503 91.5238 122.61C91.1963 114.029 93.1353 107.153 97.1899 102.186C101.245 97.2182 110.222 92.2037 110.222 92.2037L113.408 87.5291L135.937 99.5189L136.457 96.7894L137.824 101.035L139.233 105.109Z" fill="#28BCFC"/>
<g opacity="0.3">
<path d="M148.918 164.148C148.539 163.186 147.322 162.94 146.319 162.83C136.77 161.785 126.836 159.364 119.86 152.723C117.136 150.108 114.984 146.971 112.91 143.834C108.377 136.942 104.12 129.873 99.8627 122.803L96.5566 124.053C98.5891 134.03 100.585 141.251 103.886 149.429C107.187 157.607 109.755 165.544 118.124 168.221C123.535 169.952 133.812 168.624 139.473 168.179C141.834 168.063 144.176 167.695 146.46 167.081C147.16 166.909 147.811 166.576 148.362 166.109C148.632 165.87 148.828 165.558 148.926 165.21C149.025 164.863 149.022 164.494 148.918 164.148Z" fill="black"/>
</g>
<path d="M95.3749 121.439C95.6192 121.883 114.723 162.93 123.253 164.619C131.783 166.308 158.294 166.71 163.466 165.712C168.639 164.713 173.702 163.813 173.702 163.813C173.702 163.813 177.45 154.862 174.029 147.238L166.908 147.463C166.908 147.463 147.108 146.386 144.311 145.617C141.514 144.848 139.113 142.213 136.581 142.354L121.506 107.096C121.506 107.096 111.718 97.9504 104.727 100.764C97.7349 103.577 93.3216 117.778 95.3749 121.439Z" fill="#28BCFC"/>
<path d="M167.46 165.246C167.481 165.011 167.528 164.78 167.601 164.556C167.715 164.117 167.855 163.479 168.001 162.689C168.146 161.899 168.287 160.948 168.38 159.886C168.471 158.735 168.496 157.579 168.453 156.425C168.36 154.328 168.036 152.248 167.486 150.223C167.273 149.444 167.081 148.822 166.93 148.393C166.845 148.174 166.779 147.949 166.732 147.719C166.853 147.921 166.952 148.134 167.029 148.357C167.273 148.948 167.486 149.552 167.668 150.166C168.274 152.197 168.623 154.296 168.708 156.414C168.749 157.58 168.718 158.746 168.614 159.907C168.522 160.855 168.374 161.796 168.172 162.726C168.043 163.353 167.88 163.973 167.684 164.582C167.628 164.809 167.554 165.032 167.46 165.246Z" fill="black"/>
<path d="M121.508 107.106C121.508 107.106 121.607 107.315 121.794 107.728L122.594 109.569L125.666 116.628C128.297 122.751 132.076 131.562 136.692 142.318L136.588 142.255C137.776 142.29 138.932 142.652 139.93 143.301C140.97 143.876 141.973 144.545 143.075 145.052C144.213 145.541 145.427 145.824 146.662 145.889C147.915 146.04 149.194 146.15 150.493 146.265C155.691 146.694 161.196 147.039 166.93 147.358L174.051 147.128H174.14L174.176 147.207C175.258 149.804 175.735 152.615 175.569 155.426C175.445 158.324 174.855 161.183 173.823 163.892V163.96H173.75L169.222 164.802L164.263 165.722C162.625 166.02 160.968 166.195 159.304 166.245C156.008 166.391 152.765 166.407 149.573 166.391C146.381 166.376 143.252 166.297 140.185 166.182C137.118 166.067 134.124 165.915 131.197 165.691C129.737 165.586 128.297 165.445 126.872 165.288C125.472 165.151 124.082 164.917 122.714 164.587C122.063 164.327 121.452 163.975 120.9 163.542C120.351 163.123 119.83 162.669 119.34 162.182C118.399 161.236 117.515 160.234 116.694 159.181C113.756 155.316 111.075 151.26 108.668 147.039C104.193 139.342 100.959 132.895 98.7396 128.44C97.6376 126.207 96.8007 124.466 96.2393 123.279C95.6778 122.092 95.4023 121.465 95.4023 121.465C95.4023 121.465 95.4855 121.616 95.6311 121.92C95.7766 122.223 96.0053 122.673 96.2912 123.258L98.8332 128.393C101.084 132.832 104.338 139.264 108.835 146.94C111.233 151.14 113.904 155.177 116.829 159.024C117.645 160.068 118.524 161.062 119.46 161.999C119.936 162.478 120.443 162.925 120.978 163.338C121.512 163.759 122.103 164.101 122.735 164.352C124.095 164.673 125.476 164.9 126.867 165.032C128.281 165.189 129.721 165.325 131.182 165.429C134.098 165.649 137.097 165.806 140.159 165.915C143.221 166.025 146.355 166.098 149.516 166.114C152.676 166.13 155.946 166.114 159.231 165.963C160.883 165.91 162.528 165.736 164.154 165.44L169.108 164.519L173.641 163.678L173.537 163.761C174.557 161.084 175.142 158.259 175.268 155.395C175.421 152.623 174.943 149.853 173.87 147.295L173.994 147.374L166.873 147.599C161.155 147.269 155.634 146.924 150.431 146.485C149.131 146.37 147.832 146.255 146.594 146.103C145.96 146.03 145.336 145.952 144.718 145.831C144.101 145.716 143.503 145.517 142.94 145.24C141.817 144.718 140.809 144.043 139.78 143.473C138.817 142.848 137.702 142.499 136.557 142.464H136.484L136.453 142.396C131.873 131.619 128.136 122.798 125.536 116.67L122.547 109.595L121.773 107.744C121.607 107.321 121.508 107.106 121.508 107.106Z" fill="black"/>
<path d="M119.528 104.335C119.528 104.335 119.262 104.089 118.784 103.645C118.112 103.022 117.38 102.467 116.601 101.987C115.446 101.274 114.197 100.73 112.889 100.371C109.67 99.4642 106.228 99.8115 103.252 101.344C102.039 101.952 100.92 102.734 99.9302 103.666C99.2578 104.298 98.65 104.997 98.116 105.752C97.9331 106.036 97.7353 106.31 97.5234 106.573C97.5532 106.49 97.5934 106.411 97.643 106.338C97.7314 106.191 97.8405 105.961 98.0277 105.689C98.5391 104.913 99.1335 104.196 99.8003 103.551C102.008 101.382 104.883 100.032 107.954 99.7237C111.025 99.4149 114.109 100.165 116.7 101.851C117.482 102.349 118.206 102.935 118.857 103.598C119.039 103.773 119.213 103.958 119.377 104.152C119.434 104.207 119.485 104.268 119.528 104.335Z" fill="black"/>
<path d="M136.526 142.391C136.294 143.411 135.972 144.408 135.564 145.371C135.24 146.364 134.833 147.328 134.348 148.252C134.579 147.234 134.901 146.238 135.309 145.277C135.633 144.282 136.04 143.316 136.526 142.391Z" fill="black"/>
<path d="M171.134 149.152C171.134 149.152 171.207 149.115 171.332 149.152C171.5 149.226 171.635 149.36 171.711 149.528C171.782 149.652 171.82 149.793 171.82 149.936C171.82 150.079 171.782 150.22 171.711 150.344C171.617 150.493 171.482 150.611 171.322 150.685C171.163 150.759 170.986 150.786 170.812 150.762C170.637 150.725 170.478 150.635 170.357 150.504C170.235 150.373 170.156 150.208 170.131 150.03C170.105 149.89 170.116 149.746 170.161 149.612C170.207 149.477 170.286 149.357 170.391 149.261C170.461 149.199 170.544 149.151 170.633 149.123C170.723 149.094 170.817 149.084 170.911 149.094C171.035 149.094 171.098 149.136 171.093 149.152C171.087 149.167 170.791 149.152 170.531 149.397C170.463 149.477 170.415 149.571 170.39 149.673C170.364 149.775 170.363 149.881 170.386 149.983C170.407 150.107 170.463 150.223 170.548 150.316C170.633 150.408 170.742 150.474 170.864 150.506C170.989 150.52 171.116 150.5 171.231 150.448C171.346 150.397 171.445 150.316 171.519 150.213C171.574 150.125 171.607 150.025 171.615 149.921C171.623 149.817 171.606 149.713 171.566 149.617C171.41 149.241 171.124 149.188 171.134 149.152Z" fill="black"/>
<path d="M136.478 100.884C136.297 100.81 136.123 100.721 135.958 100.617L134.534 99.796L134.638 99.7542C134.357 101.182 134.081 103.284 133.598 105.804L133.561 105.971L133.421 105.882C131.342 104.554 128.816 103.038 126.144 101.412C124.148 100.209 122.281 98.996 120.566 97.9502C118.851 96.9045 117.255 96.0051 115.929 95.2574L112.774 93.49L111.916 93.0089C111.816 92.9532 111.719 92.8921 111.625 92.8259C111.736 92.8571 111.843 92.9028 111.942 92.9619L112.821 93.4011C113.585 93.788 114.676 94.358 116.023 95.09C117.369 95.8221 118.954 96.7005 120.701 97.7045L126.294 101.156C128.971 102.782 131.493 104.293 133.572 105.658L133.395 105.731C133.889 103.231 134.196 101.124 134.518 99.7019V99.6078L134.601 99.6548L135.989 100.528C136.161 100.633 136.325 100.752 136.478 100.884Z" fill="black"/>
<g opacity="0.3">
<path d="M114.807 94.5149L126.565 103.331C129.164 105.271 131.8 107.242 134.882 108.23L134.7 100L133.499 105.752L114.807 94.5149Z" fill="black"/>
</g>
<path d="M235.867 53.3479C234.831 53.4885 233.78 53.2369 232.918 52.6419C232.056 52.0469 231.445 51.151 231.203 50.1281C230.96 49.1051 231.105 48.0282 231.607 47.1062C232.11 46.1842 232.935 45.483 233.923 45.1386C233.269 44.4872 232.835 43.6455 232.683 42.7324C232.531 41.8194 232.668 40.8813 233.075 40.051C233.482 39.2206 234.138 38.5401 234.951 38.1056C235.764 37.6711 236.691 37.5047 237.603 37.6299C237.623 36.7175 237.878 35.8258 238.343 35.0419C238.808 34.2581 239.467 33.609 240.255 33.158C241.044 32.707 241.936 32.4696 242.843 32.4689C243.75 32.4682 244.642 32.7042 245.432 33.154C246.438 32.2947 247.702 31.7994 249.021 31.7473C250.341 31.6951 251.639 32.0892 252.709 32.8664C253.59 32.6846 254.505 32.7921 255.321 33.1732C256.136 33.5542 256.808 34.1886 257.237 34.9828C257.667 35.777 257.832 36.6891 257.707 37.5846C257.583 38.4801 257.176 39.3117 256.546 39.9568" fill="black"/>
<path d="M235.281 53.9545C235.552 49.4423 237.501 45.1979 240.742 42.0656C243.982 38.9332 248.275 37.1425 252.768 37.0496H253.694C263.69 37.4313 268.95 46.1844 268.295 56.2187L268.888 92.0365L244.602 100.79L244.389 87.89C244.389 87.89 234.762 86.588 234.45 76.9093C234.309 72.287 234.762 62.6554 235.281 53.9545Z" fill="#AE7461"/>
<path d="M244.311 87.8794C248.76 87.787 253.089 86.4133 256.786 83.9211C256.786 83.9211 253.969 90.9278 244.378 90.2533L244.311 87.8794Z" fill="#6F4439"/>
<path d="M237.979 62.6815C237.983 63.0404 238.125 63.3836 238.377 63.6384C238.628 63.8932 238.968 64.0394 239.325 64.0462C239.5 64.0568 239.675 64.0319 239.841 63.9731C240.006 63.9142 240.158 63.8226 240.287 63.7036C240.417 63.5846 240.521 63.4407 240.594 63.2804C240.667 63.1201 240.708 62.9467 240.713 62.7704C240.709 62.4115 240.566 62.0682 240.315 61.8135C240.063 61.5587 239.723 61.4124 239.366 61.4056C239.192 61.3958 239.017 61.4212 238.852 61.4803C238.687 61.5394 238.535 61.6311 238.406 61.7499C238.276 61.8688 238.172 62.0124 238.099 62.1723C238.025 62.3323 237.984 62.5054 237.979 62.6815Z" fill="black"/>
<path d="M237.428 58.6344C237.6 58.8122 238.624 58.0174 240.095 57.9912C241.566 57.9651 242.668 58.6815 242.824 58.5141C242.897 58.4305 242.72 58.1115 242.242 57.7769C241.594 57.3443 240.83 57.1234 240.053 57.1442C239.287 57.159 238.544 57.4171 237.932 57.8814C237.501 58.2265 237.355 58.556 237.428 58.6344Z" fill="black"/>
<path d="M251.41 62.6814C251.414 63.0407 251.558 63.3842 251.81 63.6383C252.063 63.8923 252.405 64.0369 252.762 64.041C252.936 64.0515 253.111 64.0268 253.276 63.9683C253.441 63.9098 253.593 63.8186 253.722 63.7002C253.852 63.5817 253.956 63.4385 254.029 63.2788C254.103 63.1191 254.144 62.9462 254.15 62.7703C254.144 62.411 254 62.0677 253.748 61.8131C253.496 61.5584 253.155 61.4123 252.798 61.4056C252.623 61.3965 252.449 61.4223 252.284 61.4817C252.119 61.5411 251.968 61.6328 251.839 61.7515C251.71 61.8702 251.605 62.0136 251.532 62.1732C251.458 62.3328 251.417 62.5056 251.41 62.6814Z" fill="black"/>
<path d="M251.942 58.6133C252.113 58.7911 253.137 57.9963 254.609 57.9702C256.08 57.944 257.208 58.6604 257.338 58.4931C257.416 58.4094 257.234 58.0905 256.755 57.7558C256.113 57.3258 255.354 57.1049 254.583 57.1231C253.816 57.138 253.074 57.396 252.462 57.8604C251.983 58.2055 251.853 58.5349 251.942 58.6133Z" fill="black"/>
<path d="M246.81 69.7196C246.81 69.6359 245.895 69.4947 244.408 69.3379C244.028 69.3065 243.67 69.2385 243.602 68.9823C243.564 68.5913 243.644 68.1977 243.831 67.8529C244.169 66.9274 244.517 65.96 244.871 64.9456C246.336 60.8096 247.387 57.4108 247.22 57.3533C247.054 57.2958 245.734 60.6004 244.268 64.7365C243.921 65.7544 243.585 66.7287 243.259 67.6594C243.033 68.1216 242.976 68.6493 243.098 69.1496C243.157 69.2787 243.244 69.3927 243.353 69.4832C243.462 69.5738 243.59 69.6385 243.727 69.6725C243.936 69.7247 244.151 69.7493 244.366 69.7457C245.879 69.8189 246.784 69.8085 246.81 69.7196Z" fill="black"/>
<path d="M251.39 53.5728C251.593 53.944 252.846 53.51 254.4 53.4316C255.954 53.3531 257.269 53.578 257.405 53.1858C257.462 52.9976 257.181 52.6629 256.614 52.3753C255.884 52.0275 255.076 51.8744 254.27 51.9309C253.471 51.9739 252.698 52.2302 252.03 52.6734C251.52 53.0289 251.302 53.395 251.39 53.5728Z" fill="black"/>
<path d="M237.158 53.3844C237.475 53.7191 238.681 53.3426 240.147 53.2955C241.613 53.2485 242.855 53.4681 243.131 53.1073C243.255 52.9348 243.053 52.5844 242.502 52.2968C241.745 51.9255 240.908 51.751 240.067 51.7894C239.226 51.8277 238.408 52.0777 237.688 52.5164C237.179 52.8772 237.017 53.2276 237.158 53.3844Z" fill="black"/>
<path d="M236.118 49.51C236.118 49.51 238.525 43.4131 241.394 41.9438C244.867 40.1659 246.452 44.0039 249.779 42.9895C253.106 41.9751 256.417 40.2757 259.884 42.8065C263.684 45.5726 261.964 47.6066 262.286 51.8839C263.575 69.2281 266.829 74.07 267.557 65.8764C267.64 64.977 270.099 64.2136 270.385 60.4226C270.764 55.5023 270.827 49.5413 269.668 46.0798C268.69 43.1621 266.985 41.1647 263.949 38.9894C259.167 35.5593 252.695 35.6168 248.313 36.1502C243.931 36.6835 235.562 41.9594 236.118 49.51Z" fill="black"/>
<path d="M266.944 65.6306C266.947 65.2758 267.023 64.9255 267.165 64.6009C267.308 64.2764 267.514 63.9844 267.773 63.7427C268.031 63.5011 268.335 63.3148 268.667 63.1953C268.999 63.0758 269.352 63.0255 269.704 63.0475C271.498 63.1835 273.509 64.1613 273.468 67.8842C273.39 74.4883 266.814 73.0504 266.804 72.8621C266.793 72.6739 266.887 68.3914 266.944 65.6306Z" fill="#AE7461"/>
<path d="M268.263 70.394C268.263 70.394 268.378 70.4724 268.57 70.5666C268.843 70.6776 269.149 70.6776 269.422 70.5666C270.119 70.3208 270.717 69.2175 270.758 68.0305C270.784 67.4639 270.68 66.8989 270.457 66.3782C270.399 66.1711 270.291 65.9814 270.143 65.8256C269.996 65.6697 269.812 65.5525 269.61 65.4841C269.478 65.4481 269.338 65.4592 269.214 65.5155C269.09 65.5717 268.989 65.6697 268.929 65.7926C268.84 65.9756 268.882 66.1115 268.845 66.122C268.809 66.1325 268.705 66.007 268.762 65.7351C268.802 65.5726 268.895 65.4287 269.027 65.3272C269.117 65.2585 269.219 65.2087 269.328 65.1808C269.437 65.1529 269.55 65.1476 269.662 65.1651C269.931 65.2226 270.181 65.349 270.388 65.5322C270.595 65.7154 270.751 65.9492 270.842 66.2109C271.114 66.7864 271.242 67.42 271.216 68.0567C271.159 69.3848 270.467 70.6241 269.516 70.8907C269.34 70.9385 269.155 70.9464 268.975 70.9139C268.795 70.8813 268.625 70.8091 268.476 70.7025C268.274 70.5509 268.237 70.4045 268.263 70.394Z" fill="#6F4439"/>
<path d="M266.538 52.8512C265.748 53.5237 264.802 53.9858 263.788 54.195C262.748 54.3205 261.579 53.7506 261.381 52.7309C261.298 52.2708 261.381 51.7374 261.09 51.3871C260.799 51.0368 260.051 51.1204 259.531 51.1884C258.573 51.2845 257.612 51.0458 256.809 50.5124C256.006 49.9791 255.411 49.1837 255.123 48.2602C254.655 49.0027 253.516 48.9923 252.773 48.5321C252.03 48.072 251.536 47.2981 250.948 46.6445C250.361 45.9909 249.535 45.4157 248.672 45.5569C248.188 45.6353 247.741 45.9386 247.253 45.902C246.39 45.8445 245.948 44.8562 245.802 43.983C245.657 43.1098 245.532 42.1215 244.794 41.6718C244.056 41.2222 243.234 41.5202 242.444 41.6718C241.654 41.8235 240.625 41.6405 240.406 40.8666C240.368 40.6582 240.373 40.4441 240.419 40.2374C240.466 40.0307 240.553 39.8357 240.677 39.664C241.192 38.8541 241.965 38.2434 242.869 37.9311C243.773 37.6188 244.755 37.6232 245.657 37.9437C245.957 36.8385 246.577 35.8478 247.437 35.0968C248.297 34.3458 249.359 33.8681 250.489 33.7243C251.619 33.5805 252.766 33.7769 253.785 34.2887C254.804 34.8006 255.65 35.6048 256.214 36.5998C256.899 35.9511 257.729 35.478 258.634 35.2205C259.539 34.963 260.493 34.9288 261.414 35.1206C262.335 35.3125 263.197 35.7249 263.926 36.3228C264.655 36.9207 265.23 37.6865 265.602 38.5554C266.401 38.3266 267.249 38.3392 268.041 38.5915C268.833 38.8437 269.534 39.3246 270.056 39.9743C270.579 40.624 270.9 41.4139 270.979 42.2456C271.059 43.0773 270.894 43.9143 270.504 44.6523C271.695 45.3059 272.729 46.4667 272.781 47.8315C272.833 49.1962 271.539 50.5819 270.218 50.2524C270.504 50.7853 270.574 51.408 270.416 51.9918C270.257 52.5756 269.882 53.0757 269.367 53.3888C268.852 53.7018 268.237 53.8037 267.65 53.6735C267.062 53.5433 266.547 53.1908 266.21 52.6891" fill="black"/>
<path d="M245.225 39.8679C245.217 39.9076 245.217 39.9485 245.225 39.9882C245.225 40.0666 245.225 40.1869 245.272 40.3385C245.374 40.7847 245.55 41.2106 245.791 41.5987C246.164 42.2169 246.673 42.741 247.278 43.1307C248.077 43.661 249.026 43.9127 249.981 43.8471L249.867 43.7007C249.68 44.3055 249.74 44.9599 250.033 45.5203C250.339 46.1085 250.729 46.6477 251.192 47.1204C251.414 47.3947 251.665 47.6437 251.941 47.8629C252.252 48.0696 252.609 48.1954 252.98 48.2289C253.366 48.2756 253.756 48.2272 254.119 48.0878C254.481 47.9484 254.804 47.7222 255.06 47.4289L254.815 47.3609C254.92 48.0451 255.166 48.6996 255.538 49.2823C255.909 49.8649 256.398 50.3629 256.973 50.744C257.605 51.1955 258.365 51.4285 259.14 51.4081C259.868 51.3564 260.582 51.1796 261.251 50.8852L261.074 50.812C261.431 51.6033 261.98 52.2919 262.67 52.8146C262.986 53.0818 263.357 53.274 263.756 53.3772C264.156 53.4804 264.573 53.4919 264.978 53.4107C265.664 53.2477 266.288 52.886 266.772 52.3702C267.256 51.8544 267.579 51.2073 267.702 50.5087L267.556 50.5819C268.254 50.9387 269.053 51.0404 269.818 50.8695C270.389 50.7529 270.923 50.5 271.377 50.1322C271.661 49.9021 271.904 49.6243 272.094 49.3113C272.161 49.2029 272.215 49.0871 272.255 48.9662C272.007 49.3797 271.687 49.7447 271.309 50.0433C270.863 50.3841 270.343 50.6135 269.792 50.7126C269.065 50.8586 268.311 50.7497 267.655 50.4041L267.53 50.3361V50.4773C267.403 51.1307 267.09 51.7327 266.628 52.21C266.167 52.6872 265.577 53.019 264.931 53.165C264.566 53.2348 264.19 53.2217 263.83 53.1267C263.47 53.0317 263.136 52.8572 262.852 52.6159C262.202 52.1177 261.687 51.4632 261.355 50.7126L261.303 50.5924L261.178 50.6394C260.537 50.9163 259.853 51.0807 259.156 51.1257C258.44 51.145 257.737 50.9284 257.155 50.5087C256.614 50.1488 256.154 49.68 255.803 49.1318C255.453 48.5836 255.219 47.9681 255.117 47.3243L255.07 47.0106L254.867 47.2563C254.639 47.5164 254.351 47.7169 254.029 47.8407C253.707 47.9645 253.359 48.008 253.017 47.9675C252.687 47.9387 252.37 47.8292 252.092 47.6485C251.832 47.4425 251.595 47.2093 251.385 46.9531C250.936 46.5007 250.556 45.9845 250.257 45.421C250.12 45.1731 250.033 44.9001 250.003 44.6181C249.973 44.3361 249.999 44.0508 250.08 43.7791L250.132 43.617H249.966C249.053 43.6904 248.141 43.4648 247.366 42.9739C246.774 42.6066 246.27 42.1119 245.89 41.5255C245.574 41.0164 245.348 40.4554 245.225 39.8679Z" fill="#28BCFC"/>
<path d="M251.894 70.232C251.661 70.2581 251.931 71.8007 250.803 73.1549C249.675 74.5092 247.996 74.619 248.022 74.8386C248.022 74.938 248.443 75.0739 249.139 74.9694C250.049 74.82 250.877 74.3535 251.479 73.6517C252.047 72.9827 252.339 72.1201 252.295 71.2412C252.238 70.5614 251.983 70.1954 251.894 70.232Z" fill="black"/>
<path d="M198.291 145.324C199.123 144.989 226.595 141.664 226.595 141.664L237.74 132.168L236.701 159.651L201.623 163.05L198.291 145.324Z" fill="#26D64C"/>
<path opacity="0.3" d="M232.812 136.372C232.48 136.539 229.725 138.987 229.725 138.987L230.567 160.148L232.812 136.372Z" fill="black"/>
<path d="M279.616 186.135H233.217C233.217 186.135 235.67 199.307 236.58 205.373C237.091 208.88 237.839 212.348 238.82 215.752H280.848C280.848 215.752 283.967 208.102 284.534 203.203C285.1 198.303 279.616 186.135 279.616 186.135Z" fill="black"/>
<path d="M229.759 187.725C229.759 187.725 228.46 202.737 229.759 215.752H245.832V203.762L229.759 187.725Z" fill="black"/>
<path d="M238.691 114.118L243.692 103.137L244.311 96.3398C244.311 96.3398 253.901 90.2743 258.45 87.9735C261.925 86.3107 265.494 84.8528 269.137 83.6074V90.0285L238.691 114.118Z" fill="#EBEBEB"/>
<path d="M280.485 170.397C280.485 170.397 283.204 133.679 283.386 130.95C283.386 130.95 284.992 111.331 281.53 103.864C278.068 96.3975 270.317 89.8247 270.317 89.8247L269.6 85.9031L254.468 95.5033L247.471 101.621C245.068 104.205 242.861 106.966 240.869 109.883C238.884 112.649 236.674 116.204 235.671 120.675C235.312 122.312 231.149 141.857 231.024 155.479C231.024 155.479 230.385 167.369 229.698 174.099C228.856 182.434 227.567 201.43 227.848 212.683L276.935 211.177C289.057 209.315 286.926 208.102 286.926 208.102L280.485 170.397Z" fill="#26D64C"/>
<path d="M269.137 90.0286L268.8 90.1854L267.796 90.6037C267.37 90.8129 266.85 91.0848 266.237 91.4038C265.623 91.7227 264.953 92.1463 264.23 92.6639C260.216 95.5118 256.592 98.8804 253.454 102.682L253.428 102.719H253.387L248.677 103.592L248.781 103.472C248.708 105.673 248.631 107.979 248.547 110.369V110.421L248.506 110.463C246.003 112.82 243.689 115.373 241.587 118.097C240.712 119.24 239.92 120.444 239.217 121.7L238.957 122.165L238.764 122.652C238.626 122.972 238.507 123.3 238.406 123.635C238.198 124.304 237.99 124.968 237.818 125.637C237.096 128.304 236.493 130.908 235.931 133.386C234.819 138.349 233.888 142.835 233.114 146.6C231.554 154.14 230.707 158.82 230.707 158.82C230.729 158.532 230.765 158.246 230.816 157.962C230.899 157.403 231.04 156.577 231.227 155.515C231.612 153.397 232.183 150.339 232.927 146.563C233.67 142.788 234.585 138.302 235.692 133.334C236.243 130.85 236.841 128.246 237.563 125.569C237.735 124.895 237.943 124.225 238.156 123.551C238.256 123.21 238.376 122.874 238.515 122.547L238.717 122.024L238.977 121.548C239.685 120.27 240.486 119.047 241.374 117.888C243.494 115.167 245.825 112.62 248.345 110.27L248.303 110.364C248.386 107.974 248.469 105.658 248.547 103.467V103.367H248.646L253.356 102.51L253.288 102.552C256.448 98.7432 260.108 95.3851 264.168 92.5698C264.896 92.0469 265.608 91.6861 266.2 91.3306C266.793 90.975 267.344 90.7554 267.76 90.5567L268.774 90.1645L269.137 90.0286Z" fill="black"/>
<path d="M252.659 119.044L253.252 168.033L245.834 215.752H265.385C265.385 215.752 274.273 179.521 276.342 171.908C278.349 164.514 281.364 127.3 281.629 125.475C281.733 124.759 283.854 111.88 277.611 105.841" fill="#26D64C"/>
<path d="M277.61 105.841C277.61 105.841 277.756 105.977 278.021 106.249C278.41 106.663 278.768 107.105 279.092 107.572C280.295 109.396 281.124 111.444 281.53 113.595C282.184 117.001 282.31 120.488 281.904 123.933C281.608 125.935 281.462 128.084 281.249 130.37C281.036 132.655 280.823 135.076 280.594 137.601C280.126 142.673 279.601 148.231 278.967 154.192C278.64 157.168 278.302 160.253 277.881 163.421C277.518 166.692 276.943 169.936 276.16 173.131C272.89 186.204 269.298 200.625 265.519 215.768V215.872H245.678V215.721C248.422 198.12 250.959 181.874 253.122 168.007C252.966 153.173 252.836 140.927 252.742 132.383C252.706 128.116 252.675 124.78 252.654 122.495C252.654 121.365 252.654 120.497 252.654 119.88C252.654 119.263 252.654 118.997 252.654 118.997C252.654 118.997 252.654 119.295 252.685 119.88C252.716 120.466 252.711 121.344 252.732 122.495C252.763 124.775 252.815 128.116 252.882 132.383C252.992 140.927 253.158 153.173 253.356 168.007C251.203 181.879 248.677 198.125 245.958 215.731L245.828 215.574H265.379L265.249 215.674L275.916 173.042C276.699 169.857 277.276 166.624 277.642 163.364C278.063 160.2 278.406 157.115 278.738 154.14C279.383 148.184 279.918 142.636 280.402 137.559C280.638 135.021 280.861 132.611 281.072 130.328C281.296 128.053 281.452 125.878 281.748 123.886C282.163 120.457 282.055 116.985 281.426 113.59C281.033 111.442 280.222 109.393 279.04 107.561C278.726 107.092 278.378 106.646 278 106.228C277.74 105.992 277.61 105.841 277.61 105.841Z" fill="black"/>
<path d="M263.004 172.854C262.486 172.759 261.98 172.612 261.491 172.415C260.571 172.101 259.318 171.62 257.961 171.014C256.605 170.407 255.409 169.795 254.562 169.319C254.088 169.089 253.639 168.81 253.221 168.488C253.713 168.673 254.191 168.895 254.65 169.152C255.518 169.581 256.73 170.161 258.071 170.768C259.412 171.374 260.67 171.876 261.559 172.237C262.054 172.408 262.537 172.614 263.004 172.854Z" fill="black"/>
<path d="M229.526 176.101C229.52 176.06 229.52 176.017 229.526 175.976C229.526 175.871 229.526 175.751 229.526 175.599C229.526 175.249 229.567 174.768 229.604 174.156C229.682 172.886 229.796 171.082 229.936 168.859C230.238 164.389 230.664 158.213 231.267 151.405C231.87 144.597 232.556 138.432 233.123 133.988C233.404 131.766 233.643 129.967 233.825 128.728C233.913 128.126 233.986 127.65 234.038 127.3C234.064 127.154 234.085 127.033 234.1 126.934C234.104 126.891 234.115 126.849 234.131 126.809C234.131 126.809 234.131 126.85 234.131 126.934C234.131 127.018 234.131 127.159 234.095 127.311C234.059 127.661 234.001 128.137 233.934 128.743C233.783 130.009 233.575 131.807 233.315 134.014C232.795 138.464 232.141 144.618 231.538 151.426C230.935 158.234 230.498 164.41 230.134 168.875C229.957 171.092 229.812 172.891 229.713 174.167C229.661 174.773 229.614 175.254 229.583 175.605C229.583 175.756 229.557 175.876 229.547 175.976C229.547 176.019 229.54 176.061 229.526 176.101Z" fill="black"/>
<path d="M269.138 99.6601C268.638 98.3088 268.022 97.0036 267.297 95.7594C266.493 94.5646 265.591 93.4399 264.6 92.3972C264.968 92.6147 265.303 92.8861 265.592 93.2025C266.329 93.9267 266.978 94.7358 267.526 95.613C268.076 96.489 268.519 97.4282 268.847 98.4104C269.004 98.8105 269.102 99.2315 269.138 99.6601Z" fill="black"/>
<path d="M234.626 160.53C234.677 160.64 234.694 160.765 234.673 160.885C234.639 161.223 234.488 161.537 234.247 161.774C234.066 161.957 233.838 162.084 233.589 162.141C233.339 162.199 233.079 162.184 232.838 162.098C232.55 161.999 232.297 161.817 232.11 161.575C231.912 161.311 231.81 160.986 231.819 160.655C231.819 160.245 231.95 159.845 232.193 159.515C232.313 159.358 232.471 159.234 232.651 159.154C232.838 159.086 232.973 159.05 233.129 159.003H233.165C233.499 158.992 233.829 159.087 234.106 159.275C234.315 159.429 234.468 159.648 234.543 159.897C234.623 160.099 234.652 160.319 234.626 160.535C234.59 160.535 234.564 160.305 234.413 159.949C234.33 159.737 234.185 159.554 233.997 159.426C233.745 159.279 233.456 159.21 233.165 159.228H233.202C233.061 159.28 232.879 159.332 232.749 159.384C232.612 159.453 232.492 159.553 232.401 159.677C232.2 159.964 232.091 160.305 232.089 160.655C232.084 160.918 232.162 161.176 232.312 161.392C232.461 161.608 232.674 161.771 232.921 161.858C233.121 161.935 233.339 161.955 233.55 161.916C233.762 161.876 233.958 161.778 234.117 161.633C234.344 161.433 234.502 161.166 234.569 160.869C234.616 160.655 234.6 160.535 234.626 160.53Z" fill="black"/>
<path d="M233.897 177.853C233.949 177.964 233.965 178.088 233.944 178.208C233.913 178.547 233.761 178.862 233.518 179.097C233.338 179.28 233.11 179.408 232.861 179.466C232.611 179.523 232.35 179.508 232.109 179.422C231.822 179.32 231.57 179.139 231.382 178.899C231.184 178.634 231.081 178.309 231.09 177.978C231.091 177.568 231.222 177.169 231.465 176.838C231.585 176.682 231.742 176.557 231.922 176.478C232.109 176.41 232.244 176.373 232.4 176.326H232.437C232.771 176.315 233.1 176.41 233.378 176.598C233.586 176.753 233.739 176.971 233.814 177.22C233.895 177.422 233.923 177.642 233.897 177.858C233.866 177.858 233.835 177.628 233.684 177.272C233.604 177.059 233.458 176.876 233.268 176.75C233.017 176.602 232.727 176.533 232.437 176.551H232.473C232.333 176.603 232.151 176.655 232.026 176.708C231.886 176.775 231.765 176.875 231.673 177.001C231.472 177.287 231.363 177.628 231.361 177.978C231.356 178.241 231.434 178.499 231.583 178.715C231.732 178.931 231.946 179.094 232.192 179.181C232.393 179.259 232.611 179.279 232.822 179.239C233.033 179.199 233.229 179.101 233.388 178.956C233.615 178.756 233.774 178.489 233.84 178.193C233.887 177.984 233.871 177.858 233.897 177.853Z" fill="black"/>
<path d="M275.411 102.944C275.385 102.991 274.74 102.573 273.597 102.133C272.922 101.877 272.226 101.679 271.518 101.543C270.661 101.382 269.79 101.305 268.918 101.313C268.045 101.33 267.174 101.432 266.319 101.616C265.623 101.774 264.941 101.99 264.282 102.264C263.154 102.735 262.519 103.169 262.488 103.122C262.618 102.995 262.763 102.886 262.92 102.798C263.085 102.675 263.258 102.565 263.44 102.468C263.681 102.328 263.929 102.201 264.183 102.086C264.852 101.782 265.548 101.542 266.262 101.37C268.004 100.948 269.817 100.923 271.57 101.297C272.281 101.452 272.977 101.672 273.649 101.956C273.907 102.062 274.158 102.182 274.403 102.316C274.594 102.406 274.779 102.511 274.954 102.63C275.119 102.714 275.273 102.819 275.411 102.944Z" fill="black"/>
<g opacity="0.3">
<path d="M232.582 148.77C234.698 145.669 235.477 142.746 236.611 139.159C238.29 133.831 238.758 127.813 241.398 122.892C242.958 119.995 244.777 117.025 247.48 115.164C250.183 113.302 250.506 111.049 250.454 104.821C252.34 104.821 254.331 103.378 254.565 103.122C255.668 101.874 256.46 100.381 256.879 98.7661C255.558 100.215 253.354 102.609 253.354 102.609C253.354 102.609 248.577 103.503 248.645 103.472C248.53 105.867 248.525 107.974 248.405 110.369C248.405 110.369 239.241 120.152 238.529 122.118C237.817 124.084 232.582 148.77 232.582 148.77Z" fill="black"/>
</g>
<g opacity="0.3">
<path d="M266.609 209.838C278.227 187.725 281.835 158.647 281.164 130.95C281.164 130.95 277.832 164.618 276.704 170.396C275.576 176.174 266.609 209.838 266.609 209.838Z" fill="black"/>
</g>
<path d="M268.383 86.4678C268.306 86.5467 268.218 86.6153 268.123 86.6717L267.349 87.1946L264.459 89.0979L254.941 95.2941L250.829 97.9086L249.519 98.9544C249.104 99.2616 248.711 99.5989 248.344 99.9635C247.622 100.664 246.982 101.344 246.405 101.961L246.301 102.071L246.244 101.935L244.747 98.4315C244.586 98.0393 244.456 97.7203 244.352 97.4746C244.299 97.3665 244.259 97.2524 244.232 97.1347C244.302 97.2338 244.36 97.3409 244.404 97.4537C244.518 97.689 244.664 97.9766 244.846 98.3844L246.405 101.835L246.244 101.809C246.811 101.182 247.445 100.492 248.167 99.7805C248.536 99.4025 248.932 99.053 249.353 98.7347L250.657 97.689L254.764 95.0379L264.344 88.9254L267.266 87.0952L268.066 86.6142C268.167 86.5547 268.273 86.5056 268.383 86.4678Z" fill="black"/>
<path d="M220.44 62.3522L213.947 61.5887C210.29 65.3274 205.374 67.5545 200.167 67.8324C194.96 68.1103 189.837 66.4187 185.807 63.0903C181.777 59.7619 179.13 55.0374 178.387 49.8456C177.644 44.6538 178.859 39.3702 181.792 35.0335C184.725 30.6968 189.165 27.6207 194.239 26.4099C199.313 25.1992 204.653 25.9413 209.211 28.4905C213.768 31.0396 217.213 35.2114 218.867 40.1856C220.522 45.1599 220.267 50.5769 218.153 55.3716L220.44 62.3522Z" fill="white"/>
<path d="M220.44 62.3522C220.44 62.3522 220.382 62.1953 220.279 61.892L219.826 60.5534L218.1 55.3821H218.215C218.209 55.3879 218.202 55.3926 218.195 55.3957C218.187 55.3989 218.179 55.4005 218.171 55.4005C218.162 55.4005 218.154 55.3989 218.147 55.3957C218.139 55.3926 218.132 55.3879 218.126 55.3821C218.118 55.3706 218.114 55.3569 218.114 55.3429C218.114 55.3288 218.118 55.3151 218.126 55.3036C219.524 52.101 220.105 48.5981 219.816 45.1126C219.725 44.0374 219.551 42.9709 219.296 41.9229C219.007 40.806 218.637 39.7119 218.189 38.6497C216.403 34.4557 213.298 30.9675 209.35 28.7212C205.402 26.475 200.83 25.5948 196.337 26.2161C191.843 26.8373 187.677 28.9256 184.478 32.16C181.279 35.3945 179.225 39.596 178.63 44.1191C178.222 47.33 178.549 50.5924 179.587 53.6565C180.572 56.5359 182.182 59.1581 184.302 61.3326C188.055 65.22 193.165 67.487 198.55 67.6543H199.439C199.73 67.6692 200.022 67.6605 200.312 67.6281L202.012 67.4765C203.077 67.3038 204.133 67.0716 205.172 66.781C208.484 65.7804 211.495 63.9632 213.931 61.4946C213.939 61.4901 213.948 61.4876 213.957 61.4876C213.967 61.4876 213.976 61.4901 213.983 61.4946L218.792 62.096L220.039 62.2581L220.471 62.3156L220.065 62.279L218.828 62.1483L213.968 61.6254H214.02C211.576 64.1326 208.541 65.978 205.198 66.9902C204.151 67.2903 203.087 67.5295 202.012 67.7066L200.297 67.8687C200.003 67.9027 199.708 67.9132 199.413 67.9H198.514C194.263 67.7838 190.148 66.3716 186.714 63.8505C183.279 61.3293 180.687 57.8182 179.28 53.782C178.224 50.6787 177.889 47.3728 178.303 44.1191C178.742 40.7059 180.01 37.4538 181.994 34.6496C182.225 34.2928 182.482 33.9538 182.763 33.6352L183.569 32.6521L184.458 31.7528C184.745 31.4485 185.053 31.1638 185.378 30.9004L186.339 30.1004C186.651 29.8285 187.02 29.6246 187.353 29.3841C187.686 29.1435 188.034 28.9082 188.393 28.7043L189.474 28.1187C192.311 26.6267 195.453 25.8159 198.654 25.75C201.553 25.6958 204.432 26.2447 207.11 27.3622C209.788 28.4797 212.208 30.1418 214.217 32.2443C215.975 34.0846 217.385 36.2323 218.376 38.5817C218.829 39.6549 219.199 40.7614 219.483 41.8916C219.741 42.9515 219.915 44.0302 220.003 45.1178C220.267 48.6344 219.644 52.161 218.194 55.3716L218.085 55.3036C218.098 55.2926 218.115 55.2865 218.132 55.2865C218.149 55.2865 218.165 55.2926 218.178 55.3036C218.18 55.3141 218.18 55.3246 218.178 55.335C218.901 57.62 219.462 59.3769 219.842 60.5639C220.024 61.1443 220.164 61.6097 220.258 61.8973C220.351 62.1849 220.44 62.3522 220.44 62.3522Z" fill="#26D64C"/>
<path d="M189.506 47.3243L192.001 44.5478L197.293 48.825L205.153 39.7424L207.726 42.2628L197.173 53.9389L189.506 47.3243Z" fill="#26D64C"/>
<path d="M163.239 64.1406L167.361 63.6177C167.374 63.6124 167.389 63.6124 167.403 63.6177C169.493 65.7335 172.074 67.2916 174.914 68.1511C175.805 68.3989 176.709 68.5979 177.622 68.7472L179.083 68.8779C179.332 68.899 179.582 68.899 179.831 68.8779H180.596C182.769 68.8119 184.912 68.344 186.917 67.4975C187.436 67.2675 187.998 67.0112 188.523 66.7237L188.039 66.5302C185.476 65.4552 183.153 63.8726 181.209 61.8765C179.106 59.7185 177.507 57.1158 176.531 54.258C175.501 51.2247 175.172 47.995 175.569 44.8146C176.006 41.4673 177.256 38.2798 179.208 35.5334C179.439 35.1857 179.692 34.8538 179.967 34.5399L180.757 33.5778L181.095 33.2326H180.512C178.058 33.1846 175.621 33.646 173.352 34.5879C171.082 35.5299 169.031 36.9322 167.325 38.7073C165.822 40.255 164.613 42.0661 163.759 44.0512C163.372 44.9619 163.054 45.9005 162.807 46.8591C161.873 50.6897 162.225 54.7237 163.811 58.3313C163.816 58.3416 163.82 58.3533 163.82 58.3653C163.82 58.3772 163.816 58.3889 163.811 58.3993L162.339 62.7968C162.173 63.3197 162.043 63.6804 161.95 63.9471C161.856 64.2138 161.814 64.3393 161.814 64.3393L162.184 64.287L163.239 64.1406Z" fill="#F5F5F5"/>
<path d="M163.239 64.1405C163.239 64.1405 163.119 64.1666 162.88 64.2032L161.804 64.3601H161.752V64.3078C162.157 63.0843 162.823 61.0555 163.712 58.3521V58.3207L163.675 58.2371L163.603 58.0645L163.462 57.7142C163.363 57.4789 163.28 57.2331 163.187 56.9821C163.015 56.4593 162.859 55.9364 162.719 55.4135C162.421 54.2306 162.247 53.0196 162.199 51.8003C162.139 50.4341 162.237 49.0655 162.49 47.7218C162.63 47 162.814 46.2876 163.041 45.5884C163.266 44.8554 163.546 44.1404 163.878 43.4498C165.295 40.3824 167.548 37.7823 170.376 35.9516C173.544 33.8998 177.274 32.9028 181.037 33.1018H181.334L181.126 33.311L180.788 33.6561C178.301 36.4555 176.598 39.8698 175.855 43.5491C174.932 48.2879 175.701 53.2022 178.025 57.4269C180.35 61.6516 184.082 64.9159 188.564 66.6451L188.819 66.7392L188.58 66.8543C187.673 67.3313 186.733 67.7419 185.768 68.0831C184.845 68.3931 183.9 68.6292 182.94 68.789C181.178 69.0656 179.386 69.0902 177.617 68.8622C177.014 68.7367 176.427 68.6373 175.855 68.5118C175.298 68.381 174.75 68.2187 174.212 68.0256C173.227 67.6788 172.274 67.2467 171.363 66.734C169.906 65.9161 168.572 64.8932 167.402 63.696C167.402 63.649 167.283 63.696 167.205 63.696L166.961 63.7222L166.498 63.7797L165.656 63.879L164.335 64.0307L163.53 64.1196C163.343 64.1196 163.249 64.1196 163.249 64.1196L163.525 64.0725L164.33 63.9575L165.645 63.7797L166.488 63.6699L166.95 63.6071L167.194 63.5758H167.319C167.345 63.5693 167.372 63.5693 167.397 63.5758C167.414 63.5693 167.432 63.5693 167.449 63.5758H167.475C168.651 64.7506 169.984 65.7539 171.436 66.5562C173.371 67.6319 175.485 68.3408 177.674 68.6478C178.525 68.7431 179.381 68.7902 180.237 68.789C181.146 68.7816 182.053 68.7029 182.95 68.5537C183.898 68.3931 184.831 68.1571 185.742 67.8478C186.692 67.505 187.618 67.0961 188.512 66.6242V66.8334C183.98 65.0968 180.202 61.8073 177.844 57.5442C175.486 53.2811 174.699 48.3178 175.621 43.5282C176.37 39.8025 178.094 36.3456 180.616 33.5149L180.959 33.1698L181.048 33.3999C177.542 33.2042 174.059 34.0631 171.041 35.8669C168.022 37.6708 165.607 40.3379 164.102 43.5282C163.773 44.2036 163.495 44.9027 163.27 45.6198C163.041 46.3046 162.855 47.0031 162.714 47.7113C162.226 50.2327 162.29 52.8306 162.901 55.3246C163.036 55.8475 163.187 56.4017 163.353 56.8933C163.441 57.139 163.525 57.3848 163.618 57.6201L163.758 57.9704L163.831 58.1377L163.862 58.2214C163.879 58.2479 163.885 58.2792 163.88 58.3099C163.875 58.3405 163.86 58.3685 163.836 58.3887V58.3573C162.916 61.0607 162.235 63.0947 161.804 64.2869L161.773 64.2503L162.854 64.1196L163.239 64.1405Z" fill="#26D64C"/>
<path d="M337.926 27.0781H331.46C330.182 27.0781 329.146 28.1199 329.146 29.405V64.9666C329.146 66.2517 330.182 67.2935 331.46 67.2935H337.926C339.204 67.2935 340.24 66.2517 340.24 64.9666V29.405C340.24 28.1199 339.204 27.0781 337.926 27.0781Z" fill="#455A64"/>
<path d="M303.092 50.7493H296.782C295.461 50.7493 294.391 51.8262 294.391 53.1546V66.6032C294.391 67.9317 295.461 69.0085 296.782 69.0085H303.092C304.413 69.0085 305.484 67.9317 305.484 66.6032V53.1546C305.484 51.8262 304.413 50.7493 303.092 50.7493Z" fill="#455A64"/>
<path d="M320.065 40.8196H314.087C312.674 40.8196 311.529 41.9714 311.529 43.3922V66.4307C311.529 67.8515 312.674 69.0033 314.087 69.0033H320.065C321.477 69.0033 322.622 67.8515 322.622 66.4307V43.3922C322.622 41.9714 321.477 40.8196 320.065 40.8196Z" fill="#455A64"/>
<path d="M336.138 13.7915C336.063 13.9199 335.974 14.0392 335.872 14.1471L335.046 15.1249L331.927 18.7328L321.037 31.0677L320.917 31.2089L320.761 31.1043L313.952 26.6336L314.243 26.5918L313.983 26.9003C308.374 33.5149 303.3 39.5072 299.589 43.889L299.49 43.9988L299.376 43.9099L293.964 39.8679L292.53 38.749C292.353 38.6289 292.189 38.4905 292.041 38.3359C292.223 38.4366 292.397 38.552 292.561 38.681L294.068 39.7268L299.563 43.6589H299.355L313.65 26.5866L313.91 26.2781L314.04 26.1264L314.201 26.2362L321 30.7226L320.725 30.7592L331.719 18.5289L334.942 14.9994L335.82 14.0686C335.915 13.9639 336.021 13.8708 336.138 13.7915Z" fill="#263238"/>
<path d="M336.486 22.2831C336.364 21.4332 336.313 20.5743 336.336 19.7157C336.294 18.1471 336.268 15.93 336.268 13.4934L336.523 13.713L336.304 13.7496C333.861 14.1522 331.626 14.4973 330.041 14.7222C329.184 14.8881 328.314 14.9791 327.441 14.9941C328.279 14.7298 329.136 14.5339 330.004 14.4084C331.6 14.1052 333.804 13.713 336.242 13.3104L336.466 13.2738L336.72 13.2319V13.4934C336.72 15.93 336.72 18.1262 336.653 19.7157C336.675 20.5749 336.619 21.4342 336.486 22.2831Z" fill="#263238"/>
</svg>
