<svg width="736" height="738" viewBox="0 0 736 738" fill="none" xmlns="http://www.w3.org/2000/svg">
<path d="M694.15 461.225C683.625 456.8 671.4 454.225 658.575 454.225C644.15 454.225 630.5 457.475 618.3 463.275L618.875 463.025L474.425 527.9C474.5 526.725 475.075 525.725 475.075 524.55C474.7 490.275 446.85 462.65 412.525 462.65C410.8 462.65 409.1 462.725 407.425 462.85L407.65 462.825H313.075L194.075 427.95C192.525 427.45 190.75 427.175 188.9 427.175H188.8H134.575V408.25C134.575 397.9 126.175 389.5 115.825 389.5H18.75C8.4 389.5 0 397.9 0 408.25V713.45C0 723.8 8.4 732.2 18.75 732.2H115.825C126.175 732.2 134.575 723.8 134.575 713.45V688.325C180.025 695.425 220.7 706.875 259.25 722.5L255.525 721.15C284.275 731.55 317.475 737.55 352.075 737.55C352.25 737.55 352.425 737.55 352.6 737.55H352.575C352.7 737.55 352.85 737.55 353 737.55C393.1 737.55 431.325 729.575 466.2 715.1L464.25 715.825C495.325 702 521.7 687.425 546.675 670.85L544.625 672.125C553.075 666.9 561.475 661.675 569.975 656.65C610.8 632.475 643.6 611.25 673.2 589.85C687.675 579.55 700.275 569.375 712.275 558.525L711.925 558.85C721.25 551.3 728.7 541.8 733.7 530.95L733.9 530.475C734.675 528.5 735.1 526.225 735.1 523.825C735.1 522.4 734.95 521.025 734.65 519.7L734.675 519.825C731.025 494.4 715.8 473.175 694.6 461.4L694.2 461.2L694.15 461.225ZM97.075 694.725H37.5V427H97.075V694.725ZM685.525 532.225C675.225 541.475 664.025 550.45 652.325 558.775L651.15 559.575C622.575 580.225 590.7 600.825 550.8 624.475C542.1 629.6 533.525 634.925 524.875 640.25C503.525 654.575 478.95 668.25 453.275 679.9L450.025 681.225C421.225 693.075 387.775 699.925 352.725 699.925C322.65 699.925 293.75 694.85 266.825 685.55L268.675 686.1C229.8 669.9 184.6 657.475 137.475 650.925L134.55 650.6V464.7H186.1L305.1 499.575C306.65 500.075 308.425 500.35 310.275 500.35H310.375H407.625C429.7 500.35 437.55 513.375 437.55 524.575C437.55 535.775 429.7 548.8 407.625 548.8H237.4C227.05 548.8 218.65 557.2 218.65 567.55C218.65 577.9 227.05 586.3 237.4 586.3H431.925H432.025C434.775 586.3 437.375 585.7 439.7 584.6L439.6 584.65L634.475 497.15C641.675 493.85 650.1 491.925 658.975 491.925C665.6 491.925 671.975 493 677.925 494.975L677.5 494.85C687.075 500.6 693.95 509.95 696.3 521L696.35 521.275C692.95 525.25 689.4 528.825 685.625 532.15L685.5 532.25L685.525 532.225ZM378.35 387.2C381.8 391.025 386.75 393.4 392.275 393.4C397.8 393.4 402.75 391.025 406.175 387.225L406.2 387.2L555.425 221.8C582.475 196.625 599.775 161.275 601.225 121.875V121.625C601.225 121.325 601.225 120.975 601.225 120.625C601.225 87.325 587.65 57.225 565.725 35.5C543.125 13.55 512.275 0 478.225 0C444.875 0 414.575 13 392.1 34.175L392.175 34.125C370.9 16.05 343.125 5.05 312.775 5.05C301.975 5.05 291.525 6.45 281.55 9.05L282.4 8.85C238.55 21.3 204.725 55.15 192.475 98.075L192.25 99C189.9 108.1 188.55 118.525 188.55 129.3C188.55 165.675 204.025 198.45 228.775 221.375L228.85 221.45L378.35 387.2ZM228.475 108.725C237.25 77.775 261.125 53.9 291.425 45.25L292.075 45.1C298.3 43.35 305.475 42.35 312.875 42.35C339.075 43.2 362.45 54.675 378.95 72.575L379 72.65C382.4 76.05 387.075 78.15 392.25 78.15C397.425 78.15 402.125 76.05 405.5 72.65C424.05 52.2 450.25 38.975 479.525 37.475H479.775H480.4C526.45 37.775 563.65 75.175 563.65 121.25C563.65 121.3 563.65 121.325 563.65 121.375C562.15 150.925 548.925 177.1 528.575 195.6L528.5 195.675L527.825 196.375L392.225 346.7L255.975 195.675C237.55 179.4 226 155.725 226 129.35C226 122.05 226.875 114.95 228.55 108.15L228.425 108.75L228.475 108.725Z" fill="#26D64C"/>
</svg>
