<svg width="619" height="772" viewBox="0 0 619 772" fill="none" xmlns="http://www.w3.org/2000/svg">
<path d="M495.888 18.9628C508.389 12.355 523.973 17.1768 530.581 29.68L599.972 161.007C606.536 173.466 601.713 189.094 589.256 195.703C576.753 202.267 561.169 197.489 554.561 184.986L485.17 53.6597C478.606 41.1565 483.428 25.5722 495.888 18.9628Z" stroke="#26D64C" stroke-width="31.4809" stroke-miterlimit="10" stroke-linecap="round" stroke-linejoin="round"/>
<path d="M106.114 286.037L485.171 53.6592L554.561 184.986L148.935 367.129L106.114 286.037Z" stroke="#26D64C" stroke-width="31.4809" stroke-miterlimit="10" stroke-linecap="round" stroke-linejoin="round"/>
<path d="M57.4424 334.31L115.402 303.677L141.345 352.752L83.3408 383.385C83.2986 383.206 83.208 383.072 83.1174 382.938L57.4424 334.31Z" stroke="#26D64C" stroke-width="31.4809" stroke-miterlimit="10" stroke-linecap="round" stroke-linejoin="round"/>
<path d="M27.7033 325.155C38.4205 319.485 51.7705 323.592 57.4423 334.31L83.1173 382.938C88.7877 393.655 84.6798 407.052 73.9642 412.677C63.2486 418.349 49.897 414.196 44.2267 403.524L18.5501 354.852C12.8783 344.178 16.9876 330.781 27.7033 325.155Z" stroke="#26D64C" stroke-width="31.4809" stroke-miterlimit="10" stroke-linecap="round" stroke-linejoin="round"/>
<path d="M395.373 361.369H298.969V415.355H395.373V361.369Z" stroke="#26D64C" stroke-width="31.4809" stroke-miterlimit="10" stroke-linecap="round" stroke-linejoin="round"/>
<path d="M260.388 746.955L347.15 415.355L428.149 748.877" stroke="#26D64C" stroke-width="31.4809" stroke-miterlimit="10" stroke-linecap="round" stroke-linejoin="round"/>
<path d="M346.702 755.619V431.698" stroke="#26D64C" stroke-width="31.4809" stroke-miterlimit="10" stroke-linecap="round" stroke-linejoin="round"/>
<path d="M346.702 354.18V287.734" stroke="#26D64C" stroke-width="31.4809" stroke-miterlimit="10" stroke-linecap="round" stroke-linejoin="round"/>
</svg>
