<svg xmlns="http://www.w3.org/2000/svg" xmlns:xlink="http://www.w3.org/1999/xlink" viewBox="0 0 500 500"><defs><clipPath id="freepik--clip-path--inject-8"><path d="M241.5,339A22.21,22.21,0,0,1,231,336.37c-2.45-1.39-4-3.25-4-5.21,0-1.55-7.71-41-7.71-41l21.79-24.67,30.07,23.06s-4.18,28-5.22,38c-.19,1.85-9,4.31-9,4.55,0,3.16-3.18,4.85-5.42,5.93A23.26,23.26,0,0,1,241.5,339Z" style="fill:none"></path></clipPath></defs><g id="freepik--Floor--inject-8"><ellipse id="freepik--floor--inject-8" cx="250" cy="353.95" rx="234.06" ry="126.08" style="fill:#f5f5f5"></ellipse></g><g id="freepik--Shadows--inject-8"><path id="freepik--Shadow--inject-8" d="M441.29,375c10.42,5.87,10.52,15.56.23,21.66s-27.08,6.27-37.5.4-10.53-15.56-.23-21.66S430.87,369.1,441.29,375Z" style="fill:#e0e0e0"></path><path id="freepik--shadow--inject-8" d="M80.1,349.53c10.42,5.87,10.52,15.56.23,21.65s-27.08,6.28-37.5.41S32.3,356,42.59,349.93,69.68,343.66,80.1,349.53Z" style="fill:#e0e0e0"></path><path id="freepik--shadow--inject-8" d="M129,423.81,239.59,360a1.34,1.34,0,0,0,0-2.53l-7.94-4.58a4.83,4.83,0,0,0-4.38,0l-44.9,25.92a4.83,4.83,0,0,1-4.38,0L96.13,331.5a4.81,4.81,0,0,0-4.37,0l-3.84,2.21a1.34,1.34,0,0,0,0,2.53l81.94,47.31a1.34,1.34,0,0,1,0,2.53L116.67,416.7a1.33,1.33,0,0,0,0,2.52l8,4.59A4.83,4.83,0,0,0,129,423.81Z" style="fill:#e0e0e0"></path><path id="freepik--shadow--inject-8" d="M255.82,357.67c7.66,4.24,7.66,11.11,0,15.35s-20.07,4.24-27.72,0-7.66-11.11,0-15.35S248.17,353.43,255.82,357.67Z" style="fill:#e0e0e0"></path><ellipse id="freepik--shadow--inject-8" cx="317.84" cy="409.56" rx="66.34" ry="36.73" style="fill:#e0e0e0"></ellipse></g><g id="freepik--Plant--inject-8"><g id="freepik--Plants--inject-8"><path d="M423,290.53l-8.12-4.69s-4.83-20.08-2.91-38.15c2.71-25.41,19.43-35,25.79-32.78s8.2,9.59-2.32,24.72C429.23,248.56,421.61,267.15,423,290.53Z" style="fill:#61F9FF"></path><g style="opacity:0.15"><path d="M423,290.53l-8.12-4.69s-4.83-20.08-2.91-38.15c2.71-25.41,19.43-35,25.79-32.78s8.2,9.59-2.32,24.72C429.23,248.56,421.61,267.15,423,290.53Z"></path></g><path d="M419.64,280.67h.07a.57.57,0,0,0,.45-.66c-4.45-23.43,3.74-49.76,13.87-60.72a.57.57,0,0,0-.83-.77c-10.32,11.16-18.66,37.92-14.15,61.7A.58.58,0,0,0,419.64,280.67Z" style="fill:#fff"></path><path d="M444.27,302.82c1.28.65,4.7-2.27,5.65-3a12,12,0,0,0,3.73-4.74,11.22,11.22,0,0,0,.65-6.75,25.74,25.74,0,0,0-1-3.52l-1.17-3.4a8.86,8.86,0,0,1-.68-3.46c.18-2.38,2.2-4.14,4-5.67,2-1.68,4.13-3.88,4-6.73a10,10,0,0,0-2.81-5.83c-1.45-1.65-3.14-3.09-4.46-4.85a7,7,0,0,1-1.65-4.35,7.4,7.4,0,0,1,.82-2.81c.91-1.9,2.15-3.67,2.74-5.69s.37-4.5-1.25-5.85c-1.34-1.1-3.24-1.17-5-1a11.36,11.36,0,0,0-4.47,1.83c-4.39,2.74-6.7,8.23-11.4,10.4a48.47,48.47,0,0,1-5.73,1.71c-1.9.61-3.82,1.69-4.62,3.52-1.58,3.6,1.9,7.77.85,11.56-.93,3.36-4.07,4.79-5.72,7.85a7.05,7.05,0,0,0-.63,4.37,21,21,0,0,0,2.19,7.21,65.4,65.4,0,0,0,4.34,6.67Z" style="fill:#61F9FF"></path><path d="M431.84,296.34h0a.58.58,0,0,0,.52-.62c-2.06-22.28,7.22-47.47,14.51-55a.56.56,0,1,0-.81-.78c-7.44,7.7-16.91,33.31-14.83,55.91A.57.57,0,0,0,431.84,296.34Z" style="fill:#fff"></path><path d="M434.06,268.86l.16,0a75.74,75.74,0,0,1,16.08-3.43.56.56,0,0,0,.51-.61.55.55,0,0,0-.62-.51,76.53,76.53,0,0,0-16.35,3.5.55.55,0,0,0-.34.72A.57.57,0,0,0,434.06,268.86Z" style="fill:#fff"></path></g></g><g id="freepik--Canvas--inject-8"><g id="freepik--canvas--inject-8"><polygon points="202.55 339.4 202.55 336.52 151.26 366.19 153.71 367.63 202.55 339.4" style="fill:#37474f"></polygon><path d="M138.6,144.11a.69.69,0,0,1,.33.74L96.44,333.49l-1.22,5.35a3.23,3.23,0,0,1-1.69-.33s0,0,0,0l-2.85-1.64a.7.7,0,0,1-.32-.75l43.62-193.65a.68.68,0,0,1,1-.44Z" style="fill:#37474f"></path><path d="M143.93,141.54,100.09,336.1a1.11,1.11,0,0,1-.54.73l-2.85,1.65a3,3,0,0,1-1.48.36l1.22-5.35L139,144.36Z" style="fill:#455a64"></path><path d="M148.83,403.74v5.63a3.35,3.35,0,0,1-1.58-.36l0,0-2.65-1.53a1.1,1.1,0,0,1-.64-.91V237.6l4.9,2.82Z" style="fill:#37474f"></path><path d="M153.72,237.61v169a1.11,1.11,0,0,1-.65.85L150.43,409a3.14,3.14,0,0,1-1.6.39v-169Z" style="fill:#455a64"></path><path d="M212.23,372.76a3.34,3.34,0,0,1-1.52-.44L208,370.75a1.39,1.39,0,0,1-.67-.95l-29.14-152,4.89,2.82,28.12,146.65Z" style="fill:#37474f"></path><path d="M217.11,369.91v0a1.11,1.11,0,0,1-.67.92L214,372.31l-.12.07a3.32,3.32,0,0,1-1.6.38l-1-5.47L183.07,220.64l4.91-2.81L217.07,369.7v0Z" style="fill:#455a64"></path><polygon points="152.03 374.22 207.44 342.23 207.44 336.59 152.03 368.58 152.03 374.22" style="fill:#455a64"></polygon><path d="M106.83,272.45v2a3.45,3.45,0,0,0,1.57,2.71l16.41,9.47a3.43,3.43,0,0,0,3.12,0l74.9-43.23a3.46,3.46,0,0,0,1.56-2.71v-2a3.44,3.44,0,0,0-1.56-2.7l-16.41-9.48a3.45,3.45,0,0,0-3.13,0L108.4,269.74A3.45,3.45,0,0,0,106.83,272.45Z" style="fill:#61F9FF"></path><path d="M108.4,271.55,124.81,281a3.43,3.43,0,0,0,3.12,0l74.9-43.23a1,1,0,0,0,0-1.8l-16.41-9.48a3.45,3.45,0,0,0-3.13,0L108.4,269.74A1,1,0,0,0,108.4,271.55Z" style="fill:#fff;opacity:0.4"></path><path d="M126.37,281.4V287a3.27,3.27,0,0,1-1.56-.37l-16.41-9.48a3.48,3.48,0,0,1-1.56-2.7v-2a3.45,3.45,0,0,1,1.25-2.48c-.54.49-.43,1.15.31,1.58L124.81,281A3.3,3.3,0,0,0,126.37,281.4Z" style="opacity:0.1"></path><path d="M102.45,287.07l-4.56-2.64a6.21,6.21,0,0,1-2.78-4.5L85.7,116.73a5.32,5.32,0,0,1,2.43-4.5L195.21,50.49a5.74,5.74,0,0,1,5.2,0L205,53.13a6.17,6.17,0,0,1,2.77,4.5l9.42,163.2a5.32,5.32,0,0,1-2.43,4.5L107.66,287.07A5.76,5.76,0,0,1,102.45,287.07Z" style="fill:#e0e0e0"></path><path d="M207.69,57.18c-.28-1.32-1.41-1.79-2.72-1L97.89,117.87a4.94,4.94,0,0,0-1.79,2l-9.78-5.64a5.21,5.21,0,0,1,1.81-2L195.21,50.5a5.78,5.78,0,0,1,5.19,0l4.6,2.65A6.24,6.24,0,0,1,207.69,57.18Z" style="fill:#fafafa"></path><path d="M95.46,122.37l9.42,163.2a1.71,1.71,0,0,0,2.78,1.5l107.08-61.74a5.32,5.32,0,0,0,2.43-4.5l-9.42-163.2a1.7,1.7,0,0,0-2.77-1.5L97.89,117.87A5.37,5.37,0,0,0,95.46,122.37Z" style="fill:#f0f0f0"></path><path d="M128.11,89.16l9.69,5.6a2.9,2.9,0,0,0,2.63,0l26.12-15.08a2.92,2.92,0,0,0,1.31-2.28V75.7a2.92,2.92,0,0,0-1.31-2.28l-9.7-5.6a2.94,2.94,0,0,0-2.62,0L128.11,82.9a2.91,2.91,0,0,0-1.32,2.28v1.71A2.89,2.89,0,0,0,128.11,89.16Z" style="fill:#61F9FF"></path><path d="M128.11,84.42,137.8,90a2.9,2.9,0,0,0,2.63,0l26.12-15.08a.8.8,0,0,0,0-1.52l-9.7-5.6a2.94,2.94,0,0,0-2.62,0L128.11,82.9A.8.8,0,0,0,128.11,84.42Z" style="fill:#fff;opacity:0.4"></path><path d="M139,90.33v4.72a2.48,2.48,0,0,1-1.15-.29l-9.69-5.59a2.91,2.91,0,0,1-1.31-2.28V85.18a2.89,2.89,0,0,1,1.07-2.1c-.48.4-.4,1,.24,1.34L137.8,90A2.49,2.49,0,0,0,139,90.33Z" style="opacity:0.1"></path><path d="M130.51,34.83a2.12,2.12,0,0,1,1-1.89l6-3.47a2.42,2.42,0,0,1,2.19,0l2.44,1.4a2.8,2.8,0,0,1,1.22,1.89l4,39.05L135,78.92Z" style="fill:#455a64"></path><path d="M139.11,76.55,135,78.92l-4.5-44.08a2.11,2.11,0,0,1,.22-1.06l4.63,2.66a2,2,0,0,0-.22,1.07Z" style="fill:#263238"></path><path d="M135.14,37.5a2.11,2.11,0,0,1,1-1.89l6-3.47a.75.75,0,0,1,1.22.62l4,39.05-8.22,4.74Z" style="fill:#37474f"></path></g></g><g id="freepik--paint-buckets--inject-8"><g id="freepik--Paint--inject-8"><path d="M448,348.61H398.83l2.22,34.94h0c0,3.25,2.07,6.51,6.33,9,8.52,5,22.41,5.19,31,.34,4.35-2.45,6.52-5.71,6.52-9Z" style="fill:#37474f"></path><path d="M406.1,337.72c-9.66,5.45-9.76,14.44-.22,20.09s25.12,5.81,34.78.37,9.77-14.43.22-20.08S415.76,332.28,406.1,337.72Z" style="fill:#455a64"></path><path d="M445.85,348.19a5.91,5.91,0,0,1-.35,1.92c-.75,2.31-2.75,4.45-5.88,6.21A33.49,33.49,0,0,1,423.24,360c-6.18-.08-12-1.49-16.27-4-3-1.79-5-4-5.7-6.2a6.11,6.11,0,0,1-.35-2.06c.05-3,2.25-5.89,6.24-8.11,4.33-2.46,10.16-3.78,16.35-3.7A33.14,33.14,0,0,1,439.8,340C443.74,342.27,445.88,345.19,445.85,348.19Z" style="fill:#263238"></path><path d="M423.51,352.08c-6.19-.05-12,1.26-16.35,3.72l-.24.14.05,0c4.31,2.55,10.09,4,16.27,4a33.49,33.49,0,0,0,16.38-3.69l.23-.14-.05,0A33.47,33.47,0,0,0,423.51,352.08Z" style="fill:#61F9FF"></path><path d="M425.09,360a15.21,15.21,0,0,1-4.47-1.68,6.39,6.39,0,0,1-3-3.31,3.22,3.22,0,0,1-.19-1.1,3.62,3.62,0,0,1,.35-1.43,29.77,29.77,0,0,0-10.58,3.34l-.24.14.05,0c4.31,2.55,10.09,4,16.27,4C423.86,360,424.48,360,425.09,360Z" style="fill:#263238;opacity:0.15"></path><path d="M432.73,361.73c1-.54,1.73-.08,1.72,1a3.81,3.81,0,0,1-1.76,3c-1,.55-1.74.09-1.72-1A3.85,3.85,0,0,1,432.73,361.73Z" style="fill:#263238"></path><path d="M399.4,358.37c-2.12,5.42-3.76,12.81,1,16.32.26.19.5.36.76.53l0,2.29c-.62-.38-1.27-.81-1.89-1.27-7.05-5.22-2.74-16.66,0-22.22Z" style="fill:#e0e0e0"></path><path d="M433.55,364.18c-.27.55-7.05,13.52-18.2,16.12a16.25,16.25,0,0,1-3.84.46,19.4,19.4,0,0,1-10.39-3.25l0-2.29c4.61,3.2,9.24,4.3,13.78,3.24,10.29-2.41,16.88-15,16.93-15.16a1,1,0,0,1,1.29-.4A.92.92,0,0,1,433.55,364.18Z" style="fill:#e0e0e0"></path></g><g id="freepik--paint--inject-8"><path d="M86.79,323.16H37.64l2.21,34.95h0c0,3.24,2.07,6.51,6.33,9,8.51,5,22.41,5.19,31,.34,4.36-2.45,6.53-5.71,6.52-9Z" style="fill:#37474f"></path><path d="M44.91,312.28c-9.67,5.44-9.76,14.44-.22,20.09s25.12,5.81,34.78.37,9.77-14.43.22-20.08S54.57,306.84,44.91,312.28Z" style="fill:#455a64"></path><path d="M84.66,322.74a6.19,6.19,0,0,1-.35,1.93c-.75,2.3-2.76,4.44-5.89,6.21a33.56,33.56,0,0,1-16.37,3.69c-6.19-.08-12-1.5-16.27-4-3-1.79-5-4-5.7-6.21a6.07,6.07,0,0,1-.35-2.06c.05-3,2.25-5.88,6.23-8.11,4.34-2.46,10.17-3.77,16.35-3.69a33.26,33.26,0,0,1,16.3,4C82.54,316.83,84.68,319.75,84.66,322.74Z" style="fill:#263238"></path><path d="M45.78,330.53c4.3,2.54,10.08,4,16.27,4a33.56,33.56,0,0,0,16.37-3.69A12.49,12.49,0,0,0,84,325.34a12.8,12.8,0,0,0-5.43-5.49,33.15,33.15,0,0,0-16.3-4c-6.18-.08-12,1.23-16.35,3.69A12.61,12.61,0,0,0,40.34,325,12.69,12.69,0,0,0,45.78,330.53Z" style="fill:#61F9FF"></path><path d="M78.42,330.88l.7-.42a37.21,37.21,0,0,1-11.43,1.61,33.44,33.44,0,0,1-16.27-4c-3-1.79-5-4-5.7-6.21a6,6,0,0,1-.34-2,12.13,12.13,0,0,0-5,5.17,12.69,12.69,0,0,0,5.44,5.51c4.3,2.54,10.08,4,16.27,4A33.56,33.56,0,0,0,78.42,330.88Z" style="fill:#263238;opacity:0.15"></path><path d="M71.54,336.29c1-.54,1.73-.08,1.72,1a3.86,3.86,0,0,1-1.77,3c-1,.54-1.73.09-1.72-1A3.81,3.81,0,0,1,71.54,336.29Z" style="fill:#263238"></path><path d="M38.21,332.92c-2.12,5.43-3.77,12.82,1,16.33.27.19.51.36.77.52l0,2.3c-.63-.39-1.27-.81-1.89-1.27-7-5.23-2.74-16.66,0-22.22Z" style="fill:#e0e0e0"></path><path d="M72.35,338.74c-.26.55-7,13.52-18.19,16.12a16.32,16.32,0,0,1-3.85.45,19.38,19.38,0,0,1-10.38-3.24l0-2.3c4.61,3.2,9.24,4.3,13.78,3.25,10.29-2.41,16.88-15,16.93-15.16a1,1,0,0,1,1.29-.41A.93.93,0,0,1,72.35,338.74Z" style="fill:#e0e0e0"></path></g></g><g id="freepik--Character--inject-8"><g id="freepik--character--inject-8"><path d="M307.3,132.9c-4.88-.67-8.49,1.12-12.06,6.31s-20.11,33.13-20.11,33.13L249.8,143.76c-3.44-4.15-5.89-6.87-10.75-9.19a12.7,12.7,0,0,0-6.07,0c-6.08,1.82-16.32,11.22-8.49,15.68,4.65,2.66,8.14,2.29,12.21,3.65,1.32.44,3.88,3,6.73,6.83,6.43,8.61,19.53,24.87,23.1,28.24,6.24,5.88,11.51,9.23,19.09.18C295,178,307.3,159.91,307.3,159.91v-27" style="fill:#ffa8a7"></path><path d="M235.11,142.78l-9.3,8.14a4,4,0,0,1,1.09.46l5.42-3.87c1.76-1.25,3.89-2.92,3.89-2.92s4.62-.61,6.53-2.17S235.11,142.78,235.11,142.78Z" style="fill:#f28f8f"></path><g id="freepik--Brush--inject-8"><path d="M209.06,159.35h0a216.12,216.12,0,0,1,16.53-16,152.23,152.23,0,0,1,21.1-14.66h0l0,0h0a.83.83,0,0,1,.75,0,.85.85,0,0,1,.37,1.14.91.91,0,0,1-.11.16h0s-9.23,11.54-17.7,18.75a214.61,214.61,0,0,1-18.34,13.72h0a1.06,1.06,0,0,1-1,0,3.22,3.22,0,0,1-1.89-2.22A1,1,0,0,1,209.06,159.35Z" style="fill:#61F9FF"></path><path d="M247.86,129.85a.91.91,0,0,1-.11.16h0s-9.23,11.54-17.7,18.75c-5.7,4.85-12,9.39-15.56,11.83l-1.34-2.27s34.79-29,34.34-29.61A.85.85,0,0,1,247.86,129.85Z" style="opacity:0.1"></path><path d="M209.54,161.62c-.28.71-1.78,4.57-4.45,6a3.15,3.15,0,0,0-.93-.72c-1.36-.7-2.21.24-3.29-.17s-.56-2.44-.56-2.46h0a8.92,8.92,0,0,1,3.74-3.91,9,9,0,0,1,5-1l2.65,3.13h0Z" style="fill:#455a64"></path><path d="M207.47,169.41c-1.37,0-1.62-.94-2.38-1.78,2.67-1.44,4.17-5.3,4.45-6l2.17.86c-.13.44-.26.92-.41,1.43l-.12.38c-.09.25-.18.52-.29.78a10.44,10.44,0,0,1-.59,1.22,9.44,9.44,0,0,1-.52.83,10.36,10.36,0,0,1-1.46,1.65A6.1,6.1,0,0,1,207.47,169.41Z" style="fill:#37474f"></path><path d="M207.45,169.42a4.39,4.39,0,0,1-.47.27l0,0-.37.17-.15.06-.11,0-.21.07-.26.07-.58.13-.58.08-.58,0a9.2,9.2,0,0,1-3.46-.65l-.23-.1-.07,0-.26-.12a10.24,10.24,0,0,1-1.5-.94c-.21-.16-.4-.31-.58-.47l-.46-.43-.19-.2-.16-.19a2,2,0,0,1-.25-.3,2.53,2.53,0,0,1-.2-.27,3.6,3.6,0,0,0,2.81-1.32,6.55,6.55,0,0,0,.77-1.06s-.51,2,.56,2.46,1.93-.53,3.29.17a3.15,3.15,0,0,1,.93.72c.76.84,1,1.8,2.38,1.78Z" style="fill:#61F9FF"></path><path d="M196.73,166.66a9.5,9.5,0,0,0,6.83,1.48,4.68,4.68,0,0,0,1.53-.51c.76.84,1,1.8,2.38,1.78h0a4.39,4.39,0,0,1-.47.27l0,0-.37.17-.15.06-.11,0-.21.07-.26.07-.58.13-.58.08-.58,0a9.2,9.2,0,0,1-3.46-.65l-.23-.1-.07,0-.26-.12a10.24,10.24,0,0,1-1.5-.94c-.21-.16-.4-.31-.58-.47l-.46-.43-.19-.2-.16-.19a2,2,0,0,1-.25-.3,2.53,2.53,0,0,1-.2-.27Z" style="opacity:0.1"></path><path d="M211.71,162.48a1.06,1.06,0,0,1-1,0,3.22,3.22,0,0,1-1.89-2.22,1,1,0,0,1,.19-.94c1.09-1.19,2.31-2.46,3.61-3.79a1.32,1.32,0,0,0-.26,1.22,4.07,4.07,0,0,0,2.38,2.8,1.29,1.29,0,0,0,1.26-.08C214.38,160.67,212.8,161.76,211.71,162.48Z" style="fill:#ebebeb"></path><path d="M213.15,158.32a3.79,3.79,0,0,0,1.64,1.26,1.29,1.29,0,0,0,1.26-.08c-1.67,1.17-3.25,2.26-4.34,3a1.06,1.06,0,0,1-1,0,3.12,3.12,0,0,1-1.22-.89v-.05l3.61-3.25Z" style="fill:#e0e0e0"></path></g><path d="M237.56,134.3a20.48,20.48,0,0,0-3.88-1.07,9.92,9.92,0,0,0-4.24-.37,3,3,0,0,0-1.52.55,4.57,4.57,0,0,0-1,1.31c-1.57,2.45-4.29,3.84-5.86,6.26-1.39,2.15-3,8.34-1.35,9.82,1,.92,3.09-1.49,3.87-3.28.35,1.38,2.37.79,3.73-2.12,1.13-2.4,2.42-5.54,2.42-5.54Z" style="fill:#ffa8a7"></path><path d="M229.24,137.47a1.69,1.69,0,0,0-.65,1.6,4.39,4.39,0,0,0,.66,1.87l.45-1.08Z" style="fill:#f28f8f"></path><path d="M249.8,143.76c-2.82-3.34-5.35-6.12-8.18-6.84-3.8-1-4.71,0-9.09-.31-6.22-.43-3.33,4.86,1.95,6s8.26-.23,8.26-.23S247.61,149.54,249.8,143.76Z" style="fill:#ffa8a7"></path><path d="M316.17,122.07h10.14A25.08,25.08,0,0,0,351.39,97h0a30.16,30.16,0,0,0-30.15-30.16h0a31.33,31.33,0,0,0-18,6c-19.14-.65-19.37,23.53-6.21,27.89C297,114.54,302.31,122.07,316.17,122.07Z" style="fill:#263238"></path><path d="M334.9,119.25c.12,3.42,0,8.5,5.8,11.28,0,0-3.33,6.83,3.44,10.08,0,0-2.55,6.78,3.08,9.77a8.36,8.36,0,0,0,2.65,9.44s-4.2,6.49,0,10.73a9.15,9.15,0,0,0-2.65,5c-.42,3,1.27,7.14,4.17,8,0,0-2-2.64,0-4.73s3.91-4.46,1.41-7.72c0,0,5.61-2.84,2-11.3,0,0,4.76-6.15-1.24-10.73,0,0,4.15-7.07-2.82-10.56,0,0,3.91-4.76-1.25-10.78,0,0,7.26-9.81-3.28-18Z" style="fill:#263238"></path><path d="M354.89,391.85a68,68,0,0,1,1,10.93c.12,6.63,1.34,9,1.5,14.42.19,6.22-.89,8.54-3.41,12s-9.15,6.66-11.94.76-2.44-9.78-1.55-15.88c.93-6.3,1-9.79,1.58-14.6.47-4.23,1-7.45,1-7.45Z" style="fill:#263238"></path><path d="M336.07,347.81l21.84-.4c-.33,14.58-2.65,30.76-3,44.44-.08,2.58.06,20-.91,25.31-1.46,8-10.91,6.89-11.41,2.12s.61-25.11.58-27.21c.08-8.78-4-23.59-6.19-39.34C336.86,352,336.17,348.56,336.07,347.81Z" style="fill:#ffa8a7"></path><path d="M308,380.51s.86-.46,1,.45c.21,1.1.53,3.36,1,5.15.63,2.5,1.16,6.62.78,8.65s-5.12,4.66-8.2,5.6a25.19,25.19,0,0,0-10.16,6c-3.05,2.87-9.63,5.59-14.12,5.55-5.3,0-9-1.76-10.75-4.61s1.59-3.18,7.66-7.11l4.7-3.06c9.61-6.27,13.13-9.64,15.84-15.91Z" style="fill:#263238"></path><path d="M295.71,376.62c.16-4.51-2.94-42.81-2.94-42.81l20.75,9.46c-4.45,26.51-5.39,32.76-5.47,37.1h0a4.14,4.14,0,0,1,.12,1.11c0,5.15-5.83,7.93-10.37,11.36a84.57,84.57,0,0,1-12.26,8c-3.3,1.65-10,1.8-10.82-.32,5.52-4.21,13.55-10.52,17.94-15.33C294.75,382.9,295.55,381.14,295.71,376.62Z" style="fill:#ffa8a7"></path><path d="M349,205.55c8,17.49,8,31,6.64,53.33-1.2,20.46-3.13,38.48-3.13,38.48.31,3.63,5.36,10.72,6,26.77.61,15-1,34.07-1,34.07s-11.33,6.29-19.71-.05c0,0-8.09-38.61-10.46-57.39-2.06-16.39-5.66-37.33-5.66-37.33L314,300.67s2.9,9.19,3.57,16.18c1.07,11-5.1,32.74-5.1,32.74s-11.71,3.49-18.86-2.85c0,0-2.68-35.27-3.67-48.57-1.34-17.82,1.47-66.07,3.67-91.61Z" style="fill:#37474f"></path><path d="M321.62,263.43l-3.14-28s-14.1-1.88-20.48-7.88c0,0,3.27,8.75,15.08,10.45l3.34,25.34L314,300.67Z" style="fill:#263238"></path><path d="M331.9,133.54h0c4.21.29,11.88,1,11.88,1,4.42,2.47,5.54,4.49,6.36,10.36.35,2.5-1.69,9.17-3.44,18.64l-3.31,17.56.36,8.71c1.72,5.32,5.61,11.92,9.05,21.66-16.88,9.42-31,9.77-43.88,8.12-9.79-1.25-15-3.62-16.69-6,.36-9.62,1.15-15.55,1.32-25.6.07-4.22-.3-8.49-.46-13.35-6.57-5.4-6.65-14.37-3.06-20.17,8.32-13.47,16.41-22,21.77-21.52Z" style="fill:#61F9FF"></path><path d="M331.9,133.54h0c4.21.29,11.88,1,11.88,1,4.42,2.47,5.54,4.49,6.36,10.36.35,2.5-1.69,9.17-3.44,18.64l-3.31,17.56.36,8.71c1.72,5.32,5.61,11.92,9.05,21.66-16.88,9.42-31,9.77-43.88,8.12-9.79-1.25-15-3.62-16.69-6,.36-9.62,1.15-15.55,1.32-25.6.07-4.22-.3-8.49-.46-13.35-6.57-5.4-6.65-14.37-3.06-20.17,8.32-13.47,16.41-22,21.77-21.52Z" style="fill:#fff;opacity:0.6000000000000001"></path><path d="M295.7,105.93c.33,14.59,5.07,18.2,7.44,19.24s7,.4,11.4-.33v8.75s-5.13,5.38-4.74,9.4,8.06,4.46,13.83.54a44.27,44.27,0,0,0,8.52-7.7,3.12,3.12,0,0,0,.73-2V113.2s2.44,2.59,6.75-.37a8,8,0,0,0,2-11.55c-1.87-2.2-6.64-2.36-8.93,1.07-1.29,2.52-1.46,5.05-2.91,4-3.84-2.77-3-8.41-4.62-9.67-2.31-1.84-4.85-2-9.38-3.49-4.19-1.4-11.54-4.76-14.36-12C298.21,83.12,295.3,88.71,295.7,105.93Z" style="fill:#ffa8a7"></path><path d="M311.9,103a2,2,0,1,0,2.06-1.94A2,2,0,0,0,311.9,103Z" style="fill:#263238"></path><path d="M297.56,102.52a1.88,1.88,0,0,0,1.75,2,1.77,1.77,0,0,0,1.95-1.83,1.85,1.85,0,1,0-3.7-.18Z" style="fill:#263238"></path><polygon points="306.7 100.69 306.38 112.96 299.92 110.96 306.7 100.69" style="fill:#f28f8f"></polygon><path d="M314.55,124.83c4.69-.61,14.35-3.39,15.85-7.2A9.91,9.91,0,0,1,327,122.5c-2.89,2.47-12.47,5.25-12.47,5.25Z" style="fill:#f28f8f"></path><path d="M313.1,96.62l5,2.17a2.88,2.88,0,0,0-1.49-3.7A2.68,2.68,0,0,0,313.1,96.62Z" style="fill:#263238"></path><path d="M315,114.18l-6.14,2.14a3.18,3.18,0,0,0,4.07,2.09A3.25,3.25,0,0,0,315,114.18Z" style="fill:#b16668"></path><path d="M297.16,97.71l4.48-2.33a2.42,2.42,0,0,0-3.33-1.13A2.64,2.64,0,0,0,297.16,97.71Z" style="fill:#263238"></path><path d="M290.79,153.24c12,4.88,23.35,4.41,29.88,3.94,3.77-.28,6,0,6.54,6.85.26,3.41,2.17,28.15,2.17,28.15s-20,5.31-36-2.09c0,0-5.59-19.11-6.14-25.42S290.79,153.24,290.79,153.24Z" style="fill:#61F9FF"></path><path d="M290.79,153.24c12,4.88,23.35,4.41,29.88,3.94,3.77-.28,6,0,6.54,6.85.26,3.41,2.17,28.15,2.17,28.15s-20,5.31-36-2.09c0,0-5.59-19.11-6.14-25.42S290.79,153.24,290.79,153.24Z" style="fill:#263238;opacity:0.30000000000000004"></path><path d="M293.15,196.52s-1.16,12.11-2.56,29.65-2.69,38.17-2.93,41.88,7.83,7.57,16.81,9.61c9.9,2.24,21.39,2.95,26.32,2.24s7.58-2.12,7.72-7.26-8.65-73.89-8.65-73.89Z" style="fill:#61F9FF"></path><path d="M293.15,196.52s-1.16,12.11-2.56,29.65-2.69,38.17-2.93,41.88,7.83,7.57,16.81,9.61c9.9,2.24,21.39,2.95,26.32,2.24s7.58-2.12,7.72-7.26-8.65-73.89-8.65-73.89Z" style="fill:#263238;opacity:0.30000000000000004"></path><path d="M293.39,190.09c6,2.18,24.8,6.38,50.31-1.53l1.93,6a79,79,0,0,1-52.48,2Z" style="fill:#61F9FF"></path><path d="M293.39,190.09c6,2.18,24.8,6.38,50.31-1.53l1.93,6a79,79,0,0,1-52.48,2Z" style="fill:#263238;opacity:0.45"></path><path d="M334.23,133.71c-3.8,2-17.27,12.64-18.1,26.85,0,3.36,5.87,3.36,5.87,0,0,0,.17-7.33,7.38-15.8,7.09-8.32,12.6-10.56,12.6-10.56A34.38,34.38,0,0,0,334.23,133.71Z" style="fill:#61F9FF"></path><path d="M307.3,132.9c-3.8,2-12.41,8.07-17.57,23.1-.88,3.57,4.38,4.5,5.26.93,0,0,1.08-4.84,7.05-13.35,5.72-8.16,12.51-10.57,12.51-10.57S312.79,132.2,307.3,132.9Z" style="fill:#61F9FF"></path><g style="opacity:0.55"><path d="M334.23,133.71c-3.8,2-17.27,12.64-18.1,26.85,0,3.36,5.87,3.36,5.87,0,0,0,.17-7.33,7.38-15.8,7.09-8.32,12.6-10.56,12.6-10.56A34.38,34.38,0,0,0,334.23,133.71Z" style="fill:#263238"></path><path d="M307.3,132.9c-3.8,2-12.41,8.07-17.57,23.1-.88,3.57,4.38,4.5,5.26.93,0,0,1.08-4.84,7.05-13.35,5.72-8.16,12.51-10.57,12.51-10.57S312.79,132.2,307.3,132.9Z" style="fill:#263238"></path></g><path d="M320.74,159.91a1.76,1.76,0,1,1-1.76-1.76A1.75,1.75,0,0,1,320.74,159.91Z" style="fill:#263238"></path><path d="M294.28,156a1.76,1.76,0,1,1-1.76-1.76A1.76,1.76,0,0,1,294.28,156Z" style="fill:#263238"></path><path d="M292.07,208.49c5.08,2.6,20.62,4.06,30.51,2.65,0,0,.46,16.88,0,19.65s-1.24,4.38-7,4.76c-7,.46-18.55-.7-23.49-3.35-2.83-1.52-2.6-2-2.47-6.83C289.71,221.28,292.07,208.49,292.07,208.49Z" style="fill:#61F9FF"></path><path d="M292.07,208.49c5.08,2.6,20.62,4.06,30.51,2.65,0,0,.46,16.88,0,19.65s-1.24,4.38-7,4.76c-7,.46-18.55-.7-23.49-3.35-2.83-1.52-2.6-2-2.47-6.83C289.71,221.28,292.07,208.49,292.07,208.49Z" style="fill:#263238;opacity:0.55"></path><path d="M342,134.2c4.46,0,8.58-.24,12.15,4.2S375,172.06,379,178.84s5.13,11.25,0,16c-5.52,5.1-34,23.51-34,23.51l-11-9.65,26.52-22.83-18.37-25.4S332.41,145.4,342,134.2Z" style="fill:#ffa8a7"></path><path d="M345.09,218.34C339,223,329.38,230.7,319.49,230.7c-12.55,0-19.67-7-15.36-10.76s20.35-5.33,30-11.25Z" style="fill:#ffa8a7"></path><path d="M356.76,197.45c-9.51-4.15-19.84-4.27-24.79-1.63s-4.5,5.74-4.14,8.68c.29,2.4-3.3,5.16-12.32,3.74-9.53-1.51-19.64-.69-23.4,4.6-4.79,6.72,6.34,15.49,23.18,19.81,23.11,5.93,48.18,1.15,57.25-11.16C381.09,209.85,363.68,200.47,356.76,197.45Z" style="fill:#263238"></path><path d="M313.25,220.18c-2.48,1.42-6.22,1.58-8.36.34s-1.87-3.39.6-4.82,6.21-1.58,8.36-.35S315.72,218.75,313.25,220.18Z" style="fill:#61F9FF"></path><path d="M330.94,227.58c-2.47,1.43-6.21,1.58-8.35.35s-1.88-3.4.6-4.83,6.21-1.58,8.35-.34S333.41,226.15,330.94,227.58Z" style="fill:#61F9FF"></path><path d="M352.19,227.16c-2.47,1.43-6.21,1.58-8.35.35s-1.88-3.4.6-4.83,6.21-1.58,8.35-.34S354.66,225.73,352.19,227.16Z" style="fill:#61F9FF"></path><path d="M365.51,217.18c-2.47,1.42-6.21,1.58-8.35.34s-1.87-3.39.6-4.82,6.21-1.58,8.35-.35S368,215.75,365.51,217.18Z" style="fill:#61F9FF"></path><path d="M354.89,206.56c-2.47,1.42-6.21,1.58-8.35.34s-1.87-3.39.6-4.82,6.21-1.58,8.35-.35S357.37,205.13,354.89,206.56Z" style="fill:#61F9FF"></path><path d="M313.25,220.18c-2.48,1.42-6.22,1.58-8.36.34s-1.87-3.39.6-4.82,6.21-1.58,8.36-.35S315.72,218.75,313.25,220.18Z" style="fill:#fafafa;opacity:0.7000000000000001"></path><path d="M330.94,227.58c-2.47,1.43-6.21,1.58-8.35.35s-1.88-3.4.6-4.83,6.21-1.58,8.35-.34S333.41,226.15,330.94,227.58Z" style="fill:#fafafa;opacity:0.4"></path><path d="M365.51,217.18c-2.47,1.42-6.21,1.58-8.35.34s-1.87-3.39.6-4.82,6.21-1.58,8.35-.35S368,215.75,365.51,217.18Z" style="opacity:0.30000000000000004"></path><path d="M354.89,206.56c-2.47,1.42-6.21,1.58-8.35.34s-1.87-3.39.6-4.82,6.21-1.58,8.35-.35S357.37,205.13,354.89,206.56Z" style="opacity:0.5"></path><path d="M337,206.39c-3-.82-4.19-1.07-7.15-1.87a11.17,11.17,0,0,0-9.4,1.3c-2.71,1.66-6.66,3.76-6.07,4.77,1.07,1.83,4.73,1.65,8.32.63,2.14-.61,5.25,1,9.35,1S342.23,208.36,337,206.39Z" style="fill:#ffa8a7"></path></g></g><g id="freepik--Brushes--inject-8"><g id="freepik--Penciles--inject-8"><g id="freepik--pencil-can--inject-8"><g id="freepik--Can--inject-8"><path d="M258.86,331.16H225.05l3.78,31.12h0c.17,1.8,1.44,3.58,3.82,5,5.14,3,13.47,3,18.61,0,2.38-1.37,3.65-3.15,3.82-5h0Z" style="fill:#61F9FF"></path><path d="M258.86,331.16H225.05l3.78,31.12h0c.17,1.8,1.44,3.58,3.82,5,5.14,3,13.47,3,18.61,0,2.38-1.37,3.65-3.15,3.82-5h0Z" style="fill:#fff;opacity:0.65"></path><path d="M230,324.25c6.61-3.81,17.32-3.81,23.93,0s6.61,10,0,13.82-17.32,3.81-23.93,0S223.4,328.07,230,324.25Z" style="fill:#61F9FF"></path><path d="M230,324.25c6.61-3.81,17.32-3.81,23.93,0s6.61,10,0,13.82-17.32,3.81-23.93,0S223.4,328.07,230,324.25Z" style="fill:#fff;opacity:0.8"></path><path d="M242,339a22.39,22.39,0,0,1-11-2.59c-2.56-1.48-4-3.33-4-5.21s1.41-3.73,4-5.21a24.51,24.51,0,0,1,22,0c2.56,1.48,4,3.33,4,5.21s-1.41,3.73-4,5.21A22.46,22.46,0,0,1,242,339Z" style="fill:#263238"></path></g><g style="clip-path:url(#freepik--clip-path--inject-8)"><g id="freepik--brush--inject-8"><path d="M232.7,308.17h0a213.94,213.94,0,0,1,4.61,22.51,152,152,0,0,1,1.07,25.67v0h0a.83.83,0,0,1-.41.63.84.84,0,0,1-1.16-.3.51.51,0,0,1-.07-.17h0s-4.79-14-6.34-25a217.3,217.3,0,0,1-1.76-22.83h0a1.06,1.06,0,0,1,.49-.82,3.21,3.21,0,0,1,2.88-.41A1.06,1.06,0,0,1,232.7,308.17Z" style="fill:#61F9FF"></path><path d="M236.81,356.73a.51.51,0,0,1-.07-.17h0s-4.79-14-6.34-25c-1-7.41-1.48-15.18-1.65-19.48l2.64.09S237.24,357.09,238,357A.84.84,0,0,1,236.81,356.73Z" style="opacity:0.1"></path><path d="M230.52,307.36c-.45-.62-2.9-4-2.69-7a3.47,3.47,0,0,0,1.11-.4c1.32-.78,1-2,1.91-2.68s2.36.83,2.37.84h0a8.91,8.91,0,0,1,1.3,5.25,9.13,9.13,0,0,1-1.82,4.78l-4.07.55h0Z" style="fill:#455a64"></path><path d="M225.05,301.43c.72-1.16,1.67-.86,2.78-1.05-.21,3,2.24,6.36,2.69,7l-1.89,1.36c-.3-.34-.64-.7-1-1.1l-.26-.31c-.17-.21-.34-.43-.51-.67a9.78,9.78,0,0,1-.71-1.15,9,9,0,0,1-.42-.88,10.18,10.18,0,0,1-.61-2.12A6.5,6.5,0,0,1,225.05,301.43Z" style="fill:#37474f"></path><path d="M225.05,301.41l0-.54a.13.13,0,0,0,0-.06l.06-.4,0-.15,0-.12a1.6,1.6,0,0,1,0-.21c0-.09.05-.17.07-.26a5.37,5.37,0,0,1,.21-.56,5.05,5.05,0,0,1,.24-.53c.09-.17.19-.34.29-.51a9.09,9.09,0,0,1,2.4-2.57l.21-.15.06,0,.24-.15a10.88,10.88,0,0,1,1.59-.77c.25-.09.49-.17.71-.23l.62-.16.27-.05.24,0a3.47,3.47,0,0,1,.39-.05l.33,0a3.6,3.6,0,0,0-.39,3.08,6.17,6.17,0,0,0,.48,1.22s-1.45-1.53-2.37-.84-.59,1.9-1.91,2.68a3.47,3.47,0,0,1-1.11.4c-1.11.19-2.06-.11-2.78,1.05Z" style="fill:#61F9FF"></path><path d="M233.13,293.84a9.54,9.54,0,0,0-4.91,5,4.48,4.48,0,0,0-.39,1.56c-1.11.19-2.06-.11-2.78,1.05v0l0-.54a.13.13,0,0,0,0-.06l.06-.4,0-.15,0-.12a1.6,1.6,0,0,1,0-.21c0-.09.05-.17.07-.26a5.37,5.37,0,0,1,.21-.56,5.05,5.05,0,0,1,.24-.53c.09-.17.19-.34.29-.51a9.09,9.09,0,0,1,2.4-2.57l.21-.15.06,0,.24-.15a10.88,10.88,0,0,1,1.59-.77c.25-.09.49-.17.71-.23l.62-.16.27-.05.24,0a3.47,3.47,0,0,1,.39-.05l.33,0Z" style="opacity:0.1"></path><path d="M228.63,308.72a1.06,1.06,0,0,1,.49-.81,3.21,3.21,0,0,1,2.88-.41,1.08,1.08,0,0,1,.7.67c.41,1.56.83,3.27,1.26,5.07a1.35,1.35,0,0,0-.89-.87,4.07,4.07,0,0,0-3.64.51,1.33,1.33,0,0,0-.61,1.11C228.73,312,228.66,310,228.63,308.72Z" style="fill:#ebebeb"></path><path d="M231.38,312.17a3.88,3.88,0,0,0-1.95.71,1.33,1.33,0,0,0-.61,1.11c-.09-2-.16-3.95-.19-5.27a1.06,1.06,0,0,1,.49-.81,3,3,0,0,1,1.4-.55l0,0,.81,4.79Z" style="fill:#e0e0e0"></path></g><g id="freepik--brush--inject-8"><path d="M243.47,285.21h0s1.73,37,1.86,48.4a153,153,0,0,1-2.23,25.59v.05h0a.84.84,0,0,1-1.59.13.64.64,0,0,1-.06-.18h0s-3-14.48-3.08-25.61,1-48.35,1-48.35h0a1.09,1.09,0,0,1,.59-.75,3.24,3.24,0,0,1,2.91,0A1.1,1.1,0,0,1,243.47,285.21Z" style="fill:#61F9FF"></path><path d="M241.49,359.38a.64.64,0,0,1-.06-.18h0s-3-14.48-3.08-25.61c-.08-7.48.31-40.72.69-45l2.6.43s.22,70.78,1,70.82A.85.85,0,0,1,241.49,359.38Z" style="opacity:0.1"></path><path d="M241.41,284.13c-.37-.67-2.37-4.3-1.77-7.27a3.21,3.21,0,0,0,1.15-.26c1.41-.59,1.22-1.85,2.24-2.41s2.23,1.13,2.24,1.14h0a9,9,0,0,1,.62,5.38,9.15,9.15,0,0,1-2.42,4.5l-4.11,0h0Z" style="fill:#455a64"></path><path d="M236.75,277.55c.86-1.06,1.76-.64,2.89-.69-.6,3,1.4,6.6,1.77,7.27l-2,1.11c-.26-.38-.54-.78-.83-1.23l-.22-.33c-.14-.23-.28-.48-.41-.73a10,10,0,0,1-.57-1.23q-.17-.44-.3-.93a10.63,10.63,0,0,1-.33-2.18A5.27,5.27,0,0,1,236.75,277.55Z" style="fill:#37474f"></path><path d="M236.75,277.53c0-.18.06-.36.1-.54l0-.05c0-.13.07-.26.11-.39s0-.1,0-.15a1.17,1.17,0,0,1,0-.11,1.8,1.8,0,0,1,.08-.21,2.44,2.44,0,0,1,.1-.24c.09-.18.18-.36.28-.53a5.19,5.19,0,0,1,.31-.5c.11-.16.22-.31.34-.46a9.23,9.23,0,0,1,2.72-2.25l.22-.11.07,0,.26-.12a10.89,10.89,0,0,1,1.68-.55c.26-.06.5-.11.73-.14s.44-.06.63-.08l.27,0h.64l.33,0a3.62,3.62,0,0,0-.78,3,6.06,6.06,0,0,0,.32,1.27s-1.24-1.7-2.24-1.14-.83,1.82-2.24,2.41a3.21,3.21,0,0,1-1.15.26c-1.13.05-2-.37-2.89.69Z" style="fill:#61F9FF"></path><path d="M245.73,271.06a9.52,9.52,0,0,0-5.5,4.3,4.61,4.61,0,0,0-.59,1.5c-1.13.05-2-.37-2.89.69v0c0-.18.06-.36.1-.54l0-.05c0-.13.07-.26.11-.39s0-.1,0-.15a1.17,1.17,0,0,1,0-.11,1.8,1.8,0,0,1,.08-.21,2.44,2.44,0,0,1,.1-.24c.09-.18.18-.36.28-.53a5.19,5.19,0,0,1,.31-.5c.11-.16.22-.31.34-.46a9.23,9.23,0,0,1,2.72-2.25l.22-.11.07,0,.26-.12a10.89,10.89,0,0,1,1.68-.55c.26-.06.5-.11.73-.14s.44-.06.63-.08l.27,0h.64l.33,0Z" style="opacity:0.1"></path><path d="M239.36,285.24a1.09,1.09,0,0,1,.59-.75,3.24,3.24,0,0,1,2.91,0,1.1,1.1,0,0,1,.61.75c.21,1.6.4,3.35.59,5.19a1.32,1.32,0,0,0-.76-1,4.08,4.08,0,0,0-3.68,0,1.36,1.36,0,0,0-.75,1C239.05,288.45,239.22,286.54,239.36,285.24Z" style="fill:#ebebeb"></path><path d="M241.64,289a3.91,3.91,0,0,0-2,.45,1.36,1.36,0,0,0-.75,1c.18-2,.35-3.94.49-5.24a1.09,1.09,0,0,1,.59-.75,2.9,2.9,0,0,1,1.46-.36l0,0,.19,4.85Z" style="fill:#e0e0e0"></path></g><g id="freepik--brush--inject-8"><path d="M249.5,323.71l-2.7,21.92a1.41,1.41,0,0,0,.69,1.28,4.55,4.55,0,0,0,4.08.5,1.43,1.43,0,0,0,1-1.07l2.7-21.92Z" style="fill:#455a64"></path><polygon points="254.57 330.06 248.39 332.68 249.5 323.71 255.26 324.42 254.57 330.06" style="fill:#37474f"></polygon><path d="M260.33,307.2l-.54,4.46,4.13-1.75-1.11,9.17a9.66,9.66,0,0,1-5.25,7l-7.27,3.07a3.2,3.2,0,0,1-3,0c-.08,0-3.18-2.35-3.82-2.9a3.11,3.11,0,0,1-.83-2.86l1.12-9.18Z" style="fill:#37474f"></path><path d="M250.29,329.13l7.27-3.07a9.66,9.66,0,0,0,5.25-7l1.11-9.17-16.55,7-1.12,9.18C245.92,328.86,247.72,330.22,250.29,329.13Z" style="fill:#455a64"></path><polygon points="247.37 316.92 263.92 309.91 265.57 296.52 249.02 303.54 247.37 316.92" style="fill:#f0f0f0"></polygon><polygon points="247.37 316.92 249.02 303.54 245.43 300.83 243.78 314.21 247.37 316.92" style="fill:#ebebeb"></polygon><polygon points="246.89 320.9 263.44 313.89 263.22 315.71 246.65 322.82 246.89 320.9" style="fill:#61F9FF"></polygon><polygon points="246.89 320.9 243.3 318.19 243.06 320.11 246.65 322.82 246.89 320.9" style="fill:#61F9FF"></polygon><polygon points="246.89 320.9 243.3 318.19 243.06 320.11 246.65 322.82 246.89 320.9" style="opacity:0.1"></polygon><path d="M244.93,304.92s.9,3.35,3.45,3.83l.64-5.21-3.59-2.71Z" style="fill:#61F9FF"></path><path d="M244.93,304.92s.9,3.35,3.45,3.83l.64-5.21-3.59-2.71Z" style="opacity:0.1"></path><path d="M248.38,308.75a5.55,5.55,0,0,0,5.33,0c2-1.14,3.23-5.87,6.78-5.53,2.5.24,3.87,3.08,3.87,3.08l1.21-9.81-16.55,7Z" style="fill:#61F9FF"></path><polygon points="265.57 296.52 261.98 293.81 245.43 300.83 249.02 303.54 265.57 296.52" style="fill:#61F9FF"></polygon><polygon points="265.57 296.52 261.98 293.81 245.43 300.83 249.02 303.54 265.57 296.52" style="fill:#fff;opacity:0.7000000000000001"></polygon></g></g></g></g></g></svg>