<svg width="1240" height="296" viewBox="0 0 1240 296" fill="none" xmlns="http://www.w3.org/2000/svg">
<path d="M406.193 61.7241H435.49V175.748C435.49 188.716 432.677 199.576 427.052 208.326C421.427 217.076 413.771 223.677 404.083 228.13C394.474 232.505 383.732 234.693 371.857 234.693C359.591 234.693 348.654 232.505 339.044 228.13C329.435 223.677 321.857 217.076 316.31 208.326C310.841 199.576 308.107 188.716 308.107 175.748V61.7241H337.404V175.748C337.404 183.951 338.81 190.708 341.623 196.021C344.435 201.255 348.419 205.123 353.576 207.623C358.732 210.123 364.826 211.373 371.857 211.373C378.888 211.373 384.943 210.123 390.021 207.623C395.177 205.123 399.162 201.255 401.974 196.021C404.787 190.708 406.193 183.951 406.193 175.748V61.7241ZM493.029 129.927V281.099H464.787V105.552H490.802L493.029 129.927ZM575.646 167.779V170.24C575.646 179.458 574.552 188.013 572.365 195.904C570.255 203.716 567.091 210.552 562.873 216.412C558.732 222.193 553.615 226.685 547.521 229.888C541.427 233.091 534.396 234.693 526.427 234.693C518.537 234.693 511.623 233.248 505.685 230.357C499.826 227.388 494.865 223.208 490.802 217.818C486.74 212.427 483.458 206.099 480.958 198.833C478.537 191.49 476.818 183.443 475.802 174.693V165.201C476.818 155.904 478.537 147.466 480.958 139.888C483.458 132.31 486.74 125.787 490.802 120.318C494.865 114.849 499.826 110.63 505.685 107.662C511.544 104.693 518.38 103.208 526.193 103.208C534.162 103.208 541.232 104.771 547.404 107.896C553.576 110.943 558.771 115.318 562.99 121.021C567.208 126.646 570.373 133.443 572.482 141.412C574.591 149.302 575.646 158.091 575.646 167.779ZM547.404 170.24V167.779C547.404 161.919 546.857 156.49 545.763 151.49C544.669 146.412 542.951 141.958 540.607 138.13C538.263 134.302 535.255 131.333 531.583 129.224C527.99 127.037 523.654 125.943 518.576 125.943C513.576 125.943 509.279 126.802 505.685 128.521C502.091 130.162 499.083 132.466 496.662 135.435C494.24 138.404 492.365 141.88 491.037 145.865C489.708 149.771 488.771 154.029 488.224 158.638V181.373C489.162 186.998 490.763 192.154 493.029 196.841C495.294 201.529 498.498 205.279 502.638 208.091C506.857 210.826 512.248 212.193 518.81 212.193C523.888 212.193 528.224 211.099 531.818 208.912C535.412 206.724 538.341 203.716 540.607 199.888C542.951 195.982 544.669 191.49 545.763 186.412C546.857 181.333 547.404 175.943 547.404 170.24ZM703.263 176.802H732.56C731.623 187.974 728.498 197.935 723.185 206.685C717.873 215.357 710.412 222.193 700.802 227.193C691.193 232.193 679.513 234.693 665.763 234.693C655.216 234.693 645.724 232.818 637.287 229.068C628.849 225.24 621.623 219.849 615.607 212.896C609.591 205.865 604.982 197.388 601.779 187.466C598.654 177.544 597.091 166.451 597.091 154.185V140.005C597.091 127.74 598.693 116.646 601.896 106.724C605.177 96.8022 609.865 88.3257 615.958 81.2944C622.052 74.1851 629.357 68.7554 637.873 65.0054C646.466 61.2554 656.115 59.3804 666.818 59.3804C680.412 59.3804 691.896 61.8804 701.271 66.8804C710.646 71.8804 717.912 78.7944 723.068 87.6226C728.302 96.4507 731.505 106.568 732.677 117.974H703.38C702.599 110.63 700.88 104.341 698.224 99.1069C695.646 93.8726 691.818 89.8882 686.74 87.1538C681.662 84.3413 675.021 82.9351 666.818 82.9351C660.099 82.9351 654.24 84.1851 649.24 86.6851C644.24 89.1851 640.06 92.8569 636.701 97.7007C633.341 102.544 630.802 108.521 629.083 115.63C627.443 122.662 626.623 130.708 626.623 139.771V154.185C626.623 162.779 627.365 170.591 628.849 177.623C630.412 184.576 632.755 190.552 635.88 195.552C639.083 200.552 643.146 204.419 648.068 207.154C652.99 209.888 658.888 211.255 665.763 211.255C674.123 211.255 680.88 209.927 686.037 207.271C691.271 204.615 695.216 200.748 697.873 195.669C700.607 190.513 702.404 184.224 703.263 176.802ZM793.263 218.521L827.716 105.552H857.951L807.091 251.685C805.919 254.81 804.396 258.208 802.521 261.88C800.646 265.552 798.185 269.029 795.138 272.31C792.169 275.669 788.458 278.365 784.005 280.396C779.552 282.505 774.162 283.56 767.833 283.56C765.333 283.56 762.912 283.326 760.568 282.857C758.302 282.466 756.154 282.037 754.123 281.568L754.005 260.005C754.787 260.083 755.724 260.162 756.818 260.24C757.99 260.318 758.927 260.357 759.63 260.357C764.318 260.357 768.224 259.771 771.349 258.599C774.474 257.505 777.013 255.708 778.966 253.208C780.998 250.708 782.716 247.349 784.123 243.13L793.263 218.521ZM773.81 105.552L803.927 200.474L808.966 230.24L789.396 235.279L743.341 105.552H773.81ZM924.279 212.193C928.888 212.193 933.029 211.294 936.701 209.498C940.451 207.623 943.458 205.044 945.724 201.763C948.068 198.482 949.357 194.693 949.591 190.396H976.193C976.037 198.599 973.615 206.06 968.927 212.779C964.24 219.498 958.029 224.849 950.294 228.833C942.56 232.74 934.005 234.693 924.63 234.693C914.943 234.693 906.505 233.052 899.318 229.771C892.13 226.412 886.154 221.802 881.388 215.943C876.623 210.083 873.029 203.326 870.607 195.669C868.263 188.013 867.091 179.81 867.091 171.06V166.958C867.091 158.208 868.263 150.005 870.607 142.349C873.029 134.615 876.623 127.818 881.388 121.958C886.154 116.099 892.13 111.529 899.318 108.248C906.505 104.888 914.904 103.208 924.513 103.208C934.669 103.208 943.576 105.24 951.232 109.302C958.888 113.287 964.904 118.873 969.279 126.06C973.732 133.169 976.037 141.451 976.193 150.904H949.591C949.357 146.216 948.185 141.998 946.076 138.248C944.044 134.419 941.154 131.373 937.404 129.107C933.732 126.841 929.318 125.708 924.162 125.708C918.458 125.708 913.732 126.88 909.982 129.224C906.232 131.49 903.302 134.615 901.193 138.599C899.083 142.505 897.56 146.919 896.623 151.841C895.763 156.685 895.333 161.724 895.333 166.958V171.06C895.333 176.294 895.763 181.373 896.623 186.294C897.482 191.216 898.966 195.63 901.076 199.537C903.263 203.365 906.232 206.451 909.982 208.794C913.732 211.06 918.498 212.193 924.279 212.193ZM1028.11 52.3491V232.349H999.748V52.3491H1028.11ZM1114.94 234.693C1105.57 234.693 1097.09 233.169 1089.51 230.123C1082.01 226.998 1075.61 222.662 1070.29 217.115C1065.06 211.568 1061.04 205.044 1058.22 197.544C1055.41 190.044 1054.01 181.958 1054.01 173.287V168.599C1054.01 158.677 1055.45 149.693 1058.34 141.646C1061.23 133.599 1065.26 126.724 1070.41 121.021C1075.57 115.24 1081.66 110.826 1088.69 107.779C1095.72 104.732 1103.34 103.208 1111.54 103.208C1120.61 103.208 1128.54 104.732 1135.33 107.779C1142.13 110.826 1147.76 115.123 1152.21 120.669C1156.74 126.138 1160.1 132.662 1162.29 140.24C1164.55 147.818 1165.69 156.177 1165.69 165.318V177.388H1067.72V157.115H1137.79V154.888C1137.64 149.81 1136.62 145.044 1134.75 140.591C1132.95 136.138 1130.18 132.544 1126.43 129.81C1122.68 127.076 1117.68 125.708 1111.43 125.708C1106.74 125.708 1102.56 126.724 1098.89 128.755C1095.29 130.708 1092.29 133.56 1089.86 137.31C1087.44 141.06 1085.57 145.591 1084.24 150.904C1082.99 156.138 1082.36 162.037 1082.36 168.599V173.287C1082.36 178.833 1083.11 183.99 1084.59 188.755C1086.15 193.443 1088.42 197.544 1091.39 201.06C1094.36 204.576 1097.95 207.349 1102.17 209.38C1106.39 211.333 1111.19 212.31 1116.58 212.31C1123.38 212.31 1129.44 210.943 1134.75 208.208C1140.06 205.474 1144.67 201.607 1148.58 196.607L1163.46 211.021C1160.72 215.005 1157.17 218.833 1152.79 222.505C1148.42 226.099 1143.07 229.029 1136.74 231.294C1130.49 233.56 1123.22 234.693 1114.94 234.693Z" fill="#031E46"/>
<path fill-rule="evenodd" clip-rule="evenodd" d="M211.322 138.633V55.9967H226.251H241.18V139.053V151.459L239.288 162.393L235.713 175.851L231.718 186.785L225.831 198.77L221.205 205.709L215.527 213.91L209.64 220.218L202.491 227.577L192.187 235.988L180.833 243.558L168.006 249.866L156.021 253.861L151.815 255.333L146.348 256.595L137.727 257.856L127.424 258.697H110.392L92.519 256.174L79.0617 252.179L56.9833 241.245L38.2693 226.526L24.8119 212.017L14.5087 196.667L5.88757 176.271L0.630817 153.352L-1.73752e-07 130.178H30.0687L32.8022 160.501L37.4282 174.799L44.5774 187.836L52.5676 198.139L59.9271 205.709L70.0201 213.069L76.5385 218.115L92.519 208.232L108.289 202.555L119.223 201.714H128.055L142.143 205.709L150.974 209.704L159.175 214.751L164.011 218.115L177.048 210.545L188.402 199.401L198.495 184.472L205.434 170.384L210.271 153.772L211.322 138.633Z" fill="#26D64C"/>
<path d="M241.18 55.9967H226.251H211.322H194.921L226.251 0.452148L256.894 55.9967H241.18Z" fill="#26D64C"/>
<path d="M42.6837 98.8917L44.3658 86.696L48.1507 89.4296L50.8842 91.322L59.0848 94.8966C61.9585 95.5975 67.7479 97.0414 67.9161 97.2096C68.0843 97.3778 74.2943 97.9806 77.3783 98.2609L84.7378 99.5226L92.5178 101.836L97.9848 104.99L102.821 109.195L105.555 113.4L108.078 118.237L110.601 124.965L111.652 132.535L111.022 138.843L108.078 145.151L105.344 149.357L101.98 145.782L97.1437 140.946L91.6767 136.53L85.5788 131.904L82.4248 130.853L83.4761 132.956L87.0507 136.74L92.3075 142.207L97.1437 147.885L100.929 153.352L104.713 158.819L109.97 167.23L111.442 170.384L113.545 174.589L115.858 178.584L117.33 182.579L119.643 187.205L121.535 184.262L123.428 180.266L125.32 177.112L127.633 173.117L129.946 170.594L132.049 167.86L134.151 164.286L137.095 162.604L141.511 158.398L144.455 154.403L141.09 154.613L137.936 156.296L134.572 158.398L132.049 160.922L128.474 163.655L127.633 162.604L126.161 157.347L125.53 153.983L125.32 149.777L125.53 148.095L125.951 147.044L127.633 142.628L130.577 138.212L132.679 135.479L137.305 131.694L141.301 129.381L147.398 126.227L152.865 124.334L160.856 121.811L168.215 120.97L175.575 119.919L181.252 119.498V120.55C181.182 121.321 181.042 122.947 181.042 123.283C181.042 123.62 180.481 124.965 180.201 125.596L179.57 128.96L178.518 134.848V144.1L177.888 149.777L176.836 156.506L173.472 162.604L169.897 166.178L163.379 170.384L154.758 173.538L143.614 175.22L139.618 175.43L133.521 174.799L129.315 181.528L125.951 191.201L124.058 196.878H114.806L114.176 194.985L113.335 190.78L111.652 185.733L109.129 179.846L106.816 173.958L104.083 168.912L102.4 165.127L99.8772 161.132L96.9335 157.768L93.1486 158.819L86.2097 159.239L78.6399 159.45L72.3318 158.819L68.1264 158.398L62.0285 155.665L58.8745 154.193L55.5102 151.88L51.7253 148.095L47.0993 140.946L43.3145 129.802L41.6323 118.447V108.354L42.6837 98.8917Z" fill="#26D64C"/>
</svg>
